<svg id="Layer_1" data-name="Layer 1" xmlns="http://www.w3.org/2000/svg" xmlns:xlink="http://www.w3.org/1999/xlink" viewBox="0 0 511 767"><defs><style>.cls-1,.cls-10,.cls-11,.cls-13,.cls-14,.cls-16,.cls-17,.cls-18,.cls-4,.cls-5,.cls-7,.cls-8{fill:none;}.cls-2{clip-path:url(#clip-path);}.cls-3{fill:#fff;}.cls-17,.cls-18,.cls-4{stroke:#000;}.cls-11,.cls-14,.cls-17,.cls-4,.cls-5,.cls-8{stroke-linecap:round;stroke-linejoin:round;}.cls-4{stroke-width:3px;}.cls-5,.cls-7{stroke:#b1001c;}.cls-10,.cls-11,.cls-13,.cls-14,.cls-16,.cls-17,.cls-18,.cls-5,.cls-7,.cls-8{stroke-width:2px;}.cls-6{fill:#b1001c;}.cls-10,.cls-13,.cls-16,.cls-18,.cls-7{stroke-miterlimit:10;}.cls-10,.cls-8{stroke:#4f8f00;}.cls-9{fill:#4f8f00;}.cls-11,.cls-13{stroke:#ffd479;}.cls-12{fill:#ffd479;}.cls-14,.cls-16{stroke:#003776;}.cls-15{fill:#003776;}</style><clipPath id="clip-path"><rect class="cls-1" width="511" height="767"/></clipPath></defs><title>Core VCL Flow</title><g class="cls-2"><rect class="cls-3" width="511" height="767"/><rect class="cls-3" width="511" height="767"/><path class="cls-3" d="M112.71,2h78.4c9.27,0,16.8,8.06,16.8,18s-7.53,18-16.8,18h-78.4c-9.27,0-16.8-8.06-16.8-18S103.44,2,112.71,2Z"/><path class="cls-4" d="M112.72,2h78.4c9.27,0,16.8,8.06,16.8,18s-7.53,18-16.8,18h-78.4c-9.27,0-16.8-8.06-16.8-18S103.44,2,112.72,2Z"/><path d="M123.73,18.68h1L126.07,22c.24.59.46,1.16.66,1.71h0c.2-.55.4-1.13.64-1.71l1.34-3.31h.95l-2.41,5.83h-1.1Z"/><path d="M131.27,21.6a3,3,0,0,1,3.25-3.07,3,3,0,0,1,2.12.85l-.49.64a2.36,2.36,0,0,0-1.6-.67,2.15,2.15,0,0,0-2.27,2.25,2.12,2.12,0,0,0,2.24,2.23,2.77,2.77,0,0,0,1.8-.73l.44.64a3.47,3.47,0,0,1-2.31.91A2.94,2.94,0,0,1,131.27,21.6Z"/><path d="M140.48,22.55V16.77H138.4V16h3.06v6.66a1.06,1.06,0,0,0,1.15,1.21,2.63,2.63,0,0,0,1.09-.26l.25.73a3.53,3.53,0,0,1-1.56.35C141.16,24.65,140.48,23.93,140.48,22.55Z"/><path d="M145.43,25.33h5.76v.85h-5.76Z"/><path d="M153.67,18.68h.82l.08,1.38h0a3.1,3.1,0,0,1,2.6-1.52,2.44,2.44,0,0,1,1.15.24l-.23.85a2.69,2.69,0,0,0-1.08-.2,2.75,2.75,0,0,0-2.4,1.67v3.42h-1Z"/><path d="M159.93,21.58a2.93,2.93,0,0,1,3-3,2.51,2.51,0,0,1,2.66,2.73,4.05,4.05,0,0,1,0,.6h-4.59a2.09,2.09,0,0,0,2.27,2,3.18,3.18,0,0,0,1.78-.55l.36.65a4,4,0,0,1-2.25.7A3,3,0,0,1,159.93,21.58Zm1-.48h3.72a1.67,1.67,0,0,0-1.74-1.79A2,2,0,0,0,160.95,21.1Z"/><path d="M167.27,21.6a3,3,0,0,1,3.25-3.07,3,3,0,0,1,2.12.85l-.49.64a2.36,2.36,0,0,0-1.6-.67,2.15,2.15,0,0,0-2.27,2.25,2.12,2.12,0,0,0,2.24,2.23,2.77,2.77,0,0,0,1.8-.73l.44.64a3.47,3.47,0,0,1-2.31.91A2.94,2.94,0,0,1,167.27,21.6Z"/><path d="M174.13,18.68h1L176.46,22c.24.59.46,1.16.66,1.71h0c.2-.55.4-1.13.64-1.71l1.34-3.31h.95l-2.41,5.83h-1.1Z"/><path class="cls-3" d="M18.72,95h78.4c9.27,0,16.8,8.06,16.8,18s-7.53,18-16.8,18H18.72c-9.27,0-16.8-8.06-16.8-18S9.44,95,18.72,95Z"/><path class="cls-4" d="M18.72,95h78.4c9.27,0,16.8,8.06,16.8,18s-7.53,18-16.8,18H18.72c-9.27,0-16.8-8.06-16.8-18S9.44,95,18.72,95Z"/><path d="M29.73,111.68h1L32.07,115c.24.59.46,1.16.66,1.71h0c.2-.55.4-1.13.64-1.71l1.34-3.31h.95l-2.41,5.83h-1.1Z"/><path d="M37.27,114.6a3,3,0,0,1,3.25-3.07,3,3,0,0,1,2.12.85l-.49.64a2.36,2.36,0,0,0-1.6-.67,2.15,2.15,0,0,0-2.27,2.25,2.12,2.12,0,0,0,2.24,2.23,2.77,2.77,0,0,0,1.8-.73l.44.64a3.47,3.47,0,0,1-2.31.91A2.94,2.94,0,0,1,37.27,114.6Z"/><path d="M46.48,115.55v-5.78H44.4V109h3.06v6.66a1.06,1.06,0,0,0,1.15,1.21,2.63,2.63,0,0,0,1.09-.26l.25.73a3.53,3.53,0,0,1-1.56.35C47.16,117.65,46.48,116.93,46.48,115.55Z"/><path d="M51.43,118.33h5.76v.85H51.43Z"/><path d="M59,111.68h.82l.08.74h0a3.07,3.07,0,0,1,2-.89c1.57,0,2.41,1.16,2.41,3,0,2-1.25,3.14-2.65,3.14A2.74,2.74,0,0,1,60,116.9h0l0,1.1v2H59Zm4.34,2.83c0-1.28-.48-2.15-1.64-2.15a2.55,2.55,0,0,0-1.72.88v2.9a2.52,2.52,0,0,0,1.56.68C62.62,116.82,63.37,115.95,63.37,114.51Z"/><path d="M68.9,112.48H66.19v-.8h3.69v5.83h-1Zm-.41-2.79a.79.79,0,1,1,.79.77A.76.76,0,0,1,68.5,109.69Z"/><path d="M73.43,111.68h.82l.08.74h0a3.07,3.07,0,0,1,2-.89c1.57,0,2.41,1.16,2.41,3,0,2-1.25,3.14-2.65,3.14a2.74,2.74,0,0,1-1.74-.75h0l0,1.1v2h-1Zm4.34,2.83c0-1.28-.48-2.15-1.64-2.15a2.55,2.55,0,0,0-1.72.88v2.9a2.52,2.52,0,0,0,1.56.68C77,116.82,77.77,115.95,77.77,114.51Z"/><path d="M80.33,114.58a2.93,2.93,0,0,1,3-3A2.51,2.51,0,0,1,86,114.27a4,4,0,0,1,0,.6H81.33a2.09,2.09,0,0,0,2.27,2,3.17,3.17,0,0,0,1.77-.55l.36.65a4,4,0,0,1-2.25.7A3,3,0,0,1,80.33,114.58Zm1-.48h3.72a1.67,1.67,0,0,0-1.74-1.79A2,2,0,0,0,81.35,114.1Z"/><path class="cls-3" d="M282.71,373h78.4c9.27,0,16.8,8.06,16.8,18s-7.53,18-16.8,18h-78.4c-9.27,0-16.8-8.06-16.8-18S273.44,373,282.71,373Z"/><path class="cls-4" d="M282.72,373h78.4c9.27,0,16.8,8.06,16.8,18s-7.53,18-16.8,18h-78.4c-9.27,0-16.8-8.06-16.8-18S273.44,373,282.72,373Z"/><path d="M293.73,389.68h1l1.34,3.31c.24.59.46,1.16.66,1.71h0c.2-.55.4-1.13.63-1.71l1.34-3.31h.95l-2.41,5.83h-1.1Z"/><path d="M301.27,392.6a3,3,0,0,1,3.25-3.07,3,3,0,0,1,2.12.85l-.49.64a2.36,2.36,0,0,0-1.59-.67,2.15,2.15,0,0,0-2.27,2.25,2.12,2.12,0,0,0,2.24,2.23,2.77,2.77,0,0,0,1.8-.73l.44.64a3.47,3.47,0,0,1-2.31.91A2.94,2.94,0,0,1,301.27,392.6Z"/><path d="M310.48,393.55v-5.78H308.4V387h3.06v6.66a1.06,1.06,0,0,0,1.15,1.21,2.63,2.63,0,0,0,1.09-.26l.25.73a3.53,3.53,0,0,1-1.56.35C311.16,395.65,310.48,394.93,310.48,393.55Z"/><path d="M315.43,396.33h5.76v.85h-5.76Z"/><path d="M323,389.68h.82l.08.74h0a3.07,3.07,0,0,1,2-.89c1.57,0,2.41,1.16,2.41,3,0,2-1.25,3.14-2.65,3.14a2.74,2.74,0,0,1-1.74-.75h0l0,1.1v2h-1Zm4.34,2.83c0-1.28-.48-2.15-1.64-2.15a2.54,2.54,0,0,0-1.71.88v2.9a2.51,2.51,0,0,0,1.56.68C326.62,394.82,327.37,393.95,327.37,392.51Z"/><path d="M330.09,394c0-1.31,1.21-1.94,4.22-2.18a1.38,1.38,0,0,0-1.55-1.46,4.07,4.07,0,0,0-2,.7l-.38-.67a5,5,0,0,1,2.59-.84,2.16,2.16,0,0,1,2.36,2.4v3.57h-.8l-.08-.79h0a4,4,0,0,1-2.3.94A1.76,1.76,0,0,1,330.09,394Zm4.22,0v-1.54c-2.49.2-3.26.7-3.26,1.46s.61.94,1.28.94A3.15,3.15,0,0,0,334.31,394Z"/><path d="M337.17,394.74l.46-.65a4.14,4.14,0,0,0,2.53.79c1,0,1.47-.42,1.47-.91s-.24-.76-1.82-1.08-2.28-.83-2.28-1.7.83-1.66,2.42-1.66a4.37,4.37,0,0,1,2.35.74l-.48.64a3.45,3.45,0,0,0-2-.61c-1,0-1.34.4-1.34.84s.5.72,1.69,1c1.94.42,2.41.91,2.41,1.8s-.92,1.74-2.59,1.74A5.12,5.12,0,0,1,337.17,394.74Z"/><path d="M344.37,394.74l.46-.65a4.14,4.14,0,0,0,2.53.79c1,0,1.47-.42,1.47-.91s-.24-.76-1.82-1.08-2.28-.83-2.28-1.7.83-1.66,2.42-1.66a4.37,4.37,0,0,1,2.35.74l-.48.64a3.45,3.45,0,0,0-2-.61c-1,0-1.34.4-1.34.84s.5.72,1.69,1c1.94.42,2.41.91,2.41,1.8s-.92,1.74-2.59,1.74A5.12,5.12,0,0,1,344.37,394.74Z"/><path class="cls-5" d="M151.91,38c0,22.7,0,55.15,0,74.82v185.6c0,33.37,55.68,58.92,106.56,75.34"/><polygon class="cls-6" points="267.64 376.63 259.54 370.34 257.4 377.21 267.64 376.63"/><polygon class="cls-7" points="267.64 376.63 259.54 370.34 257.4 377.21 267.64 376.63"/><path d="M146.79,258.25a3.2,3.2,0,0,1-3.43,3.24,3.89,3.89,0,0,1-.61,0v2.4s0,.07-.06.08l-.88.1s-.06,0-.06-.07v-7.47c0-.11,0-.37,0-.53a0,0,0,0,1,0,0,6.07,6.07,0,0,1,2.23-.48A2.66,2.66,0,0,1,146.79,258.25Zm-4-1.76v4.07a2.56,2.56,0,0,0,.68.07,2.21,2.21,0,0,0,2.34-2.32,1.81,1.81,0,0,0-1.91-2A3.24,3.24,0,0,0,142.75,256.48Z"/><path d="M152.15,260.35a4.55,4.55,0,0,0,0,.58s0,0,0,0a5,5,0,0,1-2.24.52c-1.27,0-2.23-.62-2.23-1.88s1.19-1.83,2.67-1.83c.44,0,.7,0,.83,0v-.29a1.18,1.18,0,0,0-1.36-1.2,3.2,3.2,0,0,0-1.52.36.06.06,0,0,1-.08-.06v-.73a.11.11,0,0,1,.06-.1,4,4,0,0,1,1.7-.36,2,2,0,0,1,2.17,2.25Zm-1-1.76a5.65,5.65,0,0,0-.79,0c-1.16,0-1.73.4-1.73,1.07s.37,1.07,1.43,1.07a2.81,2.81,0,0,0,1.09-.2Z"/><path d="M155.41,256.24c-.79,0-1.06.38-1.06.74s.22.61,1.12,1c1.21.47,1.7,1,1.7,1.81,0,1.1-.9,1.71-2.15,1.71a3.41,3.41,0,0,1-1.61-.35.11.11,0,0,1-.06-.11v-.8c0-.06,0-.08.07-.06a2.89,2.89,0,0,0,1.62.48c.77,0,1.14-.34,1.14-.78s-.26-.71-1.09-1c-1.2-.46-1.7-.95-1.7-1.8s.73-1.62,2-1.62a3,3,0,0,1,1.4.26c.06,0,.06.07.06.12v.73c0,.06,0,.1-.1.06A2.9,2.9,0,0,0,155.41,256.24Z"/><path d="M160.14,256.24c-.79,0-1.06.38-1.06.74s.22.61,1.12,1c1.21.47,1.7,1,1.7,1.81,0,1.1-.9,1.71-2.15,1.71a3.41,3.41,0,0,1-1.61-.35.11.11,0,0,1-.06-.11v-.8c0-.06,0-.08.07-.06a2.89,2.89,0,0,0,1.62.48c.77,0,1.14-.34,1.14-.78s-.26-.71-1.09-1c-1.2-.46-1.7-.95-1.7-1.8s.73-1.62,2-1.62a3,3,0,0,1,1.4.26c.06,0,.06.07.06.12v.73c0,.06,0,.1-.1.06A2.9,2.9,0,0,0,160.14,256.24Z"/><path class="cls-3" d="M198.71,95h78.4c9.27,0,16.8,8.06,16.8,18s-7.53,18-16.8,18h-78.4c-9.27,0-16.8-8.06-16.8-18S189.44,95,198.71,95Z"/><path class="cls-4" d="M198.72,95h78.4c9.27,0,16.8,8.06,16.8,18s-7.53,18-16.8,18h-78.4c-9.27,0-16.8-8.06-16.8-18S189.44,95,198.72,95Z"/><path d="M209.73,111.68h1l1.34,3.31c.24.59.46,1.16.66,1.71h0c.2-.55.4-1.13.64-1.71l1.34-3.31h.95l-2.41,5.83h-1.1Z"/><path d="M217.27,114.6a3,3,0,0,1,3.25-3.07,3,3,0,0,1,2.12.85l-.49.64a2.36,2.36,0,0,0-1.6-.67,2.15,2.15,0,0,0-2.27,2.25,2.12,2.12,0,0,0,2.24,2.23,2.77,2.77,0,0,0,1.8-.73l.44.64a3.47,3.47,0,0,1-2.31.91A2.94,2.94,0,0,1,217.27,114.6Z"/><path d="M226.48,115.55v-5.78H224.4V109h3.06v6.66a1.06,1.06,0,0,0,1.15,1.21,2.63,2.63,0,0,0,1.09-.26l.25.73a3.53,3.53,0,0,1-1.56.35C227.16,117.65,226.48,116.93,226.48,115.55Z"/><path d="M231.43,118.33h5.76v.85h-5.76Z"/><path d="M239,109h1v2.33l-.06,1.38h0a3,3,0,0,1,2.18-1.14c1.38,0,2,.82,2,2.35v3.62h-1V114c0-1.1-.38-1.63-1.34-1.63-.7,0-1.16.35-1.85,1.06v4.07h-1Z"/><path d="M246.09,116c0-1.31,1.21-1.94,4.22-2.18a1.38,1.38,0,0,0-1.55-1.46,4.07,4.07,0,0,0-2,.7l-.38-.67a5,5,0,0,1,2.59-.84,2.16,2.16,0,0,1,2.36,2.4v3.57h-.8l-.08-.79h0a4,4,0,0,1-2.3.94A1.76,1.76,0,0,1,246.09,116Zm4.22,0v-1.54c-2.49.2-3.26.7-3.26,1.46s.61.94,1.28.94A3.15,3.15,0,0,0,250.31,116Z"/><path d="M253.17,116.74l.46-.65a4.13,4.13,0,0,0,2.53.79c1,0,1.47-.42,1.47-.91s-.24-.76-1.82-1.08-2.28-.83-2.28-1.7.83-1.66,2.42-1.66a4.37,4.37,0,0,1,2.35.74l-.48.64a3.45,3.45,0,0,0-2-.61c-1,0-1.34.4-1.34.84s.5.72,1.69,1c1.94.42,2.41.91,2.41,1.8s-.92,1.74-2.59,1.74A5.12,5.12,0,0,1,253.17,116.74Z"/><path d="M260.63,109h1v2.33l-.06,1.38h0a3,3,0,0,1,2.18-1.14c1.38,0,2,.82,2,2.35v3.62h-1V114c0-1.1-.38-1.63-1.34-1.63-.7,0-1.16.35-1.85,1.06v4.07h-1Z"/><path class="cls-8" d="M168.57,38,212,85"/><polygon class="cls-9" points="218.56 92.08 214.68 82.59 209.4 87.48 218.56 92.08"/><polygon class="cls-10" points="218.56 92.08 214.68 82.59 209.4 87.48 218.56 92.08"/><path d="M178.41,62.11c0-.06,0-.07.08-.07h.84c.06,0,.07,0,.07.07v7.23c0,.47.19.58.48.58a1,1,0,0,0,.24,0s0,0,0,.07v.62c0,.06,0,.07-.06.1a1.47,1.47,0,0,1-.55.08c-.59,0-1.15-.2-1.15-1.33Z"/><path d="M186.38,67.71a2.76,2.76,0,1,1-5.49,0,2.8,2.8,0,0,1,2.76-3A2.75,2.75,0,0,1,186.38,67.71Zm-4.49,0c0,1.22.64,2.2,1.77,2.2.85,0,1.69-.67,1.69-2.16,0-1.12-.52-2.18-1.76-2.18C182.59,65.56,181.89,66.42,181.89,67.7Z"/><path d="M192.8,67.71a2.76,2.76,0,1,1-5.49,0,2.8,2.8,0,0,1,2.76-3A2.75,2.75,0,0,1,192.8,67.71Zm-4.49,0c0,1.22.64,2.2,1.77,2.2.85,0,1.69-.67,1.69-2.16,0-1.12-.52-2.18-1.76-2.18C189,65.56,188.31,66.42,188.31,67.7Z"/><path d="M198.66,64.81c.06,0,.08,0,0,.1-.34.37-2.15,2.12-2.59,2.55,0,0,0,0,0,0,.78.82,2.09,2.17,3,3,0,0,0,.08,0,.08h-1.14a.15.15,0,0,1-.12-.06c-.62-.64-2.13-2.22-2.71-2.84v2.82c0,.06,0,.08-.07.08h-.84c-.07,0-.08,0-.08-.08V62.11s0-.07.08-.07H195a.06.06,0,0,1,.07.07v5.37c.56-.56,2.22-2.28,2.53-2.61a.15.15,0,0,1,.12-.06Z"/><path d="M204.09,69.37a7.89,7.89,0,0,0,.07,1.2s0,.07-.07.07h-.77c-.06,0-.07,0-.1-.06a3.16,3.16,0,0,1-.07-.52,2.36,2.36,0,0,1-1.74.7c-1,0-2-.52-2-2.25V64.88c0-.06,0-.07.08-.07h.85s.06,0,.06.07v3.5c0,.92.43,1.49,1.27,1.49a1.8,1.8,0,0,0,1.39-.61V64.88s0-.07.08-.07H204c.07,0,.07,0,.07.07Z"/><path d="M210.82,67.52a3.2,3.2,0,0,1-3.43,3.24,3.89,3.89,0,0,1-.61,0v2.4s0,.07-.06.08l-.88.1s-.06,0-.06-.07V65.75c0-.11,0-.37,0-.53a0,0,0,0,1,0,0,6.07,6.07,0,0,1,2.23-.48A2.66,2.66,0,0,1,210.82,67.52Zm-4-1.76v4.07a2.56,2.56,0,0,0,.68.07,2.21,2.21,0,0,0,2.34-2.32,1.81,1.81,0,0,0-1.91-2A3.24,3.24,0,0,0,206.78,65.76Z"/><path class="cls-11" d="M133.71,38,85.79,85.43"/><polygon class="cls-12" points="78.97 92.19 88.33 87.99 83.26 82.88 78.97 92.19"/><polygon class="cls-13" points="78.97 92.19 88.33 87.99 83.26 82.88 78.97 92.19"/><path d="M100.16,67.52a3.2,3.2,0,0,1-3.43,3.24,3.89,3.89,0,0,1-.61,0v2.4s0,.07-.06.08l-.88.1s-.06,0-.06-.07V65.75c0-.11,0-.37,0-.53a0,0,0,0,1,0,0,6.07,6.07,0,0,1,2.23-.48A2.66,2.66,0,0,1,100.16,67.52Zm-4-1.76v4.07a2.56,2.56,0,0,0,.68.07,2.21,2.21,0,0,0,2.34-2.32,1.81,1.81,0,0,0-1.91-2A3.24,3.24,0,0,0,96.12,65.76Z"/><path d="M101.33,63.05a.59.59,0,0,1,.61-.61.57.57,0,0,1,.6.61.58.58,0,0,1-.61.61A.57.57,0,0,1,101.33,63.05Zm.1,1.85c0-.06,0-.08.08-.08h.85s.07,0,.07.07v5.67c0,.06,0,.08-.08.08h-.83c-.06,0-.1,0-.1-.1Z"/><path d="M109.16,67.52a3.2,3.2,0,0,1-3.43,3.24,3.89,3.89,0,0,1-.61,0v2.4s0,.07-.06.08l-.88.1s-.06,0-.06-.07V65.75c0-.11,0-.37,0-.53a0,0,0,0,1,0,0,6.07,6.07,0,0,1,2.23-.48A2.66,2.66,0,0,1,109.16,67.52Zm-4-1.76v4.07a2.56,2.56,0,0,0,.68.07,2.21,2.21,0,0,0,2.34-2.32,1.81,1.81,0,0,0-1.91-2A3.24,3.24,0,0,0,105.12,65.76Z"/><path d="M111.11,67.85a1.87,1.87,0,0,0,2,2,3.38,3.38,0,0,0,1.5-.32s.06,0,.06,0v.68a.12.12,0,0,1-.06.12,3.68,3.68,0,0,1-1.69.35,2.7,2.7,0,0,1-2.82-3c0-1.68,1-3.08,2.65-3.08a2.29,2.29,0,0,1,2.34,2.41,3.17,3.17,0,0,1,0,.62.08.08,0,0,1-.08.07,9.84,9.84,0,0,1-1.24,0Zm2.24-.74a4.63,4.63,0,0,0,.77,0,.48.48,0,0,0,0-.13,1.4,1.4,0,0,0-1.42-1.43,1.63,1.63,0,0,0-1.59,1.58Z"/><rect class="cls-3" x="1.91" y="188.01" width="112" height="36"/><rect class="cls-4" x="1.91" y="188.01" width="112" height="36"/><path d="M22,202.67s0-.08.06-.08c.38,0,1.18,0,2,0,2.12,0,3.06,1.2,3.06,2.54,0,1.82-1.44,2.67-3.18,2.67H23v2.66c0,.06,0,.08-.07.08H22a.06.06,0,0,1-.07-.07Zm1,4.19h.91c1.18,0,2.19-.44,2.19-1.75,0-1.09-.84-1.68-2.05-1.68-.49,0-.86,0-1.06,0Z"/><path d="M28.24,202.92a.59.59,0,0,1,.61-.61.57.57,0,0,1,.6.61.58.58,0,0,1-.61.61A.57.57,0,0,1,28.24,202.92Zm.1,1.85c0-.06,0-.08.08-.08h.85s.07,0,.07.07v5.67c0,.06,0,.08-.08.08h-.83c-.06,0-.1,0-.1-.1Z"/><path d="M36.07,207.39a3.2,3.2,0,0,1-3.43,3.24,3.89,3.89,0,0,1-.61,0V213s0,.07-.06.08l-.88.1s-.06,0-.06-.07v-7.47c0-.11,0-.37,0-.53a0,0,0,0,1,0,0,6.07,6.07,0,0,1,2.23-.48A2.66,2.66,0,0,1,36.07,207.39Zm-4-1.76v4.07a2.56,2.56,0,0,0,.68.07,2.21,2.21,0,0,0,2.34-2.32,1.81,1.81,0,0,0-1.91-2A3.24,3.24,0,0,0,32,205.63Z"/><path d="M38,207.71a1.87,1.87,0,0,0,2,2,3.38,3.38,0,0,0,1.5-.32s.06,0,.06,0v.68a.12.12,0,0,1-.06.12,3.68,3.68,0,0,1-1.69.35,2.7,2.7,0,0,1-2.82-3c0-1.68,1-3.08,2.65-3.08A2.29,2.29,0,0,1,42,207a3.17,3.17,0,0,1,0,.62.08.08,0,0,1-.08.07,9.83,9.83,0,0,1-1.23,0Zm2.24-.74a4.63,4.63,0,0,0,.77,0,.48.48,0,0,0,0-.13,1.4,1.4,0,0,0-1.42-1.43A1.63,1.63,0,0,0,38,207Z"/><path d="M50.63,209.24a7.89,7.89,0,0,0,.07,1.2s0,.07-.07.07h-.77c-.06,0-.07,0-.1-.06a3.16,3.16,0,0,1-.07-.52,2.36,2.36,0,0,1-1.74.7c-1,0-2-.52-2-2.25v-3.62c0-.06,0-.07.08-.07h.85s.06,0,.06.07v3.5c0,.92.43,1.49,1.27,1.49a1.8,1.8,0,0,0,1.39-.61v-4.38s0-.07.08-.07h.84c.07,0,.07,0,.07.07Z"/><path d="M52.32,206c0-.41,0-1.08,0-1.28,0,0,0-.07.07-.07h.74a.11.11,0,0,1,.11.07,3.82,3.82,0,0,1,.07.6,2.52,2.52,0,0,1,1.83-.79c.85,0,2,.42,2,2.32v3.55c0,.06,0,.08-.08.08h-.84c-.06,0-.08,0-.08-.1V207c0-.91-.4-1.52-1.24-1.52a1.92,1.92,0,0,0-1.5.73v4.25c0,.06,0,.08-.07.08h-.85s-.07,0-.07-.08Z"/><path d="M61.25,210.34a.11.11,0,0,1-.07.12,2.22,2.22,0,0,1-.9.17c-.88,0-1.4-.42-1.4-1.57v-3.51h-.82c-.07,0-.08,0-.08-.1v-.68c0-.06,0-.08.08-.08h.82c0-.44.06-1.27.11-1.54a.1.1,0,0,1,.08-.08l.82-.13s.07,0,.07,0c0,.42-.07,1.12-.07,1.7h1.27s.07,0,.07.08v.71a.06.06,0,0,1-.07.07H59.88v3.37c0,.55.2.86.73.86a1.65,1.65,0,0,0,.56-.1s.07,0,.07,0Z"/><path d="M62.23,202.92a.59.59,0,0,1,.61-.61.57.57,0,0,1,.6.61.58.58,0,0,1-.61.61A.57.57,0,0,1,62.23,202.92Zm.1,1.85c0-.06,0-.08.08-.08h.85s.07,0,.07.07v5.67c0,.06,0,.08-.08.08h-.83c-.06,0-.1,0-.1-.1Z"/><path d="M65,202c0-.06,0-.07.08-.07H66c.06,0,.07,0,.07.07v7.23c0,.47.19.58.48.58a1,1,0,0,0,.24,0s0,0,0,.07v.62c0,.06,0,.07-.06.1a1.47,1.47,0,0,1-.55.08c-.59,0-1.15-.2-1.15-1.33Z"/><path d="M74.59,210.35s0,.07,0,.08a3.63,3.63,0,0,1-1.31.19,2.82,2.82,0,0,1-3-3,3.27,3.27,0,0,1,4.27-2.9s0,0,0,.11v.75c0,.06,0,.06-.08,0a2.78,2.78,0,0,0-1.1-.18,2.14,2.14,0,0,0,0,4.28,3,3,0,0,0,1.12-.17c.06,0,.07,0,.07,0Z"/><path d="M75.79,202c0-.06,0-.07.08-.07h.84c.06,0,.07,0,.07.07v7.23c0,.47.19.58.48.58a1,1,0,0,0,.24,0s0,0,0,.07v.62c0,.06,0,.07-.06.1a1.47,1.47,0,0,1-.55.08c-.59,0-1.15-.2-1.15-1.33Z"/><path d="M83.76,207.58a2.76,2.76,0,1,1-5.49,0,2.8,2.8,0,0,1,2.76-3A2.75,2.75,0,0,1,83.76,207.58Zm-4.49,0c0,1.22.64,2.2,1.77,2.2.85,0,1.69-.67,1.69-2.16,0-1.12-.52-2.18-1.76-2.18C80,205.42,79.27,206.29,79.27,207.57Z"/><path d="M86.81,205.39c-.79,0-1.06.38-1.06.74s.22.61,1.12,1c1.21.47,1.7,1,1.7,1.81,0,1.1-.9,1.71-2.15,1.71a3.41,3.41,0,0,1-1.61-.35.11.11,0,0,1-.06-.11v-.8c0-.06,0-.08.07-.06a2.89,2.89,0,0,0,1.62.48c.77,0,1.14-.34,1.14-.78s-.26-.71-1.09-1c-1.2-.46-1.7-.95-1.7-1.8s.73-1.62,2-1.62a3,3,0,0,1,1.4.26c.06,0,.06.07.06.12v.73c0,.06,0,.1-.1.06A2.9,2.9,0,0,0,86.81,205.39Z"/><path d="M90.43,207.71a1.87,1.87,0,0,0,2,2,3.38,3.38,0,0,0,1.5-.32s.06,0,.06,0v.68a.12.12,0,0,1-.06.12,3.68,3.68,0,0,1-1.69.35,2.7,2.7,0,0,1-2.82-3c0-1.68,1-3.08,2.65-3.08A2.29,2.29,0,0,1,94.42,207a3.17,3.17,0,0,1,0,.62.08.08,0,0,1-.08.07,9.84,9.84,0,0,1-1.24,0Zm2.24-.74a4.63,4.63,0,0,0,.77,0,.48.48,0,0,0,0-.13A1.4,1.4,0,0,0,92,205.39,1.63,1.63,0,0,0,90.45,207Z"/><path class="cls-11" d="M57.91,131v43.6"/><polygon class="cls-12" points="57.91 184.21 61.52 174.61 54.31 174.61 57.91 184.21"/><polygon class="cls-13" points="57.91 184.21 61.52 174.61 54.31 174.61 57.91 184.21"/><path d="M52.79,160.51a3.2,3.2,0,0,1-3.43,3.24,3.89,3.89,0,0,1-.61,0v2.4s0,.07-.06.08l-.88.1s-.06,0-.06-.07v-7.47c0-.11,0-.37,0-.53a0,0,0,0,1,0,0,6.07,6.07,0,0,1,2.23-.48A2.66,2.66,0,0,1,52.79,160.51Zm-4-1.76v4.07a2.56,2.56,0,0,0,.68.07,2.21,2.21,0,0,0,2.34-2.32,1.81,1.81,0,0,0-1.91-2A3.24,3.24,0,0,0,48.75,158.75Z"/><path d="M54,156a.59.59,0,0,1,.61-.61.57.57,0,0,1,.6.61.58.58,0,0,1-.61.61A.57.57,0,0,1,54,156Zm.1,1.85c0-.06,0-.08.08-.08H55s.07,0,.07.07v5.67c0,.06,0,.08-.08.08h-.83c-.06,0-.1,0-.1-.1Z"/><path d="M61.79,160.51a3.2,3.2,0,0,1-3.43,3.24,3.89,3.89,0,0,1-.61,0v2.4s0,.07-.06.08l-.88.1s-.06,0-.06-.07v-7.47c0-.11,0-.37,0-.53a0,0,0,0,1,0,0,6.07,6.07,0,0,1,2.23-.48A2.66,2.66,0,0,1,61.79,160.51Zm-4-1.76v4.07a2.56,2.56,0,0,0,.68.07,2.21,2.21,0,0,0,2.34-2.32,1.81,1.81,0,0,0-1.91-2A3.24,3.24,0,0,0,57.75,158.75Z"/><path d="M63.74,160.84a1.87,1.87,0,0,0,2,2,3.38,3.38,0,0,0,1.5-.32s.06,0,.06,0v.68a.12.12,0,0,1-.06.12,3.68,3.68,0,0,1-1.69.35,2.7,2.7,0,0,1-2.82-3c0-1.68,1-3.08,2.65-3.08a2.29,2.29,0,0,1,2.34,2.41,3.17,3.17,0,0,1,0,.62.08.08,0,0,1-.08.07,9.84,9.84,0,0,1-1.24,0Zm2.24-.74a4.63,4.63,0,0,0,.77,0,.48.48,0,0,0,0-.13,1.4,1.4,0,0,0-1.42-1.43,1.63,1.63,0,0,0-1.59,1.58Z"/><rect class="cls-3" x="183.91" y="188.01" width="112" height="36"/><rect class="cls-4" x="183.91" y="188.01" width="112" height="36"/><path d="M206.46,202.92c0,.06,0,.08-.07.08h-.84c-.06,0-.08,0-.08-.08v-7.76c0-.06,0-.08.07-.08h.85a.06.06,0,0,1,.07.07Z"/><path d="M209.78,197.89c-.79,0-1.06.38-1.06.74s.22.61,1.12,1c1.21.47,1.7,1,1.7,1.81,0,1.1-.9,1.71-2.15,1.71a3.41,3.41,0,0,1-1.61-.35.11.11,0,0,1-.06-.11v-.8c0-.06,0-.08.07-.06a2.89,2.89,0,0,0,1.62.48c.77,0,1.14-.34,1.14-.78s-.26-.71-1.09-1c-1.2-.46-1.7-.95-1.7-1.8s.73-1.62,2-1.62a3,3,0,0,1,1.4.26c.06,0,.06.07.06.12v.73c0,.06,0,.1-.1.06A2.9,2.9,0,0,0,209.78,197.89Z"/><path d="M218,202.84a.11.11,0,0,1-.07.12,2.22,2.22,0,0,1-.9.17c-.88,0-1.4-.42-1.4-1.57V198h-.82c-.07,0-.08,0-.08-.1v-.68c0-.06,0-.08.08-.08h.82c0-.44.06-1.27.11-1.54a.1.1,0,0,1,.08-.08l.82-.13s.07,0,.07,0c0,.42-.07,1.12-.07,1.7h1.27s.07,0,.07.08V198a.06.06,0,0,1-.07.07h-1.27v3.37c0,.55.2.86.73.86a1.65,1.65,0,0,0,.56-.1s.07,0,.07,0Z"/><path d="M220.1,202.93c0,.06,0,.07-.07.07h-.84c-.06,0-.08,0-.08-.08v-8.44s0-.07.07-.07H220s.06,0,.06.06v3.29a2.5,2.5,0,0,1,1.77-.7c.85,0,2,.42,2,2.32v3.55c0,.06,0,.08-.08.08h-.84c-.06,0-.08,0-.08-.1v-3.43c0-.92-.4-1.54-1.24-1.54a2,2,0,0,0-1.5.66Z"/><path d="M226.13,200.21a1.87,1.87,0,0,0,2,2,3.38,3.38,0,0,0,1.5-.32s.06,0,.06,0v.68a.12.12,0,0,1-.06.12,3.68,3.68,0,0,1-1.69.35,2.7,2.7,0,0,1-2.82-3c0-1.68,1-3.08,2.65-3.08a2.29,2.29,0,0,1,2.34,2.41,3.17,3.17,0,0,1,0,.62.08.08,0,0,1-.08.07,9.84,9.84,0,0,1-1.24,0Zm2.24-.74a4.63,4.63,0,0,0,.77,0,.48.48,0,0,0,0-.13,1.4,1.4,0,0,0-1.42-1.43,1.63,1.63,0,0,0-1.59,1.58Z"/><path d="M239.17,200.08a2.76,2.76,0,1,1-5.49,0,2.8,2.8,0,0,1,2.76-3A2.75,2.75,0,0,1,239.17,200.08Zm-4.49,0c0,1.22.64,2.2,1.77,2.2.85,0,1.69-.67,1.69-2.16,0-1.12-.52-2.18-1.76-2.18C235.38,197.92,234.68,198.79,234.68,200.07Z"/><path d="M241.34,194.41c.06,0,.08,0,.08.07v2.82a3.41,3.41,0,0,1,1.29-.24,2.64,2.64,0,0,1,2.73,2.81,3.16,3.16,0,0,1-3.32,3.26,5.18,5.18,0,0,1-1.64-.24.1.1,0,0,1-.07-.11v-8.3c0-.06,0-.07.08-.07Zm1.22,3.53a2.84,2.84,0,0,0-1.14.2v4a2.54,2.54,0,0,0,.79.1,2.15,2.15,0,0,0,2.22-2.32A1.82,1.82,0,0,0,242.56,197.93Z"/><path d="M247.7,197.18a.06.06,0,0,1,.07.07v5.82a2.86,2.86,0,0,1-.59,2.17,1.91,1.91,0,0,1-1.36.52h-.2c-.06,0-.07,0-.07-.08v-.72s0-.07.07-.07c.62,0,1.15-.22,1.15-1.56v-6.06a.06.06,0,0,1,.07-.07Zm-1-1.76a.58.58,0,0,1,.6-.61.57.57,0,0,1,.6.61.58.58,0,0,1-.6.61A.57.57,0,0,1,246.68,195.42Z"/><path d="M250.05,200.21a1.87,1.87,0,0,0,2,2,3.38,3.38,0,0,0,1.5-.32s.06,0,.06,0v.68a.12.12,0,0,1-.06.12,3.68,3.68,0,0,1-1.69.35,2.7,2.7,0,0,1-2.82-3c0-1.68,1-3.08,2.65-3.08a2.29,2.29,0,0,1,2.34,2.41,3.17,3.17,0,0,1,0,.62.08.08,0,0,1-.08.07,9.84,9.84,0,0,1-1.24,0Zm2.24-.74a4.63,4.63,0,0,0,.77,0,.48.48,0,0,0,0-.13,1.4,1.4,0,0,0-1.42-1.43,1.63,1.63,0,0,0-1.59,1.58Z"/><path d="M259.25,202.85s0,.07,0,.08a3.63,3.63,0,0,1-1.31.19,2.82,2.82,0,0,1-3-3,3.27,3.27,0,0,1,4.27-2.9s0,0,0,.11v.75c0,.06,0,.06-.08,0a2.78,2.78,0,0,0-1.1-.18,2.14,2.14,0,0,0,0,4.28,3,3,0,0,0,1.12-.17c.06,0,.07,0,.07,0Z"/><path d="M263.24,202.84a.12.12,0,0,1-.07.12,2.22,2.22,0,0,1-.9.17c-.88,0-1.4-.42-1.4-1.57V198H260c-.07,0-.08,0-.08-.1v-.68c0-.06,0-.08.08-.08h.82c0-.44.06-1.27.11-1.54a.1.1,0,0,1,.08-.08l.82-.13s.07,0,.07,0c0,.42-.07,1.12-.07,1.7h1.27s.07,0,.07.08V198a.06.06,0,0,1-.07.07h-1.27v3.37c0,.55.2.86.73.86a1.65,1.65,0,0,0,.56-.1s.07,0,.07,0Z"/><path d="M266.92,195.42a.59.59,0,0,1,.61-.61.57.57,0,0,1,.6.61.58.58,0,0,1-.61.61A.57.57,0,0,1,266.92,195.42Zm.1,1.85c0-.06,0-.08.08-.08H268s.07,0,.07.07v5.67c0,.06,0,.08-.08.08h-.83c-.06,0-.1,0-.1-.1Z"/><path d="M269.72,198.53c0-.41,0-1.08,0-1.28,0,0,0-.07.07-.07h.74a.11.11,0,0,1,.11.07,3.89,3.89,0,0,1,.07.6,2.52,2.52,0,0,1,1.83-.79c.85,0,2,.42,2,2.32v3.55c0,.06,0,.08-.08.08h-.84c-.06,0-.08,0-.08-.1v-3.44c0-.91-.4-1.52-1.24-1.52a1.92,1.92,0,0,0-1.5.73v4.25c0,.06,0,.08-.07.08h-.85s-.07,0-.07-.08Z"/><path d="M228.16,217.85s0,.07,0,.08a3.63,3.63,0,0,1-1.31.19,2.82,2.82,0,0,1-3-3,3.27,3.27,0,0,1,4.27-2.9s0,0,0,.11v.75c0,.06,0,.06-.08,0a2.78,2.78,0,0,0-1.1-.18,2.14,2.14,0,0,0,0,4.28,3,3,0,0,0,1.12-.17c.06,0,.07,0,.07,0Z"/><path d="M233.49,217a4.55,4.55,0,0,0,0,.58s0,0,0,0a5,5,0,0,1-2.24.52c-1.27,0-2.23-.62-2.23-1.88s1.19-1.83,2.67-1.83c.44,0,.7,0,.83,0v-.29a1.18,1.18,0,0,0-1.36-1.2,3.2,3.2,0,0,0-1.52.36.06.06,0,0,1-.08-.06v-.73a.11.11,0,0,1,.06-.1,4,4,0,0,1,1.7-.36,2,2,0,0,1,2.17,2.25Zm-1-1.76a5.65,5.65,0,0,0-.79,0c-1.16,0-1.73.4-1.73,1.07s.37,1.07,1.43,1.07a2.81,2.81,0,0,0,1.09-.2Z"/><path d="M239,217.85s0,.07,0,.08a3.63,3.63,0,0,1-1.31.19,2.82,2.82,0,0,1-3-3,3.27,3.27,0,0,1,4.27-2.9s0,0,0,.11v.75c0,.06,0,.06-.08,0a2.78,2.78,0,0,0-1.1-.18,2.14,2.14,0,0,0,0,4.28,3,3,0,0,0,1.12-.17c.06,0,.07,0,.07,0Z"/><path d="M241.23,217.93c0,.06,0,.07-.07.07h-.84c-.06,0-.08,0-.08-.08v-8.44s0-.07.07-.07h.86s.06,0,.06.06v3.29a2.5,2.5,0,0,1,1.77-.7c.85,0,2,.42,2,2.32v3.55c0,.06,0,.08-.08.08H244c-.06,0-.08,0-.08-.1v-3.43c0-.92-.4-1.54-1.24-1.54a2,2,0,0,0-1.5.66Z"/><path d="M247.25,215.21a1.87,1.87,0,0,0,2,2,3.38,3.38,0,0,0,1.5-.32s.06,0,.06,0v.68a.12.12,0,0,1-.06.12,3.68,3.68,0,0,1-1.69.35,2.7,2.7,0,0,1-2.82-3c0-1.68,1-3.08,2.65-3.08a2.29,2.29,0,0,1,2.34,2.41,3.17,3.17,0,0,1,0,.62.08.08,0,0,1-.08.07,9.83,9.83,0,0,1-1.23,0Zm2.24-.74a4.63,4.63,0,0,0,.77,0,.48.48,0,0,0,0-.13,1.4,1.4,0,0,0-1.42-1.43,1.63,1.63,0,0,0-1.6,1.58Z"/><path d="M256.06,211.81a2.28,2.28,0,0,1-.78,1.69c-.47.47-.94.89-.94,1.31a1.36,1.36,0,0,0,.24.73s0,.07,0,.07h-.72a.17.17,0,0,1-.12,0,1.38,1.38,0,0,1-.29-.86c0-.58.42-1,1-1.56a1.66,1.66,0,0,0,.65-1.22c0-.6-.38-1-1.19-1a2.79,2.79,0,0,0-1.48.41,0,0,0,0,1-.07,0v-.8s0-.07,0-.1A3.26,3.26,0,0,1,254,210,1.84,1.84,0,0,1,256.06,211.81Zm-2.55,5.71a.59.59,0,0,1,.61-.61.58.58,0,0,1,.61.61.61.61,0,1,1-1.22,0Z"/><path class="cls-8" d="M238.3,131c.27,12.57.62,29,.94,43.6"/><polygon class="cls-9" points="239.44 184.21 242.84 174.53 235.64 174.69 239.44 184.21"/><polygon class="cls-10" points="239.44 184.21 242.84 174.53 235.64 174.69 239.44 184.21"/><path d="M228.74,163.56c0,.06,0,.07-.07.07h-.84c-.06,0-.08,0-.08-.08V155.1s0-.07.07-.07h.86s.06,0,.06.06v3.29a2.5,2.5,0,0,1,1.77-.7c.85,0,2,.42,2,2.32v3.55c0,.06,0,.08-.08.08h-.84c-.06,0-.08,0-.08-.1v-3.43c0-.92-.4-1.54-1.24-1.54a2,2,0,0,0-1.5.66Z"/><path d="M238.18,162.61a4.55,4.55,0,0,0,0,.58s0,0,0,0a5,5,0,0,1-2.24.52c-1.27,0-2.23-.62-2.23-1.88s1.19-1.83,2.67-1.83c.44,0,.7,0,.83,0v-.29a1.18,1.18,0,0,0-1.36-1.2,3.2,3.2,0,0,0-1.52.36.06.06,0,0,1-.08-.06v-.73a.11.11,0,0,1,.06-.1,4,4,0,0,1,1.7-.36,2,2,0,0,1,2.17,2.25Zm-1-1.76a5.65,5.65,0,0,0-.79,0c-1.16,0-1.73.4-1.73,1.07s.37,1.07,1.43,1.07a2.81,2.81,0,0,0,1.09-.2Z"/><path d="M241.44,158.51c-.79,0-1.06.38-1.06.74s.22.61,1.12,1c1.21.47,1.7,1,1.7,1.81,0,1.1-.9,1.71-2.15,1.71a3.41,3.41,0,0,1-1.61-.35.11.11,0,0,1-.06-.11v-.8c0-.06,0-.08.07-.06a2.89,2.89,0,0,0,1.62.48c.77,0,1.14-.34,1.14-.78s-.26-.71-1.09-1c-1.2-.46-1.7-.95-1.7-1.8s.73-1.62,2-1.62a3,3,0,0,1,1.4.26c.06,0,.06.07.06.12v.73c0,.06,0,.1-.1.06A2.9,2.9,0,0,0,241.44,158.51Z"/><path d="M245.36,163.56c0,.06,0,.07-.07.07h-.84c-.06,0-.08,0-.08-.08V155.1s0-.07.07-.07h.86s.06,0,.06.06v3.29a2.5,2.5,0,0,1,1.77-.7c.85,0,2,.42,2,2.32v3.55c0,.06,0,.08-.08.08h-.84c-.06,0-.08,0-.08-.1v-3.43c0-.92-.4-1.54-1.24-1.54a2,2,0,0,0-1.5.66Z"/><path class="cls-3" d="M197.71,280h78.4c9.27,0,16.8,8.06,16.8,18s-7.53,18-16.8,18h-78.4c-9.27,0-16.8-8.06-16.8-18S188.44,280,197.71,280Z"/><path class="cls-4" d="M197.72,280h78.4c9.27,0,16.8,8.06,16.8,18s-7.53,18-16.8,18h-78.4c-9.27,0-16.8-8.06-16.8-18S188.44,280,197.72,280Z"/><path d="M212.33,296.68h1l1.34,3.31c.24.59.46,1.16.66,1.71h0c.2-.55.4-1.13.64-1.71l1.34-3.31h.95l-2.41,5.83h-1.1Z"/><path d="M219.87,299.6a3,3,0,0,1,3.25-3.07,3,3,0,0,1,2.12.85l-.49.64a2.36,2.36,0,0,0-1.6-.67,2.15,2.15,0,0,0-2.27,2.25,2.12,2.12,0,0,0,2.24,2.23,2.77,2.77,0,0,0,1.8-.73l.44.64a3.47,3.47,0,0,1-2.31.91A2.94,2.94,0,0,1,219.87,299.6Z"/><path d="M229.08,300.55v-5.78H227V294h3.06v6.66a1.06,1.06,0,0,0,1.15,1.21,2.63,2.63,0,0,0,1.09-.26l.25.73a3.53,3.53,0,0,1-1.56.35C229.76,302.65,229.08,301.93,229.08,300.55Z"/><path d="M234,303.33h5.76v.85H234Z"/><path d="M241.63,294h1v2.33l-.06,1.38h0a3,3,0,0,1,2.18-1.14c1.38,0,2,.82,2,2.35v3.62h-1V299c0-1.1-.38-1.63-1.34-1.63-.7,0-1.16.35-1.85,1.06v4.07h-1Z"/><path d="M251.5,297.48h-2.71v-.8h3.69v5.83h-1Zm-.41-2.79a.79.79,0,1,1,.79.77A.76.76,0,0,1,251.1,294.69Z"/><path d="M257.38,300.24v-2.76h-1.64v-.74l1.68-.06.13-1.87h.82v1.87h2.87v.8h-2.87v2.77c0,1,.35,1.6,1.47,1.6a3.84,3.84,0,0,0,1.4-.26l.22.72a5.07,5.07,0,0,1-1.82.35C257.94,302.65,257.38,301.68,257.38,300.24Z"/><path class="cls-3" d="M328.71,280h78.4c9.27,0,16.8,8.06,16.8,18s-7.53,18-16.8,18h-78.4c-9.27,0-16.8-8.06-16.8-18S319.44,280,328.71,280Z"/><path class="cls-4" d="M328.72,280h78.4c9.27,0,16.8,8.06,16.8,18s-7.53,18-16.8,18h-78.4c-9.27,0-16.8-8.06-16.8-18S319.44,280,328.72,280Z"/><path d="M339.73,296.68h1l1.34,3.31c.24.59.46,1.16.66,1.71h0c.2-.55.4-1.13.63-1.71l1.34-3.31h.95l-2.41,5.83h-1.1Z"/><path d="M347.27,299.6a3,3,0,0,1,3.25-3.07,3,3,0,0,1,2.12.85l-.49.64a2.36,2.36,0,0,0-1.59-.67,2.15,2.15,0,0,0-2.27,2.25,2.12,2.12,0,0,0,2.24,2.23,2.77,2.77,0,0,0,1.8-.73l.44.64a3.47,3.47,0,0,1-2.31.91A2.94,2.94,0,0,1,347.27,299.6Z"/><path d="M356.48,300.55v-5.78H354.4V294h3.06v6.66a1.06,1.06,0,0,0,1.15,1.21,2.63,2.63,0,0,0,1.09-.26l.25.73a3.53,3.53,0,0,1-1.56.35C357.16,302.65,356.48,301.93,356.48,300.55Z"/><path d="M361.43,303.33h5.76v.85h-5.76Z"/><path d="M368.61,296.68h.79l.08.77h0a1.45,1.45,0,0,1,1.33-.91c.58,0,.94.34,1.1,1,.34-.62.7-1,1.37-1s1.3.64,1.3,1.8v4.17h-1v-4.1c0-.67-.19-1-.62-1s-.62.3-.94.9v4.22h-.91v-4.1c0-.67-.17-1-.6-1s-.67.3-1,.9v4.22h-1Z"/><path d="M378.9,297.48h-2.71v-.8h3.69v5.83h-1Zm-.41-2.79a.79.79,0,1,1,.79.77A.76.76,0,0,1,378.5,294.69Z"/><path d="M383.17,301.74l.46-.65a4.14,4.14,0,0,0,2.53.79c1,0,1.47-.42,1.47-.91s-.24-.76-1.82-1.08-2.28-.83-2.28-1.7.83-1.66,2.42-1.66a4.37,4.37,0,0,1,2.35.74l-.48.64a3.45,3.45,0,0,0-2-.61c-1,0-1.34.4-1.34.84s.5.72,1.69,1c1.94.42,2.41.91,2.41,1.8s-.92,1.74-2.59,1.74A5.12,5.12,0,0,1,383.17,301.74Z"/><path d="M390.37,301.74l.46-.65a4.14,4.14,0,0,0,2.53.79c1,0,1.47-.42,1.47-.91s-.24-.76-1.82-1.08-2.28-.83-2.28-1.7.83-1.66,2.42-1.66a4.37,4.37,0,0,1,2.35.74l-.48.64a3.45,3.45,0,0,0-2-.61c-1,0-1.34.4-1.34.84s.5.72,1.69,1c1.94.42,2.41.91,2.41,1.8s-.92,1.74-2.59,1.74A5.12,5.12,0,0,1,390.37,301.74Z"/><path class="cls-8" d="M239.33,224l-1.39,42.61"/><polygon class="cls-9" points="237.62 276.21 241.53 266.73 234.34 266.5 237.62 276.21"/><polygon class="cls-10" points="237.62 276.21 241.53 266.73 234.34 266.5 237.62 276.21"/><path d="M231,250.3a.08.08,0,0,1,.08.06c1,2.64,1.49,4,1.65,4.54.38-1.1.89-2.48,1.62-4.54a.11.11,0,0,1,.1-.06h.85c.06,0,.07,0,0,.08-.89,2.6-2.12,5.67-3.26,8.24a.15.15,0,0,1-.13.08l-.9.07c-.06,0-.06,0,0-.1.35-.73.79-1.7,1.19-2.65a.17.17,0,0,0,0-.16c-.29-.72-1.49-3.63-2.22-5.5,0,0,0-.07.06-.07Z"/><path d="M236.94,253.34a1.87,1.87,0,0,0,2,2,3.38,3.38,0,0,0,1.5-.32s.06,0,.06,0v.68a.12.12,0,0,1-.06.12,3.68,3.68,0,0,1-1.69.35,2.7,2.7,0,0,1-2.82-3c0-1.68,1-3.08,2.65-3.08a2.29,2.29,0,0,1,2.34,2.41,3.17,3.17,0,0,1,0,.62.08.08,0,0,1-.08.07,9.84,9.84,0,0,1-1.24,0Zm2.24-.74a4.63,4.63,0,0,0,.77,0,.48.48,0,0,0,0-.13,1.4,1.4,0,0,0-1.42-1.43A1.63,1.63,0,0,0,237,252.6Z"/><path d="M243.92,251c-.79,0-1.06.38-1.06.74s.22.61,1.12,1c1.21.47,1.7,1,1.7,1.81,0,1.1-.9,1.71-2.15,1.71a3.41,3.41,0,0,1-1.61-.35.11.11,0,0,1-.06-.11V255c0-.06,0-.08.07-.06a2.89,2.89,0,0,0,1.62.48c.77,0,1.14-.34,1.14-.78s-.26-.71-1.09-1c-1.2-.46-1.7-.95-1.7-1.8s.73-1.62,2-1.62a3,3,0,0,1,1.4.26c.06,0,.06.07.06.12v.73c0,.06,0,.1-.1.06A2.9,2.9,0,0,0,243.92,251Z"/><path class="cls-14" d="M264.91,224c19.44,14,45.3,32.51,66.84,48"/><polygon class="cls-15" points="339.55 277.58 333.86 269.06 329.65 274.91 339.55 277.58"/><polygon class="cls-16" points="339.55 277.58 333.86 269.06 329.65 274.91 339.55 277.58"/><path d="M297.76,251.68c0-.41,0-1.08,0-1.28,0,0,0-.07.07-.07h.74a.1.1,0,0,1,.11.07,3.77,3.77,0,0,1,.07.6,2.52,2.52,0,0,1,1.83-.79c.85,0,2,.42,2,2.32v3.55c0,.06,0,.08-.08.08h-.84c-.06,0-.08,0-.08-.1v-3.44c0-.91-.4-1.52-1.24-1.52a1.92,1.92,0,0,0-1.5.73v4.25c0,.06,0,.08-.07.08h-.85s-.07,0-.07-.08Z"/><path d="M309.26,253.22a2.76,2.76,0,1,1-5.49,0,2.8,2.8,0,0,1,2.76-3A2.75,2.75,0,0,1,309.26,253.22Zm-4.49,0c0,1.22.64,2.2,1.77,2.2.85,0,1.69-.67,1.69-2.16,0-1.12-.52-2.18-1.76-2.18C305.47,251.06,304.77,251.93,304.77,253.21Z"/><path class="cls-3" d="M282.71,729h78.4c9.27,0,16.8,8.06,16.8,18s-7.53,18-16.8,18h-78.4c-9.27,0-16.8-8.06-16.8-18S273.44,729,282.71,729Z"/><path class="cls-4" d="M282.72,729h78.4c9.27,0,16.8,8.06,16.8,18s-7.53,18-16.8,18h-78.4c-9.27,0-16.8-8.06-16.8-18S273.44,729,282.72,729Z"/><path d="M282.93,745.68h1l1.34,3.31c.24.59.46,1.16.66,1.71h0c.2-.55.4-1.13.64-1.71l1.34-3.31h.95l-2.41,5.83h-1.1Z"/><path d="M290.47,748.6a3,3,0,0,1,3.25-3.07,3,3,0,0,1,2.12.85l-.49.64a2.36,2.36,0,0,0-1.6-.67,2.15,2.15,0,0,0-2.27,2.25,2.12,2.12,0,0,0,2.24,2.23,2.77,2.77,0,0,0,1.8-.73l.44.64a3.47,3.47,0,0,1-2.31.91A2.94,2.94,0,0,1,290.47,748.6Z"/><path d="M299.68,749.55v-5.78H297.6V743h3.06v6.66a1.06,1.06,0,0,0,1.15,1.21,2.64,2.64,0,0,0,1.09-.26l.25.73a3.53,3.53,0,0,1-1.56.35C300.36,751.65,299.68,750.93,299.68,749.55Z"/><path d="M304.63,752.33h5.76v.85h-5.76Z"/><path d="M311.83,748.6a2.81,2.81,0,0,1,2.65-3.07,2.42,2.42,0,0,1,1.74.76h0l0-1.08V743h1v8.54h-.82l-.08-.77h0a2.79,2.79,0,0,1-1.89.91C312.84,751.65,311.83,750.55,311.83,748.6Zm4.38,1.34V747a2.21,2.21,0,0,0-1.54-.68,2,2,0,0,0-1.82,2.23c0,1.39.63,2.23,1.71,2.23A2.24,2.24,0,0,0,316.21,749.95Z"/><path d="M319.13,748.58a2.93,2.93,0,0,1,3-3,2.51,2.51,0,0,1,2.66,2.73,4,4,0,0,1,0,.6h-4.59a2.09,2.09,0,0,0,2.27,2,3.17,3.17,0,0,0,1.78-.55l.36.65a4,4,0,0,1-2.25.7A3,3,0,0,1,319.13,748.58Zm1-.48h3.72a1.67,1.67,0,0,0-1.74-1.79A2,2,0,0,0,320.15,748.1Z"/><path d="M328.48,749.55v-5.78H326.4V743h3.06v6.66a1.06,1.06,0,0,0,1.15,1.21,2.63,2.63,0,0,0,1.09-.26l.25.73a3.53,3.53,0,0,1-1.56.35C329.16,751.65,328.48,750.93,328.48,749.55Z"/><path d="M336.5,746.48h-2.71v-.8h3.69v5.83h-1Zm-.41-2.79a.79.79,0,1,1,.79.77A.76.76,0,0,1,336.1,743.69Z"/><path d="M340.53,745.68h1l1.34,3.31c.24.59.46,1.16.66,1.71h0c.2-.55.4-1.13.63-1.71l1.34-3.31h.95l-2.41,5.83H343Z"/><path d="M347.93,748.58a2.93,2.93,0,0,1,3-3,2.51,2.51,0,0,1,2.66,2.73,4,4,0,0,1,0,.6h-4.59a2.09,2.09,0,0,0,2.27,2,3.18,3.18,0,0,0,1.78-.55l.36.65a4,4,0,0,1-2.25.7A3,3,0,0,1,347.93,748.58Zm1-.48h3.72a1.67,1.67,0,0,0-1.74-1.79A2,2,0,0,0,348.95,748.1Z"/><path d="M356.06,745.68h.82l.08,1.38h0a3.1,3.1,0,0,1,2.6-1.52,2.44,2.44,0,0,1,1.15.24l-.23.85a2.7,2.7,0,0,0-1.08-.2,2.75,2.75,0,0,0-2.4,1.67v3.42h-1Z"/><path class="cls-8" d="M236.92,316c0,22.81,0,55.54,0,75.22v278.4c0,13.71,24,34.34,47.17,51.36"/><polygon class="cls-9" points="291.89 726.59 286.19 718.07 281.99 723.92 291.89 726.59"/><polygon class="cls-10" points="291.89 726.59 286.19 718.07 281.99 723.92 291.89 726.59"/><path d="M220.84,540.12A3,3,0,0,1,224.1,537a4.12,4.12,0,0,1,.76.07v-2.65c0-.06,0-.07.07-.07h.86c.06,0,.07,0,.07.06V542a4.92,4.92,0,0,0,0,.58s0,.06-.06.08a4.62,4.62,0,0,1-2,.44A2.77,2.77,0,0,1,220.84,540.12Zm4-2.1a2.27,2.27,0,0,0-3,2.05,1.93,1.93,0,0,0,2,2.16,2.57,2.57,0,0,0,1-.16Z"/><path d="M228.13,540.19a1.87,1.87,0,0,0,2,2,3.38,3.38,0,0,0,1.5-.32s.06,0,.06,0v.68a.12.12,0,0,1-.06.12,3.68,3.68,0,0,1-1.69.35,2.7,2.7,0,0,1-2.82-3c0-1.68,1-3.08,2.65-3.08a2.29,2.29,0,0,1,2.34,2.41,3.17,3.17,0,0,1,0,.62.08.08,0,0,1-.08.07,9.84,9.84,0,0,1-1.24,0Zm2.24-.74a4.63,4.63,0,0,0,.77,0,.48.48,0,0,0,0-.13,1.4,1.4,0,0,0-1.42-1.43,1.63,1.63,0,0,0-1.59,1.58Z"/><path d="M233.33,534.46c0-.06,0-.07.08-.07h.84c.06,0,.07,0,.07.07v7.23c0,.47.19.58.48.58a1,1,0,0,0,.24,0s0,0,0,.07v.62c0,.06,0,.07-.06.1a1.47,1.47,0,0,1-.55.08c-.59,0-1.15-.2-1.15-1.33Z"/><path d="M236.12,535.39a.59.59,0,0,1,.61-.61.57.57,0,0,1,.6.61.58.58,0,0,1-.61.61A.57.57,0,0,1,236.12,535.39Zm.1,1.85c0-.06,0-.08.08-.08h.85s.07,0,.07.07v5.67c0,.06,0,.08-.08.08h-.83c-.06,0-.1,0-.1-.1Z"/><path d="M240.39,543a.1.1,0,0,1-.11-.06c-.25-.73-1.73-4.88-2-5.69,0,0,0-.08,0-.08h.92c.06,0,.07,0,.1.07,1,3,1.44,4.34,1.57,4.83h0c.14-.49.59-1.77,1.64-4.84a.09.09,0,0,1,.1-.06h.83s.07,0,0,.08c-.35.94-1.81,5-2.08,5.67a.11.11,0,0,1-.11.07Z"/><path d="M245.16,540.19a1.87,1.87,0,0,0,2,2,3.38,3.38,0,0,0,1.5-.32s.06,0,.06,0v.68a.12.12,0,0,1-.06.12,3.68,3.68,0,0,1-1.69.35,2.7,2.7,0,0,1-2.82-3c0-1.68,1-3.08,2.65-3.08a2.29,2.29,0,0,1,2.34,2.41,3.17,3.17,0,0,1,0,.62.08.08,0,0,1-.08.07,9.84,9.84,0,0,1-1.24,0Zm2.24-.74a4.63,4.63,0,0,0,.77,0,.48.48,0,0,0,0-.13,1.4,1.4,0,0,0-1.42-1.43,1.63,1.63,0,0,0-1.59,1.58Z"/><path d="M251.12,537.16c.07,0,.08,0,.11.08a4.62,4.62,0,0,1,.1.83,2.5,2.5,0,0,1,1.93-1c.06,0,.08,0,.08.08V538c0,.06,0,.07-.08.07a2.26,2.26,0,0,0-1.88.88v4c0,.06,0,.07-.07.07h-.85c-.06,0-.08,0-.08-.08v-4.14c0-.5,0-1.2-.06-1.54,0,0,0-.07.06-.07Z"/><path class="cls-5" d="M253.37,316l42.92,47"/><polygon class="cls-6" points="302.77 370.07 298.95 360.56 293.64 365.41 302.77 370.07"/><polygon class="cls-7" points="302.77 370.07 298.95 360.56 293.64 365.41 302.77 370.07"/><path d="M274,345.52a3.21,3.21,0,0,1-3.43,3.24,3.89,3.89,0,0,1-.61,0v2.4s0,.07-.06.08l-.87.1s-.06,0-.06-.07v-7.47c0-.11,0-.37,0-.53a0,0,0,0,1,0,0,6.08,6.08,0,0,1,2.23-.48A2.66,2.66,0,0,1,274,345.52Zm-4-1.76v4.07a2.56,2.56,0,0,0,.68.07,2.21,2.21,0,0,0,2.34-2.32,1.81,1.81,0,0,0-1.91-2A3.24,3.24,0,0,0,269.91,343.76Z"/><path d="M279.32,347.62a4.64,4.64,0,0,0,0,.58s0,0,0,0a5,5,0,0,1-2.24.52c-1.27,0-2.23-.62-2.23-1.88S276,345,277.52,345c.44,0,.7,0,.83,0v-.29a1.18,1.18,0,0,0-1.36-1.2,3.2,3.2,0,0,0-1.52.36.06.06,0,0,1-.08-.06v-.73a.11.11,0,0,1,.06-.1,4,4,0,0,1,1.7-.36,2,2,0,0,1,2.17,2.25Zm-1-1.76a5.65,5.65,0,0,0-.79,0c-1.16,0-1.73.4-1.73,1.07s.37,1.07,1.43,1.07a2.81,2.81,0,0,0,1.09-.2Z"/><path d="M282.57,343.52c-.79,0-1.05.38-1.05.74s.22.61,1.12,1c1.21.47,1.7,1,1.7,1.81,0,1.1-.9,1.71-2.15,1.71a3.41,3.41,0,0,1-1.61-.35.11.11,0,0,1-.06-.11v-.8c0-.06,0-.08.07-.06a2.89,2.89,0,0,0,1.62.48c.77,0,1.14-.34,1.14-.78s-.26-.71-1.09-1c-1.2-.46-1.7-.95-1.7-1.8s.73-1.62,2-1.62a3,3,0,0,1,1.4.26c.06,0,.06.07.06.12v.73c0,.06,0,.1-.1.06A2.91,2.91,0,0,0,282.57,343.52Z"/><path d="M287.3,343.52c-.79,0-1.06.38-1.06.74s.22.61,1.12,1c1.21.47,1.7,1,1.7,1.81,0,1.1-.9,1.71-2.15,1.71a3.41,3.41,0,0,1-1.61-.35.11.11,0,0,1-.06-.11v-.8c0-.06,0-.08.07-.06a2.9,2.9,0,0,0,1.62.48c.77,0,1.14-.34,1.14-.78s-.26-.71-1.09-1c-1.2-.46-1.7-.95-1.7-1.8s.73-1.62,2-1.62a3,3,0,0,1,1.4.26c.06,0,.06.07.06.12v.73c0,.06,0,.1-.1.06A2.9,2.9,0,0,0,287.3,343.52Z"/><rect class="cls-3" x="294.92" y="466.01" width="112" height="36"/><rect class="cls-4" x="294.91" y="466.01" width="112" height="36"/><path d="M310,480.92c0,.06,0,.08-.07.08H309s-.06,0-.06-.08v-7.77s0-.07.07-.07h4.4s.07,0,.08.07l.08.76c0,.06,0,.08-.07.08H310v2.65h3.19c.06,0,.08,0,.08.07v.77s0,.07-.08.07H310Z"/><path d="M315.15,478.21a1.87,1.87,0,0,0,2,2,3.38,3.38,0,0,0,1.5-.32s.06,0,.06,0v.68a.12.12,0,0,1-.06.12,3.68,3.68,0,0,1-1.69.35,2.7,2.7,0,0,1-2.82-3c0-1.68,1-3.08,2.65-3.08a2.29,2.29,0,0,1,2.34,2.41,3.19,3.19,0,0,1,0,.62.08.08,0,0,1-.08.07,9.84,9.84,0,0,1-1.24,0Zm2.24-.74a4.63,4.63,0,0,0,.77,0,.46.46,0,0,0,0-.13,1.4,1.4,0,0,0-1.42-1.43,1.63,1.63,0,0,0-1.59,1.58Z"/><path d="M323,480.84a.12.12,0,0,1-.07.12,2.22,2.22,0,0,1-.9.17c-.88,0-1.4-.42-1.4-1.57V476h-.82c-.07,0-.08,0-.08-.1v-.68c0-.06,0-.08.08-.08h.82c0-.44.06-1.27.11-1.54a.1.1,0,0,1,.08-.08l.82-.13s.07,0,.07,0c0,.42-.07,1.12-.07,1.7h1.27s.07,0,.07.08V476a.06.06,0,0,1-.07.07h-1.27v3.37c0,.55.2.86.73.86a1.65,1.65,0,0,0,.56-.1s.07,0,.07,0Z"/><path d="M327.91,480.85s0,.07,0,.08a3.64,3.64,0,0,1-1.31.19,2.82,2.82,0,0,1-3-3,3.27,3.27,0,0,1,4.27-2.9s0,0,0,.11v.75c0,.06,0,.06-.08,0a2.78,2.78,0,0,0-1.1-.18,2.14,2.14,0,0,0,0,4.28,3,3,0,0,0,1.12-.17c.06,0,.07,0,.07,0Z"/><path d="M330.12,480.93c0,.06,0,.07-.07.07h-.84c-.06,0-.08,0-.08-.08v-8.44s0-.07.07-.07h.86s.06,0,.06.06v3.29a2.5,2.5,0,0,1,1.77-.7c.85,0,2,.42,2,2.32v3.55c0,.06,0,.08-.08.08h-.84c-.06,0-.08,0-.08-.1v-3.43c0-.92-.4-1.54-1.24-1.54a2,2,0,0,0-1.5.66Z"/><path d="M343.4,478.08a2.76,2.76,0,1,1-5.49,0,2.8,2.8,0,0,1,2.76-3A2.75,2.75,0,0,1,343.4,478.08Zm-4.49,0c0,1.22.64,2.2,1.78,2.2.85,0,1.69-.67,1.69-2.16,0-1.12-.52-2.18-1.76-2.18C339.61,475.92,338.91,476.79,338.91,478.07Z"/><path d="M345.57,472.41c.06,0,.08,0,.08.07v2.82a3.41,3.41,0,0,1,1.29-.24,2.65,2.65,0,0,1,2.74,2.81,3.16,3.16,0,0,1-3.32,3.26,5.19,5.19,0,0,1-1.64-.24.1.1,0,0,1-.07-.11v-8.3c0-.06,0-.07.08-.07Zm1.22,3.53a2.85,2.85,0,0,0-1.14.2v4a2.54,2.54,0,0,0,.79.1,2.15,2.15,0,0,0,2.22-2.32A1.82,1.82,0,0,0,346.8,475.93Z"/><path d="M351.95,475.18a.06.06,0,0,1,.07.07v5.82a2.86,2.86,0,0,1-.59,2.17,1.91,1.91,0,0,1-1.36.52h-.2c-.06,0-.07,0-.07-.08v-.72s0-.07.07-.07c.62,0,1.15-.22,1.15-1.56v-6.06a.06.06,0,0,1,.07-.07Zm-1-1.76a.58.58,0,0,1,.6-.61.57.57,0,0,1,.6.61.58.58,0,0,1-.6.61A.57.57,0,0,1,350.93,473.42Z"/><path d="M354.3,478.21a1.87,1.87,0,0,0,2,2,3.38,3.38,0,0,0,1.5-.32s.06,0,.06,0v.68a.12.12,0,0,1-.06.12,3.68,3.68,0,0,1-1.69.35,2.7,2.7,0,0,1-2.82-3c0-1.68,1-3.08,2.65-3.08a2.29,2.29,0,0,1,2.34,2.41,3.19,3.19,0,0,1,0,.62.08.08,0,0,1-.08.07,9.84,9.84,0,0,1-1.24,0Zm2.24-.74a4.63,4.63,0,0,0,.77,0,.46.46,0,0,0,0-.13,1.4,1.4,0,0,0-1.42-1.43,1.63,1.63,0,0,0-1.59,1.58Z"/><path d="M363.5,480.85s0,.07,0,.08a3.63,3.63,0,0,1-1.31.19,2.82,2.82,0,0,1-3-3,3.27,3.27,0,0,1,4.27-2.9s0,0,0,.11v.75c0,.06,0,.06-.08,0a2.78,2.78,0,0,0-1.1-.18,2.14,2.14,0,0,0,0,4.28,3,3,0,0,0,1.12-.17c.06,0,.07,0,.07,0Z"/><path d="M367.48,480.84a.12.12,0,0,1-.07.12,2.22,2.22,0,0,1-.9.17c-.88,0-1.4-.42-1.4-1.57V476h-.82c-.07,0-.08,0-.08-.1v-.68c0-.06,0-.08.08-.08h.82c0-.44.06-1.27.11-1.54a.1.1,0,0,1,.08-.08l.82-.13s.07,0,.07,0c0,.42-.07,1.12-.07,1.7h1.27s.07,0,.07.08V476a.06.06,0,0,1-.07.07h-1.27v3.37c0,.55.2.86.73.86a1.65,1.65,0,0,0,.56-.1s.07,0,.07,0Z"/><path d="M370.59,476s-.07,0-.07-.08v-.71a.06.06,0,0,1,.07-.07h.78v-.43a3.29,3.29,0,0,1,.28-1.51,1.66,1.66,0,0,1,1.57-.95,1.32,1.32,0,0,1,.55.08c.06,0,.06,0,.06.1v.71s0,.07-.07.06a1.32,1.32,0,0,0-.42-.06c-.58,0-1,.31-1,1.46v.54h1.15s.07,0,.07.06V476c0,.06,0,.07-.07.08h-1.15v4.88s0,.08-.07.08h-.85s-.07,0-.07-.08V476Z"/><path d="M375.18,475.18c.07,0,.08,0,.11.08a4.61,4.61,0,0,1,.1.83,2.5,2.5,0,0,1,1.93-1c.06,0,.08,0,.08.08V476c0,.06,0,.07-.08.07a2.26,2.26,0,0,0-1.88.88v4c0,.06,0,.07-.07.07h-.85c-.06,0-.08,0-.08-.08v-4.14c0-.5,0-1.2-.06-1.54,0,0,0-.07.06-.07Z"/><path d="M383.39,478.08a2.76,2.76,0,1,1-5.49,0,2.8,2.8,0,0,1,2.76-3A2.75,2.75,0,0,1,383.39,478.08Zm-4.49,0c0,1.22.64,2.2,1.77,2.2.85,0,1.69-.67,1.69-2.16,0-1.12-.52-2.18-1.76-2.18C379.6,475.92,378.91,476.79,378.91,478.07Z"/><path d="M384.72,481c-.06,0-.07,0-.07-.08v-4.49c0-.53,0-1,0-1.19,0,0,0-.07.07-.07h.76a.11.11,0,0,1,.1.06,3.46,3.46,0,0,1,.07.58,2.55,2.55,0,0,1,1.8-.76,1.69,1.69,0,0,1,1.59.88,2.77,2.77,0,0,1,2-.88c.89,0,1.94.47,1.94,2.29v3.59s0,.07-.08.07H392c-.06,0-.08,0-.08-.08v-3.5c0-.82-.37-1.48-1.22-1.48a1.93,1.93,0,0,0-1.48.7,4.1,4.1,0,0,1,.06.77v3.51c0,.06,0,.08-.08.08h-.84c-.06,0-.08,0-.08-.08v-3.54c0-.91-.42-1.44-1.2-1.44a1.94,1.94,0,0,0-1.45.67v4.32s0,.07-.07.07Z"/><path d="M332.06,487.41c.06,0,.08,0,.08.07v2.82a3.41,3.41,0,0,1,1.29-.24,2.65,2.65,0,0,1,2.74,2.81,3.16,3.16,0,0,1-3.32,3.26,5.19,5.19,0,0,1-1.64-.24.1.1,0,0,1-.07-.11v-8.3c0-.06,0-.07.08-.07Zm1.22,3.53a2.85,2.85,0,0,0-1.14.2v4a2.54,2.54,0,0,0,.79.1,2.15,2.15,0,0,0,2.22-2.32A1.82,1.82,0,0,0,333.29,490.93Z"/><path d="M341.54,495a4.64,4.64,0,0,0,0,.58s0,0,0,0a5,5,0,0,1-2.24.52c-1.27,0-2.23-.62-2.23-1.88s1.19-1.83,2.67-1.83c.44,0,.7,0,.83,0v-.29a1.18,1.18,0,0,0-1.36-1.2,3.2,3.2,0,0,0-1.52.36.06.06,0,0,1-.08-.06v-.73a.11.11,0,0,1,.06-.1,4,4,0,0,1,1.7-.36,2,2,0,0,1,2.17,2.25Zm-1-1.76a5.65,5.65,0,0,0-.79,0c-1.16,0-1.73.4-1.73,1.07s.37,1.07,1.43,1.07a2.81,2.81,0,0,0,1.09-.2Z"/><path d="M347.07,495.85s0,.07,0,.08a3.64,3.64,0,0,1-1.31.19,2.82,2.82,0,0,1-3-3,3.27,3.27,0,0,1,4.27-2.9s0,0,0,.11v.75c0,.06,0,.06-.08,0a2.78,2.78,0,0,0-1.1-.18,2.14,2.14,0,0,0,0,4.28,3,3,0,0,0,1.12-.17c.06,0,.07,0,.07,0Z"/><path d="M352.89,490.18c.06,0,.08,0,0,.1-.34.37-2.15,2.12-2.59,2.55,0,0,0,0,0,0,.78.82,2.09,2.17,3,3,0,0,0,.08,0,.08h-1.14a.15.15,0,0,1-.12-.06c-.62-.64-2.13-2.22-2.71-2.84v2.82c0,.06,0,.08-.07.08h-.84c-.07,0-.08,0-.08-.08v-8.44s0-.07.08-.07h.84a.06.06,0,0,1,.07.07v5.37c.56-.56,2.22-2.28,2.53-2.61,0,0,.07-.06.12-.06Z"/><path d="M354.45,493.21a1.87,1.87,0,0,0,2,2,3.38,3.38,0,0,0,1.5-.32s.06,0,.06,0v.68a.12.12,0,0,1-.06.12,3.68,3.68,0,0,1-1.69.35,2.7,2.7,0,0,1-2.82-3c0-1.68,1-3.08,2.65-3.08a2.29,2.29,0,0,1,2.34,2.41,3.19,3.19,0,0,1,0,.62.08.08,0,0,1-.08.07,9.84,9.84,0,0,1-1.24,0Zm2.24-.74a4.63,4.63,0,0,0,.77,0,.46.46,0,0,0,0-.13,1.4,1.4,0,0,0-1.42-1.43,1.63,1.63,0,0,0-1.59,1.58Z"/><path d="M359.65,491.53c0-.41,0-1.08,0-1.28,0,0,0-.07.07-.07h.74a.11.11,0,0,1,.11.07,3.89,3.89,0,0,1,.07.6,2.52,2.52,0,0,1,1.83-.79c.85,0,2,.42,2,2.32v3.55c0,.06,0,.08-.08.08h-.84c-.06,0-.08,0-.08-.1v-3.44c0-.91-.4-1.52-1.24-1.52a1.92,1.92,0,0,0-1.5.73v4.25c0,.06,0,.08-.07.08h-.85s-.07,0-.07-.08Z"/><path d="M365.65,493.14a3,3,0,0,1,3.26-3.08,4.13,4.13,0,0,1,.76.07v-2.65c0-.06,0-.07.07-.07h.86c.06,0,.07,0,.07.06V495a4.82,4.82,0,0,0,0,.58s0,.06-.06.08a4.63,4.63,0,0,1-2,.44A2.77,2.77,0,0,1,365.65,493.14Zm4-2.1a2.27,2.27,0,0,0-3,2.05,1.93,1.93,0,0,0,2,2.16,2.58,2.58,0,0,0,1-.16Z"/><path class="cls-14" d="M374.32,316c8.91,26.89,19.57,67.68,13.59,93.22-2.24,9.58-11.52,28.2-20.48,44.94"/><polygon class="cls-15" points="362.84 462.61 370.59 455.9 364.27 452.45 362.84 462.61"/><polygon class="cls-16" points="362.84 462.61 370.59 455.9 364.27 452.45 362.84 462.61"/><path d="M375,404.1s-.07,0-.07-.08v-.71a.06.06,0,0,1,.07-.07h.78v-.43a3.29,3.29,0,0,1,.28-1.51,1.66,1.66,0,0,1,1.57-.95,1.32,1.32,0,0,1,.55.08c.06,0,.06,0,.06.1v.71s0,.07-.07.06a1.32,1.32,0,0,0-.42-.06c-.58,0-1,.31-1,1.46v.54h1.15s.07,0,.07.06V404c0,.06,0,.07-.07.08h-1.15V409s0,.08-.07.08h-.85s-.07,0-.07-.08V404.1Z"/><path d="M379.43,406.27a1.87,1.87,0,0,0,2,2,3.38,3.38,0,0,0,1.5-.32s.06,0,.06,0v.68a.12.12,0,0,1-.06.12,3.68,3.68,0,0,1-1.69.35,2.7,2.7,0,0,1-2.82-3c0-1.68,1-3.08,2.65-3.08a2.29,2.29,0,0,1,2.34,2.41,3.16,3.16,0,0,1,0,.62.08.08,0,0,1-.08.07,9.85,9.85,0,0,1-1.24,0Zm2.24-.74a4.63,4.63,0,0,0,.77,0,.5.5,0,0,0,0-.13,1.4,1.4,0,0,0-1.42-1.43,1.63,1.63,0,0,0-1.59,1.58Z"/><path d="M387.27,408.9a.11.11,0,0,1-.07.12,2.23,2.23,0,0,1-.9.17c-.87,0-1.4-.42-1.4-1.57V404.1h-.82c-.07,0-.08,0-.08-.1v-.68c0-.06,0-.08.08-.08h.82c0-.44.06-1.27.11-1.54a.1.1,0,0,1,.08-.08l.82-.13s.07,0,.07,0c0,.42-.07,1.12-.07,1.7h1.27s.07,0,.07.08V404a.06.06,0,0,1-.07.07h-1.27v3.37c0,.55.2.86.73.86a1.66,1.66,0,0,0,.56-.1s.07,0,.07,0Z"/><path d="M392.18,408.91s0,.07,0,.08a3.63,3.63,0,0,1-1.31.19,2.82,2.82,0,0,1-3-3,3.27,3.27,0,0,1,4.27-2.9s0,0,0,.11v.75c0,.06,0,.06-.08,0A2.78,2.78,0,0,0,391,404a2.14,2.14,0,0,0,0,4.28,3,3,0,0,0,1.12-.17c.06,0,.07,0,.07,0Z"/><path d="M394.39,409c0,.06,0,.07-.07.07h-.84c-.06,0-.08,0-.08-.08v-8.44s0-.07.07-.07h.86s.06,0,.06.06v3.29a2.5,2.5,0,0,1,1.78-.7c.85,0,2,.42,2,2.32V409c0,.06,0,.08-.08.08h-.84c-.06,0-.08,0-.08-.1v-3.43c0-.92-.4-1.54-1.24-1.54a2,2,0,0,0-1.5.66Z"/><path class="cls-5" d="M359,316l-22.22,44.94"/><polygon class="cls-6" points="332.54 369.55 340.02 362.54 333.56 359.35 332.54 369.55"/><polygon class="cls-7" points="332.54 369.55 340.02 362.54 333.56 359.35 332.54 369.55"/><path d="M340,345.52a3.2,3.2,0,0,1-3.43,3.24,3.89,3.89,0,0,1-.61,0v2.4s0,.07-.06.08l-.88.1s-.06,0-.06-.07v-7.47c0-.11,0-.37,0-.53a0,0,0,0,1,0,0,6.07,6.07,0,0,1,2.23-.48A2.66,2.66,0,0,1,340,345.52Zm-4-1.76v4.07a2.56,2.56,0,0,0,.68.07,2.21,2.21,0,0,0,2.34-2.32,1.81,1.81,0,0,0-1.91-2A3.24,3.24,0,0,0,335.94,343.76Z"/><path d="M345.34,347.62a4.46,4.46,0,0,0,0,.58s0,0,0,0a5,5,0,0,1-2.24.52c-1.27,0-2.23-.62-2.23-1.88s1.19-1.83,2.67-1.83c.44,0,.7,0,.83,0v-.29a1.18,1.18,0,0,0-1.36-1.2,3.2,3.2,0,0,0-1.52.36.06.06,0,0,1-.08-.06v-.73a.11.11,0,0,1,.06-.1,4,4,0,0,1,1.7-.36,2,2,0,0,1,2.17,2.25Zm-1-1.76a5.66,5.66,0,0,0-.79,0c-1.16,0-1.73.4-1.73,1.07s.37,1.07,1.43,1.07a2.81,2.81,0,0,0,1.09-.2Z"/><path d="M348.6,343.52c-.79,0-1.06.38-1.06.74s.22.61,1.12,1c1.21.47,1.7,1,1.7,1.81,0,1.1-.9,1.71-2.15,1.71a3.41,3.41,0,0,1-1.61-.35.11.11,0,0,1-.06-.11v-.8c0-.06,0-.08.07-.06a2.9,2.9,0,0,0,1.62.48c.77,0,1.14-.34,1.14-.78s-.26-.71-1.09-1c-1.2-.46-1.7-.95-1.7-1.8s.73-1.62,2-1.62a3,3,0,0,1,1.4.26c.06,0,.06.07.06.12v.73c0,.06,0,.1-.1.06A2.9,2.9,0,0,0,348.6,343.52Z"/><path d="M353.32,343.52c-.79,0-1.05.38-1.05.74s.22.61,1.12,1c1.21.47,1.7,1,1.7,1.81,0,1.1-.9,1.71-2.15,1.71a3.41,3.41,0,0,1-1.61-.35.11.11,0,0,1-.06-.11v-.8c0-.06,0-.08.07-.06a2.89,2.89,0,0,0,1.62.48c.77,0,1.14-.34,1.14-.78s-.26-.71-1.09-1c-1.2-.46-1.7-.95-1.7-1.8s.73-1.62,2-1.62a3,3,0,0,1,1.4.26c.06,0,.06.07.06.12v.73c0,.06,0,.1-.1.06A2.91,2.91,0,0,0,353.32,343.52Z"/><path class="cls-5" d="M327.53,409l13.77,44.18"/><polygon class="cls-6" points="344.16 462.36 344.74 452.12 337.87 454.26 344.16 462.36"/><polygon class="cls-7" points="344.16 462.36 344.74 452.12 337.87 454.26 344.16 462.36"/><path d="M324,436.67s-.07,0-.07-.08v-.71a.06.06,0,0,1,.07-.07h.78v-.43a3.29,3.29,0,0,1,.28-1.51,1.66,1.66,0,0,1,1.57-.95,1.32,1.32,0,0,1,.55.08c.06,0,.06,0,.06.1v.71s0,.07-.07.06a1.32,1.32,0,0,0-.42-.06c-.58,0-1,.31-1,1.46v.54h1.15s.07,0,.07.06v.72c0,.06,0,.07-.07.08h-1.15v4.88s0,.08-.07.08h-.85s-.07,0-.07-.08v-4.88Z"/><path d="M328.43,438.84a1.87,1.87,0,0,0,2,2,3.38,3.38,0,0,0,1.5-.32s.06,0,.06,0v.68a.12.12,0,0,1-.06.12,3.68,3.68,0,0,1-1.69.35,2.7,2.7,0,0,1-2.82-3c0-1.68,1-3.08,2.65-3.08a2.29,2.29,0,0,1,2.34,2.41,3.19,3.19,0,0,1,0,.62.08.08,0,0,1-.08.07,9.84,9.84,0,0,1-1.24,0Zm2.24-.74a4.63,4.63,0,0,0,.77,0,.46.46,0,0,0,0-.13,1.4,1.4,0,0,0-1.42-1.43,1.63,1.63,0,0,0-1.59,1.58Z"/><path d="M336.28,441.47a.12.12,0,0,1-.07.12,2.22,2.22,0,0,1-.9.17c-.88,0-1.4-.42-1.4-1.57v-3.51h-.82c-.07,0-.08,0-.08-.1v-.68c0-.06,0-.08.08-.08h.82c0-.44.06-1.27.11-1.54a.1.1,0,0,1,.08-.08l.82-.13s.07,0,.07,0c0,.42-.07,1.12-.07,1.7h1.27s.07,0,.07.08v.71a.06.06,0,0,1-.07.07h-1.27V440c0,.55.2.86.73.86a1.65,1.65,0,0,0,.56-.1s.07,0,.07,0Z"/><path d="M341.18,441.48s0,.07,0,.08a3.64,3.64,0,0,1-1.31.19,2.82,2.82,0,0,1-3-3,3.27,3.27,0,0,1,4.27-2.9s0,0,0,.11v.75c0,.06,0,.06-.08,0a2.78,2.78,0,0,0-1.1-.18,2.14,2.14,0,0,0,0,4.28,3,3,0,0,0,1.12-.17c.06,0,.07,0,.07,0Z"/><path d="M343.39,441.56c0,.06,0,.07-.07.07h-.84c-.06,0-.08,0-.08-.08v-8.44s0-.07.07-.07h.86s.06,0,.06.06v3.29a2.5,2.5,0,0,1,1.77-.7c.85,0,2,.42,2,2.32v3.55c0,.06,0,.08-.08.08h-.84c-.06,0-.08,0-.08-.1v-3.43c0-.92-.4-1.54-1.24-1.54a2,2,0,0,0-1.5.66Z"/><path class="cls-3" d="M311.71,559h78.4c9.27,0,16.8,8.06,16.8,18s-7.53,18-16.8,18h-78.4c-9.27,0-16.8-8.06-16.8-18S302.44,559,311.71,559Z"/><path class="cls-4" d="M311.72,559h78.4c9.27,0,16.8,8.06,16.8,18s-7.53,18-16.8,18h-78.4c-9.27,0-16.8-8.06-16.8-18S302.44,559,311.72,559Z"/><path d="M319.13,575.68h1l1.34,3.31c.24.59.46,1.16.66,1.71h0c.2-.55.4-1.13.64-1.71l1.34-3.31h.95l-2.41,5.83h-1.1Z"/><path d="M326.67,578.6a3,3,0,0,1,3.25-3.07,3,3,0,0,1,2.12.85l-.49.64a2.36,2.36,0,0,0-1.6-.67,2.15,2.15,0,0,0-2.27,2.25,2.12,2.12,0,0,0,2.24,2.23,2.77,2.77,0,0,0,1.8-.73l.44.64a3.47,3.47,0,0,1-2.31.91A2.94,2.94,0,0,1,326.67,578.6Z"/><path d="M335.88,579.55v-5.78H333.8V573h3.06v6.66a1.06,1.06,0,0,0,1.15,1.21,2.64,2.64,0,0,0,1.09-.26l.25.73a3.53,3.53,0,0,1-1.56.35C336.56,581.65,335.88,580.93,335.88,579.55Z"/><path d="M340.83,582.33h5.76v.85h-5.76Z"/><path d="M350.22,576.48h-1.67v-.74l1.67-.06v-.49a2.13,2.13,0,0,1,2.35-2.36,4.33,4.33,0,0,1,1.68.34l-.23.74a3,3,0,0,0-1.36-.28,1.33,1.33,0,0,0-1.47,1.52v.53h2.45v.8h-2.45v5h-1Z"/><path d="M355.33,578.58a2.93,2.93,0,0,1,3-3,2.51,2.51,0,0,1,2.66,2.73,4,4,0,0,1,0,.6h-4.59a2.09,2.09,0,0,0,2.27,2,3.17,3.17,0,0,0,1.78-.55l.36.65a4,4,0,0,1-2.25.7A3,3,0,0,1,355.33,578.58Zm1-.48h3.72a1.67,1.67,0,0,0-1.74-1.79A2,2,0,0,0,356.35,578.1Z"/><path d="M364.18,579.24v-2.76h-1.64v-.74l1.68-.06.13-1.87h.82v1.87H368v.8h-2.87v2.77c0,1,.35,1.6,1.48,1.6a3.84,3.84,0,0,0,1.4-.26l.22.72a5.08,5.08,0,0,1-1.82.35C364.74,581.65,364.18,580.68,364.18,579.24Z"/><path d="M369.87,578.6a3,3,0,0,1,3.25-3.07,3,3,0,0,1,2.12.85l-.49.64a2.36,2.36,0,0,0-1.59-.67,2.15,2.15,0,0,0-2.27,2.25,2.12,2.12,0,0,0,2.24,2.23,2.77,2.77,0,0,0,1.8-.73l.44.64a3.47,3.47,0,0,1-2.31.91A2.94,2.94,0,0,1,369.87,578.6Z"/><path d="M377.23,573h1v2.33l-.06,1.38h0a3,3,0,0,1,2.18-1.14c1.38,0,2,.82,2,2.35v3.62h-1V578c0-1.1-.38-1.63-1.34-1.63-.7,0-1.16.35-1.85,1.06v4.07h-1Z"/><path class="cls-17" d="M350.92,502v43.6"/><polygon points="350.92 555.21 354.51 545.61 347.31 545.61 350.92 555.21"/><polygon class="cls-18" points="350.92 555.21 354.51 545.61 347.31 545.61 350.92 555.21"/><rect class="cls-3" x="265.92" y="652.01" width="112" height="36"/><rect class="cls-4" x="265.91" y="652.01" width="112" height="36"/><path d="M313.3,674.28c0,.06,0,.11-.06.12a4.33,4.33,0,0,1-1.62.23,3.81,3.81,0,0,1-4.05-4.1,3.92,3.92,0,0,1,4.21-4.07,3.69,3.69,0,0,1,1.54.22.1.1,0,0,1,.06.1v.8c0,.07,0,.07-.08.06a3.44,3.44,0,0,0-1.54-.28,3.18,3.18,0,0,0,0,6.36,4,4,0,0,0,1.5-.22s.07,0,.07,0Z"/><path d="M318.61,673.49a4.46,4.46,0,0,0,0,.58s0,0,0,0a5,5,0,0,1-2.24.52c-1.27,0-2.23-.62-2.23-1.88s1.19-1.83,2.67-1.83c.44,0,.7,0,.83,0v-.29a1.18,1.18,0,0,0-1.36-1.2,3.2,3.2,0,0,0-1.52.36.06.06,0,0,1-.08-.06V669a.11.11,0,0,1,.06-.1,4,4,0,0,1,1.7-.36,2,2,0,0,1,2.17,2.25Zm-1-1.76a5.66,5.66,0,0,0-.79,0c-1.16,0-1.73.4-1.73,1.07s.37,1.07,1.43,1.07a2.81,2.81,0,0,0,1.09-.2Z"/><path d="M324.15,674.35s0,.07,0,.08a3.63,3.63,0,0,1-1.31.19,2.82,2.82,0,0,1-3-3,3.27,3.27,0,0,1,4.27-2.9s0,0,0,.11v.75c0,.06,0,.06-.08,0a2.78,2.78,0,0,0-1.1-.18,2.14,2.14,0,0,0,0,4.28,3,3,0,0,0,1.12-.17c.06,0,.07,0,.07,0Z"/><path d="M326.36,674.43c0,.06,0,.07-.07.07h-.84c-.06,0-.08,0-.08-.08V666s0-.07.07-.07h.86s.06,0,.06.06v3.29a2.5,2.5,0,0,1,1.77-.7c.85,0,2,.42,2,2.32v3.55c0,.06,0,.08-.08.08h-.84c-.06,0-.08,0-.08-.1V671c0-.92-.4-1.54-1.24-1.54a2,2,0,0,0-1.5.66Z"/><path d="M332.38,671.71a1.87,1.87,0,0,0,2,2,3.38,3.38,0,0,0,1.5-.32s.06,0,.06,0v.68a.12.12,0,0,1-.06.12,3.68,3.68,0,0,1-1.69.35,2.7,2.7,0,0,1-2.82-3c0-1.68,1-3.08,2.65-3.08a2.29,2.29,0,0,1,2.34,2.41,3.19,3.19,0,0,1,0,.62.08.08,0,0,1-.08.07,9.84,9.84,0,0,1-1.24,0Zm2.24-.74a4.63,4.63,0,0,0,.77,0,.46.46,0,0,0,0-.13,1.4,1.4,0,0,0-1.42-1.43A1.63,1.63,0,0,0,332.4,671Z"/><path class="cls-8" d="M345.3,595l-13.77,44.18"/><polygon class="cls-9" points="328.67 648.36 334.96 640.26 328.09 638.12 328.67 648.36"/><polygon class="cls-10" points="328.67 648.36 334.96 640.26 328.09 638.12 328.67 648.36"/><path d="M320.45,624.77a3,3,0,0,1,3.26-3.08,4.11,4.11,0,0,1,.75.07v-2.65c0-.06,0-.07.07-.07h.86c.06,0,.07,0,.07.06v7.56a5,5,0,0,0,0,.58s0,.06-.06.08a4.62,4.62,0,0,1-2,.44A2.77,2.77,0,0,1,320.45,624.77Zm4-2.1a2.27,2.27,0,0,0-3,2.05,1.93,1.93,0,0,0,2,2.16,2.57,2.57,0,0,0,1-.16Z"/><path d="M327.75,624.84a1.87,1.87,0,0,0,2,2,3.38,3.38,0,0,0,1.5-.32s.06,0,.06,0v.68a.12.12,0,0,1-.06.12,3.68,3.68,0,0,1-1.69.35,2.7,2.7,0,0,1-2.82-3c0-1.68,1-3.08,2.65-3.08a2.29,2.29,0,0,1,2.34,2.41,3.19,3.19,0,0,1,0,.62.08.08,0,0,1-.08.07,9.84,9.84,0,0,1-1.24,0Zm2.24-.74a4.63,4.63,0,0,0,.77,0,.46.46,0,0,0,0-.13,1.4,1.4,0,0,0-1.42-1.43,1.63,1.63,0,0,0-1.59,1.58Z"/><path d="M332.95,619.11c0-.06,0-.07.08-.07h.84c.06,0,.07,0,.07.07v7.23c0,.47.19.58.48.58a1,1,0,0,0,.24,0s0,0,0,.07v.62c0,.06,0,.07-.06.1a1.47,1.47,0,0,1-.55.08c-.59,0-1.15-.2-1.15-1.33Z"/><path d="M335.74,620a.59.59,0,0,1,.61-.61.57.57,0,0,1,.6.61.58.58,0,0,1-.61.61A.57.57,0,0,1,335.74,620Zm.1,1.85c0-.06,0-.08.08-.08h.85s.07,0,.07.07v5.67c0,.06,0,.08-.08.08h-.83c-.06,0-.1,0-.1-.1Z"/><path d="M340,627.63a.1.1,0,0,1-.11-.06c-.25-.73-1.73-4.88-2-5.69,0,0,0-.08,0-.08h.92c.06,0,.07,0,.1.07,1,3,1.44,4.34,1.57,4.83h0c.14-.49.59-1.77,1.64-4.84a.09.09,0,0,1,.1-.06h.83s.07,0,0,.08c-.35.94-1.81,5-2.08,5.67a.1.1,0,0,1-.11.07Z"/><path d="M344.78,624.84a1.87,1.87,0,0,0,2,2,3.38,3.38,0,0,0,1.5-.32s.06,0,.06,0v.68a.12.12,0,0,1-.06.12,3.68,3.68,0,0,1-1.69.35,2.7,2.7,0,0,1-2.82-3c0-1.68,1-3.08,2.65-3.08a2.29,2.29,0,0,1,2.34,2.41,3.19,3.19,0,0,1,0,.62.08.08,0,0,1-.08.07,9.84,9.84,0,0,1-1.24,0Zm2.24-.74a4.63,4.63,0,0,0,.77,0,.46.46,0,0,0,0-.13,1.4,1.4,0,0,0-1.42-1.43,1.63,1.63,0,0,0-1.59,1.58Z"/><path d="M350.74,621.8c.07,0,.08,0,.11.08a4.61,4.61,0,0,1,.1.83,2.5,2.5,0,0,1,1.93-1c.06,0,.08,0,.08.08v.86c0,.06,0,.07-.08.07a2.26,2.26,0,0,0-1.88.88v4c0,.06,0,.07-.07.07h-.85c-.06,0-.08,0-.08-.08v-4.14c0-.5,0-1.2-.06-1.54,0,0,0-.07.06-.07Z"/><rect class="cls-3" x="396.92" y="652.01" width="112" height="36"/><rect class="cls-4" x="396.92" y="652.01" width="112" height="36"/><path d="M425.12,666.69c0-.06,0-.08.07-.1.3,0,.91,0,2.1,0,2.71,0,4.17,1.57,4.17,3.85,0,3-2.28,4.13-4.29,4.13l-2,0s-.06,0-.06-.1Zm1,6.93,1,0a3,3,0,0,0,3.31-3.23,2.85,2.85,0,0,0-3.18-3l-1.15,0Z"/><path d="M438,671.58a2.76,2.76,0,1,1-5.49,0,2.8,2.8,0,0,1,2.76-3A2.75,2.75,0,0,1,438,671.58Zm-4.49,0c0,1.22.64,2.2,1.77,2.2.85,0,1.69-.67,1.69-2.16,0-1.12-.52-2.18-1.76-2.18C434.18,669.42,433.48,670.29,433.48,671.57Z"/><path d="M439.22,670c0-.41,0-1.08,0-1.28,0,0,0-.07.07-.07H440a.11.11,0,0,1,.11.07,3.89,3.89,0,0,1,.07.6,2.52,2.52,0,0,1,1.83-.79c.85,0,2,.42,2,2.32v3.55c0,.06,0,.08-.08.08H443c-.06,0-.08,0-.08-.1V671c0-.91-.4-1.52-1.24-1.52a1.92,1.92,0,0,0-1.5.73v4.25c0,.06,0,.08-.07.08h-.85s-.07,0-.07-.08Z"/><path d="M445.31,666s0-.07.07-.07h.83s.06,0,0,.06l-.16,2.89c0,.06,0,.06-.07.06h-.66s-.07,0-.07-.06Z"/><path d="M450.53,674.34a.11.11,0,0,1-.07.12,2.23,2.23,0,0,1-.9.17c-.87,0-1.4-.42-1.4-1.57v-3.51h-.82c-.07,0-.08,0-.08-.1v-.68c0-.06,0-.08.08-.08h.82c0-.44.06-1.27.11-1.54a.1.1,0,0,1,.08-.08l.82-.13s.07,0,.07,0c0,.42-.07,1.12-.07,1.7h1.27s.07,0,.07.08v.71a.06.06,0,0,1-.07.07h-1.27v3.37c0,.55.2.86.73.86a1.66,1.66,0,0,0,.56-.1s.07,0,.07,0Z"/><path d="M458.21,674.35s0,.07,0,.08a3.64,3.64,0,0,1-1.31.19,2.82,2.82,0,0,1-3-3,3.27,3.27,0,0,1,4.27-2.9s0,0,0,.11v.75c0,.06,0,.06-.08,0a2.78,2.78,0,0,0-1.1-.18,2.14,2.14,0,0,0,0,4.28,3,3,0,0,0,1.12-.17c.06,0,.07,0,.07,0Z"/><path d="M463.54,673.49a4.46,4.46,0,0,0,0,.58s0,0,0,0a5,5,0,0,1-2.24.52c-1.27,0-2.23-.62-2.23-1.88s1.19-1.83,2.67-1.83c.44,0,.7,0,.83,0v-.29a1.18,1.18,0,0,0-1.36-1.2,3.2,3.2,0,0,0-1.52.36.06.06,0,0,1-.08-.06V669a.11.11,0,0,1,.06-.1,4,4,0,0,1,1.7-.36,2,2,0,0,1,2.17,2.25Zm-1-1.76a5.66,5.66,0,0,0-.79,0c-1.16,0-1.73.4-1.73,1.07s.37,1.07,1.43,1.07a2.81,2.81,0,0,0,1.09-.2Z"/><path d="M469.08,674.35s0,.07,0,.08a3.64,3.64,0,0,1-1.31.19,2.82,2.82,0,0,1-3-3,3.27,3.27,0,0,1,4.27-2.9s0,0,0,.11v.75c0,.06,0,.06-.08,0a2.78,2.78,0,0,0-1.1-.18,2.14,2.14,0,0,0,0,4.28,3,3,0,0,0,1.12-.17c.06,0,.07,0,.07,0Z"/><path d="M471.28,674.43c0,.06,0,.07-.07.07h-.84c-.06,0-.08,0-.08-.08V666s0-.07.07-.07h.86s.06,0,.06.06v3.29a2.5,2.5,0,0,1,1.78-.7c.85,0,2,.42,2,2.32v3.55c0,.06,0,.08-.08.08h-.84c-.06,0-.08,0-.08-.1V671c0-.92-.4-1.54-1.24-1.54a2,2,0,0,0-1.5.66Z"/><path d="M477.3,671.71a1.87,1.87,0,0,0,2,2,3.38,3.38,0,0,0,1.5-.32s.06,0,.06,0v.68a.12.12,0,0,1-.06.12,3.68,3.68,0,0,1-1.69.35,2.7,2.7,0,0,1-2.82-3c0-1.68,1-3.08,2.65-3.08a2.29,2.29,0,0,1,2.34,2.41,3.19,3.19,0,0,1,0,.62.08.08,0,0,1-.08.07,9.84,9.84,0,0,1-1.24,0Zm2.24-.74a4.63,4.63,0,0,0,.77,0,.46.46,0,0,0,0-.13,1.4,1.4,0,0,0-1.42-1.43,1.63,1.63,0,0,0-1.59,1.58Z"/><path class="cls-5" d="M370.66,595l52.42,47.81"/><polygon class="cls-6" points="430.17 649.28 425.51 640.15 420.65 645.48 430.17 649.28"/><polygon class="cls-7" points="430.17 649.28 425.51 640.15 420.65 645.48 430.17 649.28"/><path d="M373.35,627.57c0,.06,0,.07-.07.07h-.84c-.06,0-.08,0-.08-.08v-8.44s0-.07.07-.07h.86s.06,0,.06.06v3.29a2.5,2.5,0,0,1,1.77-.7c.85,0,2,.42,2,2.32v3.55c0,.06,0,.08-.08.08h-.84c-.06,0-.08,0-.08-.1v-3.43c0-.92-.4-1.54-1.24-1.54a2,2,0,0,0-1.5.66Z"/><path d="M378.69,620.05a.59.59,0,0,1,.61-.61.57.57,0,0,1,.6.61.58.58,0,0,1-.61.61A.57.57,0,0,1,378.69,620.05Zm.1,1.85c0-.06,0-.08.08-.08h.85s.07,0,.07.07v5.67c0,.06,0,.08-.08.08h-.83c-.06,0-.1,0-.1-.1Z"/><path d="M384.09,627.48a.11.11,0,0,1-.07.12,2.23,2.23,0,0,1-.9.17c-.87,0-1.4-.42-1.4-1.57v-3.51h-.82c-.07,0-.08,0-.08-.1v-.68c0-.06,0-.08.08-.08h.82c0-.44.06-1.27.11-1.54a.1.1,0,0,1,.08-.08l.82-.13s.07,0,.07,0c0,.42-.07,1.12-.07,1.7H384s.07,0,.07.08v.71a.06.06,0,0,1-.07.07h-1.27V626c0,.55.2.86.73.86a1.66,1.66,0,0,0,.56-.1s.07,0,.07,0Z"/><path d="M390.46,628.53v.59h-6.2v-.59Z"/><path d="M390.63,622.68s-.07,0-.07-.08v-.71a.06.06,0,0,1,.07-.07h.78v-.43a3.29,3.29,0,0,1,.28-1.51,1.66,1.66,0,0,1,1.57-.95,1.32,1.32,0,0,1,.55.08c.06,0,.06,0,.06.1v.71s0,.07-.07.06a1.32,1.32,0,0,0-.42-.06c-.58,0-1,.31-1,1.46v.54h1.15s.07,0,.07.06v.72c0,.06,0,.07-.07.08H392.4v4.88s0,.08-.07.08h-.85s-.07,0-.07-.08v-4.88Z"/><path d="M399.58,624.72a2.76,2.76,0,1,1-5.49,0,2.8,2.8,0,0,1,2.76-3A2.75,2.75,0,0,1,399.58,624.72Zm-4.49,0c0,1.22.64,2.2,1.78,2.2.85,0,1.69-.67,1.69-2.16,0-1.12-.52-2.18-1.76-2.18C395.79,622.56,395.09,623.42,395.09,624.71Z"/><path d="M401.6,621.82c.07,0,.08,0,.11.08a4.61,4.61,0,0,1,.1.83,2.5,2.5,0,0,1,1.93-1c.06,0,.08,0,.08.08v.86c0,.06,0,.07-.08.07a2.26,2.26,0,0,0-1.88.88v4c0,.06,0,.07-.07.07h-.85c-.06,0-.08,0-.08-.08v-4.14c0-.5,0-1.2-.06-1.54,0,0,0-.07.06-.07Z"/><path d="M410,628.53v.59h-6.2v-.59Z"/><path d="M415.89,624.53a3.21,3.21,0,0,1-3.43,3.24,3.89,3.89,0,0,1-.61,0v2.4s0,.07-.06.08l-.87.1s-.06,0-.06-.07v-7.47c0-.11,0-.37,0-.53a0,0,0,0,1,0,0,6.08,6.08,0,0,1,2.23-.48A2.66,2.66,0,0,1,415.89,624.53Zm-4-1.76v4.07a2.56,2.56,0,0,0,.68.07,2.21,2.21,0,0,0,2.34-2.32,1.81,1.81,0,0,0-1.91-2A3.24,3.24,0,0,0,411.84,622.76Z"/><path d="M421.26,626.63a4.64,4.64,0,0,0,0,.58s0,0,0,0a5,5,0,0,1-2.24.52c-1.27,0-2.23-.62-2.23-1.88S418,624,419.46,624c.44,0,.7,0,.83,0v-.29a1.18,1.18,0,0,0-1.36-1.2,3.2,3.2,0,0,0-1.52.36.06.06,0,0,1-.08-.06v-.73a.11.11,0,0,1,.06-.1,4,4,0,0,1,1.7-.36,2,2,0,0,1,2.17,2.25Zm-1-1.76a5.65,5.65,0,0,0-.79,0c-1.16,0-1.73.4-1.73,1.07s.37,1.07,1.43,1.07a2.81,2.81,0,0,0,1.09-.2Z"/><path d="M424.52,622.52c-.79,0-1.05.38-1.05.74s.22.61,1.12,1c1.21.47,1.7,1,1.7,1.81,0,1.1-.9,1.71-2.15,1.71a3.41,3.41,0,0,1-1.61-.35.11.11,0,0,1-.06-.11v-.8c0-.06,0-.08.07-.06a2.89,2.89,0,0,0,1.62.48c.77,0,1.14-.34,1.14-.78s-.26-.71-1.09-1c-1.2-.46-1.7-.95-1.7-1.8s.73-1.62,2-1.62a3,3,0,0,1,1.4.26c.06,0,.06.07.06.12v.73c0,.06,0,.1-.1.06A2.91,2.91,0,0,0,424.52,622.52Z"/><path d="M429.24,622.52c-.79,0-1.06.38-1.06.74s.22.61,1.12,1c1.21.47,1.7,1,1.7,1.81,0,1.1-.9,1.71-2.15,1.71a3.41,3.41,0,0,1-1.61-.35.11.11,0,0,1-.06-.11v-.8c0-.06,0-.08.07-.06a2.9,2.9,0,0,0,1.62.48c.77,0,1.14-.34,1.14-.78s-.26-.71-1.09-1c-1.2-.46-1.7-.95-1.7-1.8s.73-1.62,2-1.62a3,3,0,0,1,1.4.26c.06,0,.06.07.06.12v.73c0,.06,0,.1-.1.06A2.9,2.9,0,0,0,429.24,622.52Z"/><path class="cls-8" d="M321.91,688v27.6"/><polygon class="cls-9" points="321.92 725.21 325.51 715.61 318.31 715.61 321.92 725.21"/><polygon class="cls-10" points="321.92 725.21 325.51 715.61 318.31 715.61 321.92 725.21"/><path class="cls-5" d="M422.29,688l-57.78,34"/><polygon class="cls-6" points="356.23 726.84 366.33 725.07 362.69 718.87 356.23 726.84"/><polygon class="cls-7" points="356.23 726.84 366.33 725.07 362.69 718.87 356.23 726.84"/></g></svg>