<svg id="Layer_1" data-name="Layer 1" xmlns="http://www.w3.org/2000/svg" xmlns:xlink="http://www.w3.org/1999/xlink" viewBox="0 0 1039 1034"><defs><style>.cls-1,.cls-4,.cls-5,.cls-6{fill:none;}.cls-2{clip-path:url(#clip-path);}.cls-3{fill:#fff;}.cls-4,.cls-5,.cls-6{stroke:#000;}.cls-4,.cls-6{stroke-linecap:round;stroke-linejoin:round;}.cls-4,.cls-5{stroke-width:2px;}.cls-5{stroke-miterlimit:10;}.cls-6{stroke-width:3px;}.cls-7{fill:#6b7ca5;}.cls-8{fill:#a5a5a5;}.cls-9{fill:#68bc36;}.cls-10{fill:#dadada;}</style><clipPath id="clip-path"><rect class="cls-1" width="1039" height="1034"/></clipPath></defs><title>Helix Flow</title><g class="cls-2"><rect class="cls-3" width="1039" height="1034"/><rect class="cls-3" width="1039" height="1034"/><line class="cls-4" x1="453.5" y1="420.19" x2="453.5" y2="902.79"/><polygon points="453.5 912.39 457.1 902.79 449.9 902.79 453.5 912.39"/><polygon class="cls-5" points="453.5 912.39 457.1 902.79 449.9 902.79 453.5 912.39"/><line class="cls-4" x1="321.5" y1="876.19" x2="321.5" y2="902.79"/><polygon points="321.5 912.39 325.1 902.79 317.9 902.79 321.5 912.39"/><polygon class="cls-5" points="321.5 912.39 325.1 902.79 317.9 902.79 321.5 912.39"/><line class="cls-4" x1="385.11" y1="192.19" x2="403.58" y2="220.85"/><polygon points="408.78 228.92 406.61 218.9 400.56 222.8 408.78 228.92"/><polygon class="cls-5" points="408.78 228.92 406.61 218.9 400.56 222.8 408.78 228.92"/><line class="cls-4" x1="367.34" y1="192.19" x2="332" y2="295.49"/><polygon points="328.9 304.57 335.41 296.65 328.6 294.32 328.9 304.57"/><polygon class="cls-5" points="328.9 304.57 335.41 296.65 328.6 294.32 328.9 304.57"/><line class="cls-4" x1="364.91" y1="192.19" x2="242.88" y2="448.05"/><polygon points="238.75 456.71 246.13 449.6 239.63 446.5 238.75 456.71"/><polygon class="cls-5" points="238.75 456.71 246.13 449.6 239.63 446.5 238.75 456.71"/><line class="cls-4" x1="360.95" y1="192.19" x2="128.78" y2="525.11"/><polygon points="123.29 532.99 131.73 527.17 125.83 523.05 123.29 532.99"/><polygon class="cls-5" points="123.29 532.99 131.73 527.17 125.83 523.05 123.29 532.99"/><line class="cls-4" x1="416.59" y1="191.71" x2="504.7" y2="227.51"/><polygon points="513.59 231.13 506.05 224.18 503.34 230.85 513.59 231.13"/><polygon class="cls-5" points="513.59 231.13 506.05 224.18 503.34 230.85 513.59 231.13"/><line class="cls-4" x1="585.5" y1="420.19" x2="585.5" y2="446.79"/><polygon points="585.5 456.39 589.1 446.79 581.9 446.79 585.5 456.39"/><polygon class="cls-5" points="585.5 456.39 589.1 446.79 581.9 446.79 585.5 456.39"/><path class="cls-4" d="M630.49,420.19c25.34,18.13,59.07,54.38,95,126.81,58.29,117.46,101,287,117.07,356.12"/><polygon points="844.71 912.48 846.08 902.31 839.06 903.92 844.71 912.48"/><polygon class="cls-5" points="844.71 912.48 846.08 902.31 839.06 903.92 844.71 912.48"/><path class="cls-4" d="M625.34,648.19c21.31,14.09,46.85,38.65,65.16,80.81,25.47,58.66,28.77,132.6,28.28,173.79"/><polygon points="718.57 912.39 722.38 902.88 715.19 902.71 718.57 912.39"/><polygon class="cls-5" points="718.57 912.39 722.38 902.88 715.19 902.71 718.57 912.39"/><line class="cls-4" x1="585.5" y1="648.19" x2="585.5" y2="674.79"/><polygon points="585.5 684.39 589.1 674.79 581.9 674.79 585.5 684.39"/><polygon class="cls-5" points="585.5 684.39 589.1 674.79 581.9 674.79 585.5 684.39"/><line class="cls-4" x1="585.5" y1="876.19" x2="585.5" y2="902.79"/><polygon points="585.5 912.39 589.1 902.79 581.9 902.79 585.5 912.39"/><polygon class="cls-5" points="585.5 912.39 589.1 902.79 581.9 902.79 585.5 912.39"/><line class="cls-4" x1="189.5" y1="876.19" x2="189.5" y2="902.79"/><polygon points="189.5 912.39 193.1 902.79 185.9 902.79 189.5 912.39"/><polygon class="cls-5" points="189.5 912.39 193.1 902.79 185.9 902.79 189.5 912.39"/><line class="cls-4" x1="226.65" y1="496.19" x2="192.72" y2="826.86"/><polygon points="191.74 836.41 196.3 827.23 189.13 826.49 191.74 836.41"/><polygon class="cls-5" points="191.74 836.41 196.3 827.23 189.13 826.49 191.74 836.41"/><line class="cls-4" x1="453.5" y1="344.19" x2="453.5" y2="370.79"/><polygon points="453.5 380.39 457.1 370.79 449.9 370.79 453.5 380.39"/><polygon class="cls-5" points="453.5 380.39 457.1 370.79 449.9 370.79 453.5 380.39"/><line class="cls-4" x1="429.84" y1="268.19" x2="441.08" y2="295.75"/><polygon points="444.71 304.64 444.42 294.39 437.75 297.11 444.71 304.64"/><polygon class="cls-5" points="444.71 304.64 444.42 294.39 437.75 297.11 444.71 304.64"/><line class="cls-4" x1="321.5" y1="344.19" x2="321.5" y2="826.79"/><polygon points="321.5 836.39 325.1 826.79 317.9 826.79 321.5 836.39"/><polygon class="cls-5" points="321.5 836.39 325.1 826.79 317.9 826.79 321.5 836.39"/><line class="cls-4" x1="563.46" y1="268.19" x2="580.36" y2="370.96"/><polygon points="581.92 380.44 583.92 370.38 576.81 371.55 581.92 380.44"/><polygon class="cls-5" points="581.92 380.44 583.92 370.38 576.81 371.55 581.92 380.44"/><path class="cls-3" d="M334.3,156.19h78.4c9.27,0,16.8,8.06,16.8,18s-7.53,18-16.8,18H334.3c-9.27,0-16.8-8.06-16.8-18S325,156.19,334.3,156.19Z"/><path class="cls-6" d="M334.3,156.19h78.4c9.27,0,16.8,8.06,16.8,18s-7.53,18-16.8,18H334.3c-9.27,0-16.8-8.06-16.8-18S325,156.19,334.3,156.19Z"/><path d="M335,162.65h1V165l-.06,1.38h0a3,3,0,0,1,2.18-1.14c1.38,0,2,.82,2,2.35v3.62h-1V167.7c0-1.1-.38-1.63-1.34-1.63-.7,0-1.16.35-1.85,1.06v4.07h-1Z"/><path d="M344.06,169.24v-5.78H342v-.8H345v6.66a1.06,1.06,0,0,0,1.15,1.21,2.63,2.63,0,0,0,1.09-.26l.25.73a3.53,3.53,0,0,1-1.56.35C344.75,171.34,344.06,170.62,344.06,169.24Z"/><path d="M351.29,168.17l-2.05-2.81h1.09l.92,1.28c.2.31.44.66.68,1h0c.22-.32.46-.68.66-1l.88-1.26h1l-2.08,2.89,2.23,2.94h-1.08l-1-1.34c-.24-.33-.52-.72-.77-1.05h0c-.24.35-.48.68-.72,1.05l-1,1.34h-1.06Z"/><path d="M356.22,172H362v.85h-5.76Z"/><path d="M364.45,165.36h.82l.08,1.38h0a3.1,3.1,0,0,1,2.6-1.52,2.44,2.44,0,0,1,1.15.24l-.23.85a2.69,2.69,0,0,0-1.08-.2,2.75,2.75,0,0,0-2.4,1.67v3.42h-1Z"/><path d="M370.71,168.27a2.93,2.93,0,0,1,3-3,2.51,2.51,0,0,1,2.66,2.73,4,4,0,0,1,0,.6h-4.59a2.09,2.09,0,0,0,2.27,2,3.17,3.17,0,0,0,1.77-.55l.36.65a4,4,0,0,1-2.25.7A3,3,0,0,1,370.71,168.27Zm1-.48h3.72a1.67,1.67,0,0,0-1.74-1.79A2,2,0,0,0,371.73,167.79Z"/><path d="M382.2,171.53l0-1.08h0a2.72,2.72,0,0,1-1.87.89c-1.51,0-2.52-1.1-2.52-3a2.81,2.81,0,0,1,2.65-3.07,2.51,2.51,0,0,1,1.8.79h0l.08-.65h.79v8.29h-1Zm0-1.9v-2.9a2.21,2.21,0,0,0-1.54-.68,2,2,0,0,0-1.82,2.23c0,1.39.64,2.23,1.71,2.23A2.24,2.24,0,0,0,382.2,169.63Z"/><path d="M385.11,168.27a2.93,2.93,0,0,1,3-3,2.51,2.51,0,0,1,2.66,2.73,4.05,4.05,0,0,1,0,.6h-4.59a2.09,2.09,0,0,0,2.27,2,3.18,3.18,0,0,0,1.78-.55l.36.65a4,4,0,0,1-2.25.7A3,3,0,0,1,385.11,168.27Zm1-.48h3.72a1.67,1.67,0,0,0-1.74-1.79A2,2,0,0,0,386.13,167.79Z"/><path d="M392.35,170.42l.46-.65a4.14,4.14,0,0,0,2.53.79c1,0,1.48-.42,1.48-.91s-.24-.76-1.82-1.08-2.28-.83-2.28-1.7.83-1.66,2.42-1.66a4.38,4.38,0,0,1,2.35.74l-.48.64a3.44,3.44,0,0,0-2-.61c-1,0-1.34.4-1.34.84s.5.72,1.69,1c1.94.42,2.41.91,2.41,1.8s-.92,1.74-2.59,1.74A5.12,5.12,0,0,1,392.35,170.42Z"/><path d="M401.17,168.93v-2.76h-1.64v-.74l1.68-.06.13-1.87h.82v1.87H405v.8h-2.87v2.77c0,1,.35,1.6,1.48,1.6a3.84,3.84,0,0,0,1.4-.26l.22.72a5.07,5.07,0,0,1-1.82.35C401.72,171.34,401.17,170.36,401.17,168.93Z"/><path d="M406.62,172h5.76v.85h-5.76Z"/><path d="M361.57,183.93v-2.76h-1.64v-.74l1.68-.06.13-1.87h.82v1.87h2.87v.8h-2.87v2.77c0,1,.35,1.6,1.48,1.6a3.84,3.84,0,0,0,1.4-.26l.22.72a5.07,5.07,0,0,1-1.82.35C362.12,186.34,361.57,185.36,361.57,183.93Z"/><path d="M367.1,188.58l.2-.78a1.88,1.88,0,0,0,.53.08,1.7,1.7,0,0,0,1.6-1.25l.18-.43-2.72-5.84h1l1.43,3.23c.23.52.48,1.13.72,1.69h0l.62-1.69,1.27-3.23h.94l-2.57,6.31a2.62,2.62,0,0,1-2.47,2A2.44,2.44,0,0,1,367.1,188.58Z"/><path d="M374.62,180.36h.82l.08.74h0a3.07,3.07,0,0,1,2-.89c1.57,0,2.41,1.16,2.41,3,0,2-1.25,3.14-2.65,3.14a2.74,2.74,0,0,1-1.74-.75h0l0,1.1v2h-1Zm4.34,2.83c0-1.28-.48-2.15-1.64-2.15a2.55,2.55,0,0,0-1.72.88v2.9a2.52,2.52,0,0,0,1.56.68C378.2,185.51,379,184.63,379,183.19Z"/><path d="M381.52,183.27a2.93,2.93,0,0,1,3-3,2.51,2.51,0,0,1,2.66,2.73,4.05,4.05,0,0,1,0,.6h-4.59a2.09,2.09,0,0,0,2.27,2,3.18,3.18,0,0,0,1.78-.55l.36.65a4,4,0,0,1-2.25.7A3,3,0,0,1,381.52,183.27Zm1-.48h3.72a1.67,1.67,0,0,0-1.74-1.79A2,2,0,0,0,382.53,182.79Z"/><path class="cls-3" d="M521.3,232.19h78.4c9.27,0,16.8,8.06,16.8,18s-7.53,18-16.8,18H521.3c-9.27,0-16.8-8.06-16.8-18S512,232.19,521.3,232.19Z"/><path class="cls-6" d="M521.3,232.19h78.4c9.27,0,16.8,8.06,16.8,18s-7.53,18-16.8,18H521.3c-9.27,0-16.8-8.06-16.8-18S512,232.19,521.3,232.19Z"/><path d="M532.82,248.86h.82l.08.74h0a3.07,3.07,0,0,1,2-.89c1.57,0,2.41,1.16,2.41,3,0,2-1.25,3.14-2.65,3.14a2.74,2.74,0,0,1-1.74-.75h0l0,1.1v2h-1Zm4.34,2.83c0-1.28-.48-2.15-1.64-2.15a2.54,2.54,0,0,0-1.71.88v2.9a2.52,2.52,0,0,0,1.56.68C536.4,254,537.16,253.13,537.16,251.69Z"/><path d="M542.69,249.67H540v-.8h3.69v5.83h-1Zm-.41-2.79a.79.79,0,1,1,.79.77A.76.76,0,0,1,542.28,246.87Z"/><path d="M547.21,248.86H548l.08.74h0a3.07,3.07,0,0,1,2-.89c1.57,0,2.41,1.16,2.41,3,0,2-1.25,3.14-2.65,3.14a2.74,2.74,0,0,1-1.74-.75h0l0,1.1v2h-1Zm4.34,2.83c0-1.28-.48-2.15-1.64-2.15a2.54,2.54,0,0,0-1.71.88v2.9a2.51,2.51,0,0,0,1.56.68C550.8,254,551.56,253.13,551.56,251.69Z"/><path d="M554.12,251.77a2.93,2.93,0,0,1,3-3,2.51,2.51,0,0,1,2.66,2.73,4,4,0,0,1,0,.6h-4.59a2.09,2.09,0,0,0,2.27,2,3.17,3.17,0,0,0,1.78-.55l.36.65a4,4,0,0,1-2.25.7A3,3,0,0,1,554.12,251.77Zm1-.48h3.72a1.67,1.67,0,0,0-1.74-1.79A2,2,0,0,0,555.13,251.29Z"/><path d="M563.46,252.74V247h-2.08v-.8h3.06v6.66A1.06,1.06,0,0,0,565.6,254a2.63,2.63,0,0,0,1.09-.26l.25.73a3.53,3.53,0,0,1-1.56.35C564.15,254.84,563.46,254.12,563.46,252.74Z"/><path d="M571.49,249.67h-2.71v-.8h3.69v5.83h-1Zm-.41-2.79a.79.79,0,1,1,.79.77A.76.76,0,0,1,571.08,246.87Z"/><path d="M576,248.86h.82l.08,1h0a3,3,0,0,1,2.19-1.14c1.38,0,2,.82,2,2.35v3.62h-1V251.2c0-1.1-.38-1.63-1.34-1.63-.7,0-1.16.35-1.85,1.06v4.07h-1Z"/><path d="M582.92,251.77a2.93,2.93,0,0,1,3-3,2.51,2.51,0,0,1,2.66,2.73,4,4,0,0,1,0,.6h-4.59a2.09,2.09,0,0,0,2.27,2,3.17,3.17,0,0,0,1.77-.55l.36.65a4,4,0,0,1-2.25.7A3,3,0,0,1,582.92,251.77Zm1-.48h3.72a1.67,1.67,0,0,0-1.74-1.79A2,2,0,0,0,583.93,251.29Z"/><path class="cls-3" d="M69.3,536.19h78.4c9.27,0,16.8,8.06,16.8,18s-7.53,18-16.8,18H69.3c-9.27,0-16.8-8.06-16.8-18S60,536.19,69.3,536.19Z"/><path class="cls-6" d="M69.3,536.19h78.4c9.27,0,16.8,8.06,16.8,18s-7.53,18-16.8,18H69.3c-9.27,0-16.8-8.06-16.8-18S60,536.19,69.3,536.19Z"/><path d="M91.32,555.77a2.93,2.93,0,0,1,3-3A2.51,2.51,0,0,1,97,555.45a4,4,0,0,1,0,.6H92.31a2.09,2.09,0,0,0,2.27,2,3.17,3.17,0,0,0,1.77-.55l.36.65a4,4,0,0,1-2.25.7A3,3,0,0,1,91.32,555.77Zm1-.48h3.72a1.67,1.67,0,0,0-1.74-1.79A2,2,0,0,0,92.33,555.29Z"/><path d="M98.4,552.86h.79l.08.77h0a1.45,1.45,0,0,1,1.33-.91c.58,0,.94.34,1.1,1,.34-.62.7-1,1.37-1s1.3.64,1.3,1.8v4.17h-1v-4.1c0-.67-.19-1-.62-1s-.62.3-.94.9v4.22h-.91v-4.1c0-.67-.17-1-.6-1s-.67.3-1,.9v4.22h-1Z"/><path d="M106.93,558h0l-.08.65H106v-8.54h1v2.33l0,1.13h0a2.86,2.86,0,0,1,2-.89c1.57,0,2.42,1.16,2.42,3,0,2-1.25,3.15-2.64,3.15A2.94,2.94,0,0,1,106.93,558Zm3.43-2.35c0-1.28-.48-2.15-1.64-2.15a2.54,2.54,0,0,0-1.72.88v2.9a2.51,2.51,0,0,0,1.58.68C109.6,558,110.36,557.13,110.36,555.69Z"/><path d="M112.92,555.77a2.93,2.93,0,0,1,3-3,2.51,2.51,0,0,1,2.66,2.73,4,4,0,0,1,0,.6h-4.59a2.09,2.09,0,0,0,2.27,2,3.17,3.17,0,0,0,1.77-.55l.36.65a4,4,0,0,1-2.25.7A3,3,0,0,1,112.92,555.77Zm1-.48h3.72a1.67,1.67,0,0,0-1.74-1.79A2,2,0,0,0,113.93,555.29Z"/><path d="M120,555.79a2.81,2.81,0,0,1,2.65-3.07,2.41,2.41,0,0,1,1.74.76h0l0-1.08v-2.24h1v8.54h-.82l-.08-.77h0a2.79,2.79,0,0,1-1.9.91C121,558.84,120,557.73,120,555.79Zm4.38,1.34v-2.9a2.2,2.2,0,0,0-1.54-.68,2,2,0,0,0-1.82,2.23c0,1.39.64,2.23,1.71,2.23A2.24,2.24,0,0,0,124.4,557.13Z"/><path class="cls-3" d="M189.3,460.19h78.4c9.27,0,16.8,8.06,16.8,18s-7.53,18-16.8,18H189.3c-9.27,0-16.8-8.06-16.8-18S180,460.19,189.3,460.19Z"/><path class="cls-6" d="M189.3,460.19h78.4c9.27,0,16.8,8.06,16.8,18s-7.53,18-16.8,18H189.3c-9.27,0-16.8-8.06-16.8-18S180,460.19,189.3,460.19Z"/><path d="M193.35,481.92l.46-.65a4.14,4.14,0,0,0,2.53.79c1,0,1.48-.42,1.48-.91s-.24-.76-1.82-1.08-2.28-.83-2.28-1.7.83-1.66,2.42-1.66a4.38,4.38,0,0,1,2.35.74l-.48.64a3.44,3.44,0,0,0-2-.61c-1,0-1.34.4-1.34.84s.5.72,1.69,1c1.94.42,2.41.91,2.41,1.8s-.92,1.74-2.59,1.74A5.12,5.12,0,0,1,193.35,481.92Z"/><path d="M202.17,480.43v-2.76h-1.64v-.74l1.68-.06.13-1.87h.82v1.87H206v.8h-2.87v2.77c0,1,.35,1.6,1.48,1.6a3.84,3.84,0,0,0,1.4-.26l.22.72a5.07,5.07,0,0,1-1.82.35C202.72,482.84,202.17,481.86,202.17,480.43Z"/><path d="M207.87,481.18c0-1.31,1.21-1.94,4.22-2.18a1.38,1.38,0,0,0-1.55-1.46,4.07,4.07,0,0,0-2,.7l-.38-.67a5,5,0,0,1,2.59-.84,2.16,2.16,0,0,1,2.36,2.4v3.57h-.8l-.08-.79h0a4,4,0,0,1-2.3.94A1.76,1.76,0,0,1,207.87,481.18Zm4.22,0v-1.54c-2.49.2-3.26.7-3.26,1.46s.61.94,1.28.94A3.15,3.15,0,0,0,212.09,481.18Z"/><path d="M216.57,480.43v-2.76h-1.64v-.74l1.68-.06.13-1.87h.82v1.87h2.87v.8h-2.87v2.77c0,1,.35,1.6,1.48,1.6a3.84,3.84,0,0,0,1.4-.26l.22.72a5.07,5.07,0,0,1-1.82.35C217.12,482.84,216.57,481.86,216.57,480.43Z"/><path d="M225.09,477.67h-2.71v-.8h3.69v5.83h-1Zm-.41-2.79a.79.79,0,1,1,.79.77A.76.76,0,0,1,224.68,474.87Z"/><path d="M229.46,479.79a3,3,0,0,1,3.25-3.07,3,3,0,0,1,2.12.85l-.49.64a2.36,2.36,0,0,0-1.6-.67,2.15,2.15,0,0,0-2.27,2.25,2.12,2.12,0,0,0,2.24,2.23,2.77,2.77,0,0,0,1.8-.73l.44.64a3.47,3.47,0,0,1-2.31.91A2.94,2.94,0,0,1,229.46,479.79Z"/><path d="M236.42,483.52h5.76v.85h-5.76Z"/><path d="M243.82,480.48v-3.62h1v3.49c0,1.1.37,1.63,1.34,1.63A2.33,2.33,0,0,0,248,480.9v-4h1v5.83h-.8l-.08-1h0a2.84,2.84,0,0,1-2.17,1.16C244.46,482.84,243.82,482,243.82,480.48Z"/><path d="M251.85,476.86h.82l.08,1.38h0a3.1,3.1,0,0,1,2.6-1.52,2.44,2.44,0,0,1,1.15.24l-.23.85a2.69,2.69,0,0,0-1.08-.2,2.75,2.75,0,0,0-2.4,1.67v3.42h-1Z"/><path d="M260.26,480.74V475h-2.07v-.8h3.06v6.66A1.06,1.06,0,0,0,262.4,482a2.63,2.63,0,0,0,1.09-.26l.25.73a3.53,3.53,0,0,1-1.56.35C260.94,482.84,260.26,482.12,260.26,480.74Z"/><path class="cls-3" d="M282.3,308.19h78.4c9.27,0,16.8,8.06,16.8,18s-7.53,18-16.8,18H282.3c-9.27,0-16.8-8.06-16.8-18S273,308.19,282.3,308.19Z"/><path class="cls-6" d="M282.3,308.19h78.4c9.27,0,16.8,8.06,16.8,18s-7.53,18-16.8,18H282.3c-9.27,0-16.8-8.06-16.8-18S273,308.19,282.3,308.19Z"/><path d="M304.62,324.86h.82l.08.74h0a3.07,3.07,0,0,1,2-.89c1.57,0,2.41,1.16,2.41,3,0,2-1.25,3.14-2.65,3.14a2.74,2.74,0,0,1-1.74-.75h0l0,1.1v2h-1Zm4.34,2.83c0-1.28-.48-2.15-1.64-2.15a2.55,2.55,0,0,0-1.72.88v2.9a2.52,2.52,0,0,0,1.56.68C308.2,330,309,329.13,309,327.69Z"/><path d="M312.45,324.86h.82l.08,1.38h0a3.1,3.1,0,0,1,2.6-1.52,2.44,2.44,0,0,1,1.15.24l-.23.85a2.69,2.69,0,0,0-1.08-.2,2.75,2.75,0,0,0-2.4,1.67v3.42h-1Z"/><path d="M318.62,327.79a2.88,2.88,0,1,1,2.88,3A2.86,2.86,0,0,1,318.62,327.79Zm4.74,0c0-1.34-.74-2.25-1.86-2.25s-1.86.91-1.86,2.25.74,2.23,1.86,2.23S323.36,329.12,323.36,327.79Z"/><path d="M328.09,327.67,326,324.86h1.09l.92,1.28c.2.31.44.66.68,1h0c.22-.32.46-.68.66-1l.88-1.26h1l-2.08,2.89,2.23,2.94h-1.08l-1-1.34c-.24-.33-.52-.72-.77-1.05h0c-.24.35-.48.68-.72,1.05l-1,1.34h-1.06Z"/><path d="M333.1,333.08l.2-.78a1.88,1.88,0,0,0,.53.08,1.7,1.7,0,0,0,1.6-1.25l.18-.43-2.72-5.84h1l1.43,3.23c.23.52.48,1.13.72,1.69h0l.62-1.69,1.27-3.23h.94l-2.57,6.31a2.62,2.62,0,0,1-2.47,2A2.44,2.44,0,0,1,333.1,333.08Z"/><path class="cls-3" d="M383.3,232.19h78.4c9.27,0,16.8,8.06,16.8,18s-7.53,18-16.8,18H383.3c-9.27,0-16.8-8.06-16.8-18S374,232.19,383.3,232.19Z"/><path class="cls-6" d="M383.3,232.19h78.4c9.27,0,16.8,8.06,16.8,18s-7.53,18-16.8,18H383.3c-9.27,0-16.8-8.06-16.8-18S374,232.19,383.3,232.19Z"/><path d="M408.29,249.67h-2.71v-.8h3.69v5.83h-1Zm-.41-2.79a.79.79,0,1,1,.79.77A.76.76,0,0,1,407.88,246.87Z"/><path d="M412.4,248.86h.79l.08.77h0a1.45,1.45,0,0,1,1.33-.91c.58,0,.94.34,1.1,1,.34-.62.7-1,1.37-1s1.3.64,1.3,1.8v4.17h-1v-4.1c0-.67-.19-1-.62-1s-.62.3-.94.9v4.22h-.91v-4.1c0-.67-.17-1-.6-1s-.67.3-1,.9v4.22h-1Z"/><path d="M419.87,253.18c0-1.31,1.21-1.94,4.22-2.18a1.38,1.38,0,0,0-1.55-1.46,4.07,4.07,0,0,0-2,.7l-.38-.67a5,5,0,0,1,2.59-.84,2.16,2.16,0,0,1,2.36,2.4v3.57h-.8l-.08-.79h0a4,4,0,0,1-2.3.94A1.76,1.76,0,0,1,419.87,253.18Zm4.22,0v-1.54c-2.49.2-3.26.7-3.26,1.46s.61.94,1.28.94A3.15,3.15,0,0,0,424.09,253.18Z"/><path d="M427,255.76a1.61,1.61,0,0,1,1-1.29v0a1.06,1.06,0,0,1-.6-1,1.42,1.42,0,0,1,.7-1.09v0a1.86,1.86,0,0,1-.72-1.51,2.14,2.14,0,0,1,2.29-2.09,2.37,2.37,0,0,1,.86.14h2.41v.8h-1.51a1.76,1.76,0,0,1,.49,1.18,2,2,0,0,1-2.25,2,2.52,2.52,0,0,1-1-.22.8.8,0,0,0-.46.67c0,.46.44.67,1.21.67h1.31c1.5,0,2.22.38,2.22,1.37s-1.26,2-3.24,2C427.95,257.38,427,256.79,427,255.76Zm5-.26c0-.55-.44-.71-1.33-.71h-1.14a3.29,3.29,0,0,1-.89-.1c-.55.3-.74.64-.74,1,0,.61.66,1,1.91,1S431.92,256.1,431.92,255.5Zm-1-4.69a1.34,1.34,0,1,0-1.34,1.38A1.32,1.32,0,0,0,430.93,250.81Z"/><path d="M434.12,251.77a2.93,2.93,0,0,1,3-3,2.51,2.51,0,0,1,2.66,2.73,4,4,0,0,1,0,.6h-4.59a2.09,2.09,0,0,0,2.27,2,3.17,3.17,0,0,0,1.77-.55l.36.65a4,4,0,0,1-2.25.7A3,3,0,0,1,434.12,251.77Zm1-.48h3.72a1.67,1.67,0,0,0-1.74-1.79A2,2,0,0,0,435.13,251.29Z"/><rect class="cls-3" x="529.5" y="384.19" width="112" height="36"/><rect class="cls-6" x="529.5" y="384.19" width="112" height="36"/><path d="M549.74,398.86s0-.08.06-.08c.38,0,1.18,0,2,0,2.12,0,3.06,1.2,3.06,2.54,0,1.82-1.44,2.67-3.18,2.67h-.92v2.66c0,.06,0,.08-.07.08h-.85a.06.06,0,0,1-.07-.07Zm1,4.19h.91c1.18,0,2.19-.44,2.19-1.75,0-1.09-.84-1.68-2.05-1.68-.49,0-.86,0-1.06,0Z"/><path d="M556,399.1a.59.59,0,0,1,.61-.61.57.57,0,0,1,.6.61.58.58,0,0,1-.61.61A.57.57,0,0,1,556,399.1Zm.1,1.85c0-.06,0-.08.08-.08H557s.07,0,.07.07v5.67c0,.06,0,.08-.08.08h-.83c-.06,0-.1,0-.1-.1Z"/><path d="M563.85,403.57a3.21,3.21,0,0,1-3.43,3.24,3.89,3.89,0,0,1-.61,0v2.4s0,.07-.06.08l-.87.1s-.06,0-.06-.07V401.8c0-.11,0-.37,0-.53a0,0,0,0,1,0,0,6.08,6.08,0,0,1,2.23-.48A2.66,2.66,0,0,1,563.85,403.57Zm-4-1.76v4.07a2.56,2.56,0,0,0,.68.07,2.21,2.21,0,0,0,2.34-2.32,1.81,1.81,0,0,0-1.91-2A3.24,3.24,0,0,0,559.81,401.81Z"/><path d="M565.79,403.9a1.87,1.87,0,0,0,2,2,3.38,3.38,0,0,0,1.5-.32s.06,0,.06,0v.68a.12.12,0,0,1-.06.12,3.68,3.68,0,0,1-1.69.35,2.7,2.7,0,0,1-2.82-3c0-1.68,1-3.08,2.65-3.08a2.29,2.29,0,0,1,2.34,2.41,3.27,3.27,0,0,1,0,.62.08.08,0,0,1-.08.07,9.84,9.84,0,0,1-1.24,0Zm2.24-.74a4.63,4.63,0,0,0,.77,0,.5.5,0,0,0,0-.13,1.4,1.4,0,0,0-1.42-1.43,1.63,1.63,0,0,0-1.59,1.58Z"/><path d="M571,398.16c0-.06,0-.07.08-.07h.84c.06,0,.07,0,.07.07v7.23c0,.47.19.58.48.58a1,1,0,0,0,.24,0s0,0,0,.07v.62c0,.06,0,.07-.06.1a1.46,1.46,0,0,1-.55.08c-.59,0-1.15-.2-1.15-1.33Z"/><path d="M573.79,399.1a.59.59,0,0,1,.61-.61.57.57,0,0,1,.6.61.58.58,0,0,1-.61.61A.57.57,0,0,1,573.79,399.1Zm.1,1.85c0-.06,0-.08.08-.08h.85s.07,0,.07.07v5.67c0,.06,0,.08-.08.08H574c-.06,0-.1,0-.1-.1Z"/><path d="M576.58,402.22c0-.41,0-1.08,0-1.28,0,0,0-.07.07-.07h.74a.11.11,0,0,1,.11.07,3.89,3.89,0,0,1,.07.6,2.52,2.52,0,0,1,1.83-.79c.85,0,2,.42,2,2.32v3.55c0,.06,0,.08-.08.08h-.84c-.06,0-.08,0-.08-.1v-3.44c0-.91-.4-1.52-1.24-1.52a1.92,1.92,0,0,0-1.5.73v4.25c0,.06,0,.08-.07.08h-.85s-.07,0-.07-.08Z"/><path d="M583.59,403.9a1.87,1.87,0,0,0,2,2,3.37,3.37,0,0,0,1.5-.32s.06,0,.06,0v.68a.12.12,0,0,1-.06.12,3.68,3.68,0,0,1-1.69.35,2.7,2.7,0,0,1-2.82-3c0-1.68,1-3.08,2.65-3.08a2.29,2.29,0,0,1,2.34,2.41,3.09,3.09,0,0,1,0,.62.08.08,0,0,1-.08.07,9.85,9.85,0,0,1-1.24,0Zm2.24-.74a4.63,4.63,0,0,0,.77,0,.46.46,0,0,0,0-.13,1.4,1.4,0,0,0-1.42-1.43,1.63,1.63,0,0,0-1.59,1.58Z"/><path d="M592.66,404.2l-.86,2.42a.09.09,0,0,1-.1.07h-.82c-.06,0-.08,0-.07-.1l2.62-7.28a1.29,1.29,0,0,0,.08-.49.06.06,0,0,1,.06-.06h1.17s.06,0,.07.06l2.82,7.78s0,.08,0,.08h-.91a.11.11,0,0,1-.1-.06l-.88-2.43Zm2.77-.92c-.26-.78-1-2.88-1.25-3.69h0c-.2.77-.78,2.38-1.24,3.69Z"/><path d="M602.51,406.54s0,.07,0,.08a3.64,3.64,0,0,1-1.31.19,2.82,2.82,0,0,1-3-3,3.27,3.27,0,0,1,4.27-2.9s0,0,0,.11v.75c0,.06,0,.06-.08,0a2.77,2.77,0,0,0-1.1-.18,2.14,2.14,0,0,0,0,4.28,3,3,0,0,0,1.12-.17c.06,0,.07,0,.07,0Z"/><path d="M606.5,406.52a.12.12,0,0,1-.07.12,2.23,2.23,0,0,1-.9.17c-.87,0-1.4-.42-1.4-1.57v-3.51h-.82c-.07,0-.08,0-.08-.1v-.68c0-.06,0-.08.08-.08h.82c0-.44.06-1.27.11-1.54a.1.1,0,0,1,.08-.08l.82-.13s.07,0,.07,0c0,.42-.07,1.12-.07,1.7h1.27s.07,0,.07.08v.71a.06.06,0,0,1-.07.07h-1.27v3.37c0,.55.2.86.73.86a1.66,1.66,0,0,0,.56-.1s.07,0,.07,0Z"/><path d="M607.48,399.1a.59.59,0,0,1,.61-.61.57.57,0,0,1,.6.61.58.58,0,0,1-.61.61A.57.57,0,0,1,607.48,399.1Zm.1,1.85c0-.06,0-.08.08-.08h.85s.07,0,.07.07v5.67c0,.06,0,.08-.08.08h-.83c-.06,0-.1,0-.1-.1Z"/><path d="M615.35,403.77a2.76,2.76,0,1,1-5.49,0,2.8,2.8,0,0,1,2.76-3A2.75,2.75,0,0,1,615.35,403.77Zm-4.49,0c0,1.22.64,2.2,1.78,2.2.85,0,1.69-.67,1.69-2.16,0-1.12-.52-2.18-1.76-2.18C611.56,401.61,610.87,402.47,610.87,403.75Z"/><path d="M616.6,402.22c0-.41,0-1.08,0-1.28,0,0,0-.07.07-.07h.74a.11.11,0,0,1,.11.07,3.89,3.89,0,0,1,.07.6,2.52,2.52,0,0,1,1.83-.79c.85,0,2,.42,2,2.32v3.55c0,.06,0,.08-.08.08h-.84c-.06,0-.08,0-.08-.1v-3.44c0-.91-.4-1.52-1.24-1.52a1.92,1.92,0,0,0-1.5.73v4.25c0,.06,0,.08-.07.08h-.85s-.07,0-.07-.08Z"/><path class="cls-7" d="M546.3,460.19h78.4c9.27,0,16.8,8.06,16.8,18s-7.53,18-16.8,18H546.3c-9.27,0-16.8-8.06-16.8-18S537,460.19,546.3,460.19Z"/><path class="cls-6" d="M546.3,460.19h78.4c9.27,0,16.8,8.06,16.8,18s-7.53,18-16.8,18H546.3c-9.27,0-16.8-8.06-16.8-18S537,460.19,546.3,460.19Z"/><path d="M562.05,476.86h.82l.08,1.38h0a3.1,3.1,0,0,1,2.6-1.52,2.44,2.44,0,0,1,1.15.24l-.23.85a2.69,2.69,0,0,0-1.08-.2,2.75,2.75,0,0,0-2.4,1.67v3.42h-1Z"/><path d="M568.31,479.77a2.93,2.93,0,0,1,3-3,2.51,2.51,0,0,1,2.66,2.73,4.13,4.13,0,0,1,0,.6h-4.59a2.09,2.09,0,0,0,2.27,2,3.18,3.18,0,0,0,1.78-.55l.36.65a4,4,0,0,1-2.25.7A3,3,0,0,1,568.31,479.77Zm1-.48h3.72a1.67,1.67,0,0,0-1.74-1.79A2,2,0,0,0,569.33,479.29Z"/><path d="M575.55,481.92l.46-.65a4.14,4.14,0,0,0,2.53.79c1,0,1.48-.42,1.48-.91s-.24-.76-1.82-1.08-2.28-.83-2.28-1.7.83-1.66,2.42-1.66a4.38,4.38,0,0,1,2.35.74l-.48.64a3.45,3.45,0,0,0-2-.61c-1,0-1.34.4-1.34.84s.5.72,1.69,1c1.94.42,2.41.91,2.41,1.8s-.92,1.74-2.59,1.74A5.12,5.12,0,0,1,575.55,481.92Z"/><path d="M584.37,480.43v-2.76h-1.64v-.74l1.68-.06.13-1.87h.82v1.87h2.87v.8h-2.87v2.77c0,1,.35,1.6,1.47,1.6a3.84,3.84,0,0,0,1.4-.26l.21.72a5.07,5.07,0,0,1-1.82.35C584.92,482.84,584.37,481.86,584.37,480.43Z"/><path d="M590.07,481.18c0-1.31,1.21-1.94,4.22-2.18a1.38,1.38,0,0,0-1.55-1.46,4.07,4.07,0,0,0-2,.7l-.38-.67a5,5,0,0,1,2.59-.84,2.16,2.16,0,0,1,2.36,2.4v3.57h-.8l-.08-.79h0a4,4,0,0,1-2.3.94A1.76,1.76,0,0,1,590.07,481.18Zm4.22,0v-1.54c-2.49.2-3.26.7-3.26,1.46s.61.94,1.28.94A3.15,3.15,0,0,0,594.29,481.18Z"/><path d="M598.05,476.86h.81l.08,1.38h0a3.1,3.1,0,0,1,2.6-1.52,2.45,2.45,0,0,1,1.15.24l-.23.85a2.69,2.69,0,0,0-1.08-.2,2.75,2.75,0,0,0-2.4,1.67v3.42h-1Z"/><path d="M606,480.43v-2.76h-1.64v-.74l1.68-.06.13-1.87H607v1.87h2.87v.8H607v2.77c0,1,.35,1.6,1.47,1.6a3.84,3.84,0,0,0,1.4-.26l.21.72a5.07,5.07,0,0,1-1.82.35C606.52,482.84,606,481.86,606,480.43Z"/><rect class="cls-8" x="265.5" y="840.19" width="112" height="36"/><rect class="cls-6" x="265.5" y="840.19" width="112" height="36"/><path d="M289.36,862.69c-.07,0-.1,0-.1-.1v-7.75s0-.08.07-.08h.86s.06,0,.06.07v6.95H294c.06,0,.07,0,.06.07l-.14.77c0,.06,0,.07-.1.07Z"/><path d="M295.55,859.9a1.87,1.87,0,0,0,2,2,3.39,3.39,0,0,0,1.5-.32s.06,0,.06,0v.68a.12.12,0,0,1-.06.12,3.68,3.68,0,0,1-1.69.35,2.7,2.7,0,0,1-2.82-3c0-1.68,1-3.08,2.65-3.08a2.29,2.29,0,0,1,2.34,2.41,3.16,3.16,0,0,1,0,.62.08.08,0,0,1-.08.07,10.08,10.08,0,0,1-1.23,0Zm2.24-.74a4.39,4.39,0,0,0,.77,0,.48.48,0,0,0,0-.13,1.4,1.4,0,0,0-1.42-1.43,1.63,1.63,0,0,0-1.6,1.58Z"/><path d="M303.38,861.71c1.49.07,2.33.61,2.33,1.67s-1.14,2.15-2.9,2.15-2.65-.94-2.65-1.82c0-.41.35-.95,1.18-1.64a1.53,1.53,0,0,1-.08-1.66,1.84,1.84,0,0,1-.82-1.62,2.05,2.05,0,0,1,2.24-2,4.12,4.12,0,0,1,.9.1,1.06,1.06,0,0,0,.25,0h1.69c.06,0,.07,0,.07.07v.68s0,.07-.07.07c-.31,0-.82,0-1.1,0a1.66,1.66,0,0,1,.42,1.16,2,2,0,0,1-2.17,2,3,3,0,0,1-.66-.07.82.82,0,0,0-.06.44,1,1,0,0,0,.22.49Zm-1.48.8a1.8,1.8,0,0,0-.8,1.12c0,.55.66,1.12,1.76,1.12,1.32,0,1.91-.62,1.91-1.22s-.74-.9-1.6-.95Zm-.49-3.74a1.16,1.16,0,0,0,1.24,1.26,1.13,1.13,0,0,0,1.22-1.23,1.16,1.16,0,0,0-1.21-1.29A1.17,1.17,0,0,0,301.42,858.77Z"/><path d="M310.53,861.67a4.53,4.53,0,0,0,0,.58s0,0,0,0a5,5,0,0,1-2.24.52c-1.27,0-2.23-.62-2.23-1.88s1.19-1.84,2.67-1.84c.44,0,.7,0,.83,0v-.29a1.18,1.18,0,0,0-1.36-1.2,3.2,3.2,0,0,0-1.52.36.06.06,0,0,1-.08-.06v-.73a.1.1,0,0,1,.06-.1,4,4,0,0,1,1.7-.36,2,2,0,0,1,2.17,2.26Zm-1-1.76a5.47,5.47,0,0,0-.79,0c-1.16,0-1.73.4-1.73,1.07s.37,1.07,1.43,1.07a2.83,2.83,0,0,0,1.09-.2Z"/><path d="M316.07,862.54s0,.07,0,.08a3.63,3.63,0,0,1-1.31.19,2.82,2.82,0,0,1-3-3,3.27,3.27,0,0,1,4.27-2.9s0,0,0,.11v.75c0,.06,0,.06-.08,0a2.8,2.8,0,0,0-1.1-.18,2.14,2.14,0,0,0,0,4.28,3,3,0,0,0,1.12-.17c.06,0,.07,0,.07,0Z"/><path d="M317.81,856.86a.08.08,0,0,1,.08.06c1,2.64,1.49,4,1.65,4.54.38-1.1.89-2.48,1.62-4.54a.11.11,0,0,1,.1-.06h.85c.06,0,.07,0,0,.08-.89,2.6-2.12,5.67-3.26,8.24a.15.15,0,0,1-.13.08l-.9.07c-.06,0-.06,0,0-.1.35-.73.79-1.7,1.19-2.65a.17.17,0,0,0,0-.16c-.29-.72-1.49-3.63-2.22-5.5,0,0,0-.07.06-.07Z"/><path d="M332.71,858.69c0,2.58-1.51,4.13-3.59,4.13-2.29,0-3.63-1.74-3.63-4.1s1.52-4.07,3.61-4.07C331.35,854.64,332.7,856.42,332.71,858.69Zm-3.56,3.23c1.6,0,2.54-1.29,2.53-3.2s-1-3.17-2.59-3.17-2.58,1.12-2.58,3.17C326.51,860.45,327.42,861.91,329.15,861.91Z"/><path d="M334.85,856.86c.07,0,.08,0,.11.08a4.61,4.61,0,0,1,.1.83,2.5,2.5,0,0,1,1.93-1c.06,0,.08,0,.08.08v.87c0,.06,0,.07-.08.07a2.26,2.26,0,0,0-1.88.88v4c0,.06,0,.07-.07.07h-.85c-.06,0-.08,0-.08-.08v-4.14c0-.5,0-1.2-.06-1.54,0,0,0-.07.06-.07Z"/><path d="M337.87,855.1a.59.59,0,0,1,.61-.61.57.57,0,0,1,.6.61.58.58,0,0,1-.61.61A.57.57,0,0,1,337.87,855.1Zm.1,1.85c0-.06,0-.08.08-.08h.85s.07,0,.07.07v5.67c0,.06,0,.08-.08.08h-.83c-.06,0-.1,0-.1-.1Z"/><path d="M343.25,861.71c1.49.07,2.33.61,2.33,1.67s-1.14,2.15-2.9,2.15-2.65-.94-2.65-1.82c0-.41.35-.95,1.18-1.64a1.53,1.53,0,0,1-.08-1.66,1.84,1.84,0,0,1-.82-1.62,2.05,2.05,0,0,1,2.24-2,4.13,4.13,0,0,1,.9.1,1.05,1.05,0,0,0,.25,0h1.69c.06,0,.07,0,.07.07v.68s0,.07-.07.07c-.31,0-.82,0-1.1,0a1.66,1.66,0,0,1,.42,1.16,2,2,0,0,1-2.17,2,3,3,0,0,1-.66-.07.82.82,0,0,0-.06.44,1,1,0,0,0,.22.49Zm-1.48.8a1.8,1.8,0,0,0-.8,1.12c0,.55.66,1.12,1.76,1.12,1.32,0,1.91-.62,1.91-1.22s-.74-.9-1.6-.95Zm-.49-3.74a1.16,1.16,0,0,0,1.24,1.26,1.13,1.13,0,0,0,1.22-1.23,1.16,1.16,0,0,0-1.21-1.29A1.17,1.17,0,0,0,341.28,858.77Z"/><path d="M346.32,855.1a.59.59,0,0,1,.61-.61.57.57,0,0,1,.6.61.58.58,0,0,1-.61.61A.57.57,0,0,1,346.32,855.1Zm.1,1.85c0-.06,0-.08.08-.08h.85s.07,0,.07.07v5.67c0,.06,0,.08-.08.08h-.83c-.06,0-.1,0-.1-.1Z"/><path d="M349.12,858.22c0-.41,0-1.08,0-1.28,0,0,0-.07.07-.07h.74a.1.1,0,0,1,.11.07,3.81,3.81,0,0,1,.07.6,2.52,2.52,0,0,1,1.83-.79c.85,0,2,.42,2,2.32v3.55c0,.06,0,.08-.08.08h-.84c-.06,0-.08,0-.08-.1v-3.44c0-.91-.4-1.52-1.24-1.52a1.92,1.92,0,0,0-1.5.73v4.25c0,.06,0,.08-.07.08h-.85s-.07,0-.07-.08Z"/><path class="cls-7" d="M282.3,916.19h78.4c9.27,0,16.8,8.06,16.8,18s-7.53,18-16.8,18H282.3c-9.27,0-16.8-8.06-16.8-18S273,916.19,282.3,916.19Z"/><path class="cls-6" d="M282.3,916.19h78.4c9.27,0,16.8,8.06,16.8,18s-7.53,18-16.8,18H282.3c-9.27,0-16.8-8.06-16.8-18S273,916.19,282.3,916.19Z"/><path d="M282.51,932.86h1l1.34,3.31c.24.59.46,1.16.66,1.71h0c.2-.55.4-1.13.64-1.71l1.34-3.31h.95l-2.41,5.83H285Z"/><path d="M290.06,935.79a3,3,0,0,1,3.25-3.07,3,3,0,0,1,2.12.85l-.49.64a2.36,2.36,0,0,0-1.6-.67,2.15,2.15,0,0,0-2.27,2.25,2.12,2.12,0,0,0,2.24,2.23,2.77,2.77,0,0,0,1.8-.73l.44.64a3.47,3.47,0,0,1-2.31.91A2.94,2.94,0,0,1,290.06,935.79Z"/><path d="M299.26,936.74V931h-2.07v-.8h3.06v6.66A1.06,1.06,0,0,0,301.4,938a2.63,2.63,0,0,0,1.09-.26l.25.73a3.53,3.53,0,0,1-1.56.35C299.95,938.84,299.26,938.12,299.26,936.74Z"/><path d="M304.22,939.52H310v.85h-5.76Z"/><path d="M311.42,935.79a2.81,2.81,0,0,1,2.65-3.07,2.41,2.41,0,0,1,1.74.76h0l0-1.08v-2.24h1v8.54H316l-.08-.77h0a2.79,2.79,0,0,1-1.9.91C312.43,938.84,311.42,937.73,311.42,935.79Zm4.38,1.34v-2.9a2.21,2.21,0,0,0-1.54-.68,2,2,0,0,0-1.82,2.23c0,1.39.64,2.23,1.71,2.23A2.24,2.24,0,0,0,315.8,937.13Z"/><path d="M318.71,935.77a2.93,2.93,0,0,1,3-3,2.51,2.51,0,0,1,2.66,2.73,4,4,0,0,1,0,.6h-4.59a2.09,2.09,0,0,0,2.27,2,3.17,3.17,0,0,0,1.77-.55l.36.65a4,4,0,0,1-2.25.7A3,3,0,0,1,318.71,935.77Zm1-.48h3.72a1.67,1.67,0,0,0-1.74-1.79A2,2,0,0,0,319.73,935.29Z"/><path d="M328.06,936.74V931H326v-.8H329v6.66A1.06,1.06,0,0,0,330.2,938a2.63,2.63,0,0,0,1.09-.26l.25.73a3.53,3.53,0,0,1-1.56.35C328.75,938.84,328.06,938.12,328.06,936.74Z"/><path d="M336.09,933.67h-2.71v-.8h3.69v5.83h-1Zm-.41-2.79a.79.79,0,1,1,.79.77A.76.76,0,0,1,335.68,930.87Z"/><path d="M340.11,932.86h1l1.34,3.31c.24.59.46,1.16.66,1.71h0c.2-.55.4-1.13.64-1.71l1.34-3.31h.95l-2.41,5.83h-1.1Z"/><path d="M347.51,935.77a2.93,2.93,0,0,1,3-3,2.51,2.51,0,0,1,2.66,2.73,4.05,4.05,0,0,1,0,.6h-4.59a2.09,2.09,0,0,0,2.27,2,3.18,3.18,0,0,0,1.78-.55l.36.65a4,4,0,0,1-2.25.7A3,3,0,0,1,347.51,935.77Zm1-.48h3.72a1.67,1.67,0,0,0-1.74-1.79A2,2,0,0,0,348.53,935.29Z"/><path d="M355.65,932.86h.82l.08,1.38h0a3.1,3.1,0,0,1,2.6-1.52,2.44,2.44,0,0,1,1.15.24l-.23.85a2.69,2.69,0,0,0-1.08-.2,2.75,2.75,0,0,0-2.4,1.67v3.42h-1Z"/><rect class="cls-9" x="397.5" y="308.19" width="112" height="36"/><rect class="cls-6" x="397.5" y="308.19" width="112" height="36"/><path d="M425.16,323.11c0,.06,0,.08-.07.08h-.86s-.06,0-.06-.08v-7.77s0-.07.07-.07h4.4s.07,0,.08.07l.08.76c0,.06,0,.08-.07.08h-3.57v2.65h3.19c.06,0,.08,0,.08.07v.77s0,.07-.08.07h-3.19Z"/><path d="M433.53,322.17a4.55,4.55,0,0,0,0,.58s0,0,0,0a5,5,0,0,1-2.24.52c-1.27,0-2.23-.62-2.23-1.88s1.19-1.83,2.67-1.83c.44,0,.7,0,.83,0v-.29a1.18,1.18,0,0,0-1.36-1.2,3.2,3.2,0,0,0-1.52.36.06.06,0,0,1-.08-.06v-.73a.11.11,0,0,1,.06-.1,4,4,0,0,1,1.7-.36,2,2,0,0,1,2.17,2.25Zm-1-1.76a5.65,5.65,0,0,0-.79,0c-1.16,0-1.73.4-1.73,1.07s.37,1.07,1.43,1.07a2.81,2.81,0,0,0,1.09-.2Z"/><path d="M436.78,318.07c-.79,0-1.06.38-1.06.74s.22.61,1.12,1c1.21.47,1.7,1,1.7,1.81,0,1.1-.9,1.71-2.15,1.71a3.41,3.41,0,0,1-1.61-.35.11.11,0,0,1-.06-.11v-.8c0-.06,0-.08.07-.06a2.89,2.89,0,0,0,1.62.48c.77,0,1.14-.34,1.14-.78s-.26-.71-1.09-1c-1.2-.46-1.7-.95-1.7-1.8s.73-1.62,2-1.62a3,3,0,0,1,1.4.26c.06,0,.06.07.06.12v.73c0,.06,0,.1-.1.06A2.9,2.9,0,0,0,436.78,318.07Z"/><path d="M442.35,323a.11.11,0,0,1-.07.12,2.22,2.22,0,0,1-.9.17c-.88,0-1.4-.42-1.4-1.57v-3.51h-.82c-.07,0-.08,0-.08-.1v-.68c0-.06,0-.08.08-.08H440c0-.44.06-1.27.11-1.54a.1.1,0,0,1,.08-.08l.82-.13s.07,0,.07,0c0,.42-.07,1.12-.07,1.7h1.27s.07,0,.07.08v.71a.06.06,0,0,1-.07.07H441v3.37c0,.55.2.86.73.86a1.65,1.65,0,0,0,.56-.1s.07,0,.07,0Z"/><path d="M443.43,314.66c0-.06,0-.07.08-.07h.84c.06,0,.07,0,.07.07v7.23c0,.47.19.58.48.58a1,1,0,0,0,.24,0s0,0,0,.07v.62c0,.06,0,.07-.06.1a1.47,1.47,0,0,1-.55.08c-.59,0-1.15-.2-1.15-1.33Z"/><path d="M446.64,317.36a.08.08,0,0,1,.08.06c1,2.64,1.49,4,1.65,4.54.38-1.1.89-2.48,1.62-4.54a.11.11,0,0,1,.1-.06h.85c.06,0,.07,0,0,.08-.89,2.6-2.12,5.67-3.26,8.24a.15.15,0,0,1-.13.08l-.9.07c-.06,0-.06,0,0-.1.35-.73.79-1.7,1.19-2.65a.17.17,0,0,0,0-.16c-.29-.72-1.49-3.63-2.22-5.5,0,0,0-.07.06-.07Z"/><path d="M455.79,323.11c0,.06,0,.08-.07.08h-.84c-.06,0-.08,0-.08-.08v-7.76c0-.06,0-.08.07-.08h.85a.06.06,0,0,1,.07.07Z"/><path d="M457.64,323.19c-.06,0-.07,0-.07-.08v-4.49c0-.53,0-1,0-1.19,0,0,0-.07.07-.07h.76a.11.11,0,0,1,.1.06,3.41,3.41,0,0,1,.07.58,2.55,2.55,0,0,1,1.8-.76,1.69,1.69,0,0,1,1.6.88,2.77,2.77,0,0,1,2-.88c.89,0,1.94.47,1.94,2.29v3.59s0,.07-.08.07h-.83c-.06,0-.08,0-.08-.08v-3.5c0-.82-.37-1.48-1.22-1.48a1.93,1.93,0,0,0-1.48.7,4.15,4.15,0,0,1,.06.77v3.51c0,.06,0,.08-.08.08h-.84c-.06,0-.08,0-.08-.08v-3.54c0-.91-.42-1.44-1.2-1.44a1.94,1.94,0,0,0-1.45.67v4.32s0,.07-.07.07Z"/><path d="M471.56,322.17a4.55,4.55,0,0,0,0,.58s0,0,0,0a5,5,0,0,1-2.24.52c-1.27,0-2.23-.62-2.23-1.88s1.19-1.83,2.67-1.83c.44,0,.7,0,.83,0v-.29a1.18,1.18,0,0,0-1.36-1.2,3.2,3.2,0,0,0-1.52.36.06.06,0,0,1-.08-.06v-.73a.11.11,0,0,1,.06-.1,4,4,0,0,1,1.7-.36,2,2,0,0,1,2.17,2.25Zm-1-1.76a5.65,5.65,0,0,0-.79,0c-1.16,0-1.73.4-1.73,1.07s.37,1.07,1.43,1.07a2.81,2.81,0,0,0,1.09-.2Z"/><path d="M475.7,322.21c1.49.07,2.33.61,2.33,1.67s-1.14,2.15-2.9,2.15-2.65-.94-2.65-1.82c0-.41.35-.95,1.18-1.64a1.53,1.53,0,0,1-.08-1.66,1.84,1.84,0,0,1-.82-1.62,2.05,2.05,0,0,1,2.24-2,4.2,4.2,0,0,1,.9.1,1.05,1.05,0,0,0,.25,0h1.69c.06,0,.07,0,.07.07v.68s0,.07-.07.07c-.31,0-.82,0-1.1,0a1.66,1.66,0,0,1,.42,1.16,2,2,0,0,1-2.17,2,3,3,0,0,1-.66-.07.82.82,0,0,0-.06.44,1,1,0,0,0,.22.49Zm-1.48.8a1.8,1.8,0,0,0-.8,1.12c0,.55.66,1.12,1.76,1.12,1.32,0,1.91-.62,1.91-1.22s-.74-.9-1.6-.95Zm-.49-3.74a1.16,1.16,0,0,0,1.24,1.26,1.13,1.13,0,0,0,1.22-1.24A1.16,1.16,0,0,0,475,318,1.17,1.17,0,0,0,473.73,319.27Z"/><path d="M479.45,320.4a1.87,1.87,0,0,0,2,2,3.38,3.38,0,0,0,1.5-.32s.06,0,.06,0v.68a.12.12,0,0,1-.06.12,3.68,3.68,0,0,1-1.69.35,2.7,2.7,0,0,1-2.82-3c0-1.68,1-3.08,2.65-3.08a2.29,2.29,0,0,1,2.34,2.41,3.17,3.17,0,0,1,0,.62.08.08,0,0,1-.08.07,9.84,9.84,0,0,1-1.24,0Zm2.24-.74a4.63,4.63,0,0,0,.77,0,.48.48,0,0,0,0-.13,1.4,1.4,0,0,0-1.42-1.43,1.63,1.63,0,0,0-1.59,1.58Z"/><path d="M429.48,334.19c0,2.58-1.51,4.13-3.59,4.13-2.29,0-3.63-1.74-3.63-4.1s1.52-4.07,3.61-4.07C428.12,330.14,429.47,331.92,429.48,334.19Zm-3.56,3.23c1.6,0,2.54-1.3,2.53-3.2s-1-3.17-2.59-3.17-2.58,1.12-2.58,3.17C423.28,335.95,424.19,337.41,425.92,337.41Z"/><path d="M435.9,335.07a3.2,3.2,0,0,1-3.43,3.24,3.89,3.89,0,0,1-.61,0v2.4s0,.07-.06.08l-.88.1s-.06,0-.06-.07V333.3c0-.11,0-.37,0-.53a0,0,0,0,1,0,0,6.07,6.07,0,0,1,2.23-.48A2.66,2.66,0,0,1,435.9,335.07Zm-4-1.76v4.07a2.56,2.56,0,0,0,.68.07,2.21,2.21,0,0,0,2.34-2.32,1.81,1.81,0,0,0-1.91-2A3.24,3.24,0,0,0,431.86,333.31Z"/><path d="M439.73,338a.11.11,0,0,1-.07.12,2.22,2.22,0,0,1-.9.17c-.88,0-1.4-.42-1.4-1.57v-3.51h-.82c-.07,0-.08,0-.08-.1v-.68c0-.06,0-.08.08-.08h.82c0-.44.06-1.27.11-1.54a.1.1,0,0,1,.08-.08l.82-.13s.07,0,.07,0c0,.42-.07,1.12-.07,1.7h1.27s.07,0,.07.08v.71a.06.06,0,0,1-.07.07h-1.27v3.37c0,.55.2.86.73.86a1.65,1.65,0,0,0,.56-.1s.07,0,.07,0Z"/><path d="M440.71,330.6a.59.59,0,0,1,.61-.61.57.57,0,0,1,.6.61.58.58,0,0,1-.61.61A.57.57,0,0,1,440.71,330.6Zm.1,1.85c0-.06,0-.08.08-.08h.85s.07,0,.07.07v5.67c0,.06,0,.08-.08.08h-.83c-.06,0-.1,0-.1-.1Z"/><path d="M443.58,338.19c-.06,0-.07,0-.07-.08v-4.49c0-.53,0-1,0-1.19,0,0,0-.07.07-.07h.76a.11.11,0,0,1,.1.06,3.41,3.41,0,0,1,.07.58,2.55,2.55,0,0,1,1.8-.76,1.69,1.69,0,0,1,1.6.88,2.77,2.77,0,0,1,2-.88c.89,0,1.94.47,1.94,2.29v3.59s0,.07-.08.07h-.83c-.06,0-.08,0-.08-.08v-3.5c0-.82-.37-1.48-1.22-1.48a1.93,1.93,0,0,0-1.48.7,4.11,4.11,0,0,1,.06.77v3.51c0,.06,0,.08-.08.08h-.84c-.06,0-.08,0-.08-.08v-3.54c0-.91-.42-1.44-1.2-1.44a1.94,1.94,0,0,0-1.45.67v4.32s0,.07-.07.07Z"/><path d="M453.4,330.6A.59.59,0,0,1,454,330a.57.57,0,0,1,.6.61.58.58,0,0,1-.61.61A.57.57,0,0,1,453.4,330.6Zm.1,1.85c0-.06,0-.08.08-.08h.85s.07,0,.07.07v5.67c0,.06,0,.08-.08.08h-.83c-.06,0-.1,0-.1-.1Z"/><path d="M455.73,338.19s0,0,0-.08v-.47a.29.29,0,0,1,0-.11c.82-1.19,2.79-3.77,3.18-4.32-.22,0-.6,0-1.22,0h-1.82c-.07,0-.08,0-.07-.1l.13-.7s0-.07.08-.07h4s.06,0,.06.07v.5a.25.25,0,0,1,0,.14c-1.21,1.76-2.78,3.8-3.12,4.26.37,0,.88,0,1.46,0h1.82c.06,0,.08,0,.06.07l-.14.71a.08.08,0,0,1-.08.07Z"/><path d="M465.38,337.17a4.55,4.55,0,0,0,0,.58s0,0,0,0a5,5,0,0,1-2.24.52c-1.27,0-2.23-.62-2.23-1.88s1.19-1.83,2.67-1.83c.44,0,.7,0,.83,0v-.29a1.18,1.18,0,0,0-1.36-1.2,3.2,3.2,0,0,0-1.52.36.06.06,0,0,1-.08-.06v-.73a.11.11,0,0,1,.06-.1,4,4,0,0,1,1.7-.36,2,2,0,0,1,2.17,2.25Zm-1-1.76a5.65,5.65,0,0,0-.79,0c-1.16,0-1.73.4-1.73,1.07s.37,1.07,1.43,1.07a2.81,2.81,0,0,0,1.09-.2Z"/><path d="M469.5,338a.11.11,0,0,1-.07.12,2.22,2.22,0,0,1-.9.17c-.88,0-1.4-.42-1.4-1.57v-3.51h-.82c-.07,0-.08,0-.08-.1v-.68c0-.06,0-.08.08-.08h.82c0-.44.06-1.27.11-1.54a.1.1,0,0,1,.08-.08l.82-.13s.07,0,.07,0c0,.42-.07,1.12-.07,1.7h1.27s.07,0,.07.08v.71a.06.06,0,0,1-.07.07h-1.27v3.37c0,.55.2.86.73.86a1.65,1.65,0,0,0,.56-.1s.07,0,.07,0Z"/><path d="M470.48,330.6a.59.59,0,0,1,.61-.61.57.57,0,0,1,.6.61.58.58,0,0,1-.61.61A.57.57,0,0,1,470.48,330.6Zm.1,1.85c0-.06,0-.08.08-.08h.85s.07,0,.07.07v5.67c0,.06,0,.08-.08.08h-.83c-.06,0-.1,0-.1-.1Z"/><path d="M478.35,335.27a2.76,2.76,0,1,1-5.49,0,2.8,2.8,0,0,1,2.76-3A2.75,2.75,0,0,1,478.35,335.27Zm-4.49,0c0,1.22.64,2.2,1.77,2.2.85,0,1.69-.67,1.69-2.16,0-1.12-.52-2.18-1.76-2.18C474.56,333.11,473.87,334,473.87,335.25Z"/><path d="M479.6,333.72c0-.41,0-1.08,0-1.28,0,0,0-.07.07-.07h.74a.11.11,0,0,1,.11.07,3.82,3.82,0,0,1,.07.6,2.52,2.52,0,0,1,1.83-.79c.85,0,2,.42,2,2.32v3.55c0,.06,0,.08-.08.08h-.84c-.06,0-.08,0-.08-.1v-3.44c0-.91-.4-1.52-1.24-1.52a1.92,1.92,0,0,0-1.5.73v4.25c0,.06,0,.08-.07.08h-.85s-.07,0-.07-.08Z"/><rect class="cls-10" x="397.5" y="384.19" width="112" height="36"/><rect class="cls-6" x="397.5" y="384.19" width="112" height="36"/><path d="M428.63,395.82c-.06,0-.08,0-.08-.08V395s0-.06.07-.06h2.6c.07,0,.08,0,.08.07v3.8s0,.07-.06.1a6,6,0,0,1-2.23.4,3.83,3.83,0,0,1-4.16-4,4,4,0,0,1,4.32-4.13,4.73,4.73,0,0,1,1.91.3s.06.06.06.12v.79c0,.06,0,.07-.07,0a4.13,4.13,0,0,0-1.87-.35,3.19,3.19,0,1,0-.13,6.37,3.14,3.14,0,0,0,1.24-.19v-2.39Z"/><path d="M432.88,391.6a.59.59,0,0,1,.61-.61.57.57,0,0,1,.6.61.58.58,0,0,1-.61.61A.57.57,0,0,1,432.88,391.6Zm.1,1.85c0-.06,0-.08.08-.08h.85s.07,0,.07.07v5.67c0,.06,0,.08-.08.08h-.83c-.06,0-.1,0-.1-.1Z"/><path d="M438.28,399a.11.11,0,0,1-.07.12,2.22,2.22,0,0,1-.9.17c-.88,0-1.4-.42-1.4-1.57v-3.51h-.82c-.07,0-.08,0-.08-.1v-.68c0-.06,0-.08.08-.08h.82c0-.44.06-1.27.11-1.54a.1.1,0,0,1,.08-.08l.82-.13s.07,0,.07,0c0,.42-.07,1.12-.07,1.7h1.27s.07,0,.07.08v.71a.06.06,0,0,1-.07.07h-1.27v3.37c0,.55.2.86.73.86a1.65,1.65,0,0,0,.56-.1s.07,0,.07,0Z"/><path d="M444.37,399.19c-.06,0-.08,0-.08-.07V395.5h-4v3.61a.08.08,0,0,1-.08.08h-.84c-.06,0-.08,0-.08-.08v-7.76c0-.06,0-.08.08-.08h.84c.06,0,.08,0,.08.07v3.25h4v-3.25a.06.06,0,0,1,.07-.07h.88s.06,0,.06.07v7.78c0,.06,0,.07-.07.07Z"/><path d="M451.63,397.92a7.89,7.89,0,0,0,.07,1.2s0,.07-.07.07h-.77c-.06,0-.07,0-.1-.06a3.16,3.16,0,0,1-.07-.52,2.36,2.36,0,0,1-1.74.7c-1,0-2-.52-2-2.25v-3.62c0-.06,0-.07.08-.07h.85s.06,0,.06.07v3.5c0,.92.43,1.49,1.27,1.49a1.8,1.8,0,0,0,1.39-.61v-4.38s0-.07.08-.07h.84c.07,0,.07,0,.07.07Z"/><path d="M454.25,390.59c.06,0,.08,0,.08.07v2.82a3.41,3.41,0,0,1,1.29-.24,2.64,2.64,0,0,1,2.73,2.81,3.16,3.16,0,0,1-3.32,3.26,5.18,5.18,0,0,1-1.64-.24.1.1,0,0,1-.07-.11v-8.3c0-.06,0-.07.08-.07Zm1.22,3.53a2.84,2.84,0,0,0-1.14.2v4a2.54,2.54,0,0,0,.79.1,2.15,2.15,0,0,0,2.22-2.32A1.82,1.82,0,0,0,455.47,394.12Z"/><path d="M462.59,399.19s-.07,0-.07-.07v-7.75c0-.06,0-.1.07-.1.67,0,1.28,0,2.09,0,1.76,0,2.94.75,2.94,2.29a2.22,2.22,0,0,1-1.66,2.12c.41.56,2,2.93,2.33,3.44,0,0,0,.1,0,.1h-1a.15.15,0,0,1-.13,0l-2-3c-.1-.14-.16-.19-.28-.19H463.5v3.19a.06.06,0,0,1-.07.07Zm2.19-4.14c1.14,0,1.83-.59,1.83-1.48s-.7-1.45-2-1.45l-1.14,0v2.9Z"/><path d="M473.35,398.17a4.55,4.55,0,0,0,0,.58s0,0,0,0a5,5,0,0,1-2.24.52c-1.27,0-2.23-.62-2.23-1.88s1.19-1.83,2.67-1.83c.44,0,.7,0,.83,0v-.29a1.18,1.18,0,0,0-1.36-1.2,3.2,3.2,0,0,0-1.52.36.06.06,0,0,1-.08-.06v-.73a.11.11,0,0,1,.06-.1,4,4,0,0,1,1.7-.36,2,2,0,0,1,2.17,2.25Zm-1-1.76a5.65,5.65,0,0,0-.79,0c-1.16,0-1.73.4-1.73,1.07s.37,1.07,1.43,1.07a2.81,2.81,0,0,0,1.09-.2Z"/><path d="M479.69,399.19c-.07,0-.1,0-.11-.08-.89-3.18-1.12-4.17-1.25-4.74h0c-.22,1-.65,2.42-1.33,4.74a.1.1,0,0,1-.12.08h-.92c-.1,0-.12,0-.13-.08l-1.56-5.66s0-.08.06-.08h.9a.08.08,0,0,1,.08.06c.89,3.3,1.09,4.4,1.18,4.82h0c.1-.41.31-1.4,1.33-4.8,0-.06,0-.08.08-.08h1a.08.08,0,0,1,.08.07c1,3.48,1.14,4.35,1.24,4.82h0c.13-.56.31-1.58,1.25-4.83a.08.08,0,0,1,.08-.06h.84s.07,0,.06.07l-1.72,5.68s0,.07-.11.07Z"/><path d="M433,405.12s0-.06.1-.06h.85c.06,0,.08,0,0,.08a8.46,8.46,0,0,0,0,11c0,.06,0,.08,0,.08h-.85s-.06,0-.1,0a8.74,8.74,0,0,1,0-11Z"/><path d="M440.32,414c0,.06,0,.11-.06.12a4.33,4.33,0,0,1-1.62.23,3.81,3.81,0,0,1-4.05-4.1,3.92,3.92,0,0,1,4.21-4.07,3.69,3.69,0,0,1,1.54.22.1.1,0,0,1,.06.1v.8c0,.07,0,.07-.08.06a3.44,3.44,0,0,0-1.54-.28,3.18,3.18,0,0,0,0,6.36,4,4,0,0,0,1.5-.22s.07,0,.07,0Z"/><path d="M446.58,411.27a2.76,2.76,0,1,1-5.49,0,2.8,2.8,0,0,1,2.76-3A2.75,2.75,0,0,1,446.58,411.27Zm-4.49,0c0,1.22.64,2.2,1.77,2.2.85,0,1.69-.67,1.69-2.16,0-1.12-.52-2.18-1.76-2.18C442.79,409.11,442.1,410,442.1,411.25Z"/><path d="M447.84,409.72c0-.41,0-1.08,0-1.28,0,0,0-.07.07-.07h.74a.11.11,0,0,1,.11.07,3.82,3.82,0,0,1,.07.6,2.52,2.52,0,0,1,1.83-.79c.85,0,2,.42,2,2.32v3.55c0,.06,0,.08-.08.08h-.84c-.06,0-.08,0-.08-.1v-3.44c0-.91-.4-1.52-1.24-1.52a1.92,1.92,0,0,0-1.5.73v4.25c0,.06,0,.08-.07.08h-.85s-.07,0-.07-.08Z"/><path d="M456.76,414a.11.11,0,0,1-.07.12,2.22,2.22,0,0,1-.9.17c-.88,0-1.4-.42-1.4-1.57v-3.51h-.82c-.07,0-.08,0-.08-.1v-.68c0-.06,0-.08.08-.08h.82c0-.44.06-1.27.11-1.54a.1.1,0,0,1,.08-.08l.82-.13s.07,0,.07,0c0,.42-.07,1.12-.07,1.7h1.27s.07,0,.07.08v.71a.06.06,0,0,1-.07.07H455.4v3.37c0,.55.2.86.73.86a1.65,1.65,0,0,0,.56-.1s.07,0,.07,0Z"/><path d="M458.36,411.4a1.87,1.87,0,0,0,2,2,3.38,3.38,0,0,0,1.5-.32s.06,0,.06,0v.68a.12.12,0,0,1-.06.12,3.68,3.68,0,0,1-1.69.35,2.7,2.7,0,0,1-2.82-3c0-1.68,1-3.08,2.65-3.08a2.29,2.29,0,0,1,2.34,2.41,3.17,3.17,0,0,1,0,.62.08.08,0,0,1-.08.07,9.84,9.84,0,0,1-1.24,0Zm2.24-.74a4.63,4.63,0,0,0,.77,0,.48.48,0,0,0,0-.13,1.4,1.4,0,0,0-1.42-1.43,1.63,1.63,0,0,0-1.59,1.58Z"/><path d="M463.56,409.72c0-.41,0-1.08,0-1.28,0,0,0-.07.07-.07h.74a.11.11,0,0,1,.11.07,3.82,3.82,0,0,1,.07.6,2.52,2.52,0,0,1,1.83-.79c.85,0,2,.42,2,2.32v3.55c0,.06,0,.08-.08.08h-.84c-.06,0-.08,0-.08-.1v-3.44c0-.91-.4-1.52-1.24-1.52a1.92,1.92,0,0,0-1.5.73v4.25c0,.06,0,.08-.07.08h-.85s-.07,0-.07-.08Z"/><path d="M472.48,414a.11.11,0,0,1-.07.12,2.22,2.22,0,0,1-.9.17c-.88,0-1.4-.42-1.4-1.57v-3.51h-.82c-.07,0-.08,0-.08-.1v-.68c0-.06,0-.08.08-.08h.82c0-.44.06-1.27.11-1.54a.1.1,0,0,1,.08-.08l.82-.13s.07,0,.07,0c0,.42-.07,1.12-.07,1.7h1.27s.07,0,.07.08v.71a.06.06,0,0,1-.07.07h-1.27v3.37c0,.55.2.86.73.86a1.65,1.65,0,0,0,.56-.1s.07,0,.07,0Z"/><path d="M474.09,416.17a.13.13,0,0,1-.11,0h-.84c-.06,0-.1,0,0-.08a8.46,8.46,0,0,0,0-11s0-.08,0-.08H474a.12.12,0,0,1,.11.06,8.4,8.4,0,0,1,2,5.53A8.52,8.52,0,0,1,474.09,416.17Z"/><path class="cls-7" d="M414.3,916.19h78.4c9.27,0,16.8,8.06,16.8,18s-7.53,18-16.8,18H414.3c-9.27,0-16.8-8.06-16.8-18S405,916.19,414.3,916.19Z"/><path class="cls-6" d="M414.3,916.19h78.4c9.27,0,16.8,8.06,16.8,18s-7.53,18-16.8,18H414.3c-9.27,0-16.8-8.06-16.8-18S405,916.19,414.3,916.19Z"/><path d="M414.51,932.86h1l1.34,3.31c.24.59.46,1.16.66,1.71h0c.2-.55.4-1.13.64-1.71l1.34-3.31h.95l-2.41,5.83H417Z"/><path d="M422.06,935.79a3,3,0,0,1,3.25-3.07,3,3,0,0,1,2.12.85l-.49.64a2.36,2.36,0,0,0-1.6-.67,2.15,2.15,0,0,0-2.27,2.25,2.12,2.12,0,0,0,2.24,2.23,2.77,2.77,0,0,0,1.8-.73l.44.64a3.47,3.47,0,0,1-2.31.91A2.94,2.94,0,0,1,422.06,935.79Z"/><path d="M431.26,936.74V931h-2.07v-.8h3.06v6.66A1.06,1.06,0,0,0,433.4,938a2.63,2.63,0,0,0,1.09-.26l.25.73a3.53,3.53,0,0,1-1.56.35C431.95,938.84,431.26,938.12,431.26,936.74Z"/><path d="M436.22,939.52H442v.85h-5.76Z"/><path d="M443.42,935.79a2.81,2.81,0,0,1,2.65-3.07,2.41,2.41,0,0,1,1.74.76h0l0-1.08v-2.24h1v8.54H448l-.08-.77h0a2.79,2.79,0,0,1-1.9.91C444.43,938.84,443.42,937.73,443.42,935.79Zm4.38,1.34v-2.9a2.21,2.21,0,0,0-1.54-.68,2,2,0,0,0-1.82,2.23c0,1.39.64,2.23,1.71,2.23A2.24,2.24,0,0,0,447.8,937.13Z"/><path d="M450.71,935.77a2.93,2.93,0,0,1,3-3,2.51,2.51,0,0,1,2.66,2.73,4,4,0,0,1,0,.6h-4.59a2.09,2.09,0,0,0,2.27,2,3.17,3.17,0,0,0,1.77-.55l.36.65a4,4,0,0,1-2.25.7A3,3,0,0,1,450.71,935.77Zm1-.48h3.72a1.67,1.67,0,0,0-1.74-1.79A2,2,0,0,0,451.73,935.29Z"/><path d="M460.06,936.74V931H458v-.8H461v6.66A1.06,1.06,0,0,0,462.2,938a2.63,2.63,0,0,0,1.09-.26l.25.73a3.53,3.53,0,0,1-1.56.35C460.75,938.84,460.06,938.12,460.06,936.74Z"/><path d="M468.09,933.67h-2.71v-.8h3.69v5.83h-1Zm-.41-2.79a.79.79,0,1,1,.79.77A.76.76,0,0,1,467.68,930.87Z"/><path d="M472.11,932.86h1l1.34,3.31c.24.59.46,1.16.66,1.71h0c.2-.55.4-1.13.64-1.71l1.34-3.31h.95l-2.41,5.83h-1.1Z"/><path d="M479.51,935.77a2.93,2.93,0,0,1,3-3,2.51,2.51,0,0,1,2.66,2.73,4.05,4.05,0,0,1,0,.6h-4.59a2.09,2.09,0,0,0,2.27,2,3.18,3.18,0,0,0,1.78-.55l.36.65a4,4,0,0,1-2.25.7A3,3,0,0,1,479.51,935.77Zm1-.48h3.72a1.67,1.67,0,0,0-1.74-1.79A2,2,0,0,0,480.53,935.29Z"/><path d="M487.65,932.86h.82l.08,1.38h0a3.1,3.1,0,0,1,2.6-1.52,2.44,2.44,0,0,1,1.15.24l-.23.85a2.69,2.69,0,0,0-1.08-.2,2.75,2.75,0,0,0-2.4,1.67v3.42h-1Z"/><rect class="cls-3" x="529.5" y="612.19" width="112" height="36"/><rect class="cls-6" x="529.5" y="612.19" width="112" height="36"/><path d="M555.7,634.36c-.06,0-.07-.07-.07-.14v-.87s0-.07.08,0a3.74,3.74,0,0,0,2.05.59c1.15,0,1.68-.52,1.68-1.24,0-.56-.32-1-1.42-1.47l-.53-.21c-1.49-.64-1.82-1.39-1.82-2.2,0-1.25,1-2.13,2.58-2.13A4,4,0,0,1,560,627s.06.06.06.12v.8s0,.08-.1,0a3.49,3.49,0,0,0-1.76-.4c-1.25,0-1.58.65-1.58,1.15s.31.95,1.38,1.4l.52.22c1.48.62,1.91,1.37,1.91,2.27,0,1.3-1,2.23-2.72,2.23A4.14,4.14,0,0,1,555.7,634.36Z"/><path d="M564.27,634.52a.12.12,0,0,1-.07.12,2.24,2.24,0,0,1-.9.17c-.88,0-1.4-.42-1.4-1.57v-3.51h-.82c-.07,0-.08,0-.08-.1v-.68c0-.06,0-.08.08-.08h.82c0-.44.06-1.27.11-1.54a.1.1,0,0,1,.08-.08l.81-.13s.07,0,.07,0c0,.42-.07,1.12-.07,1.7h1.27s.07,0,.07.08v.71a.06.06,0,0,1-.07.07H562.9v3.37c0,.55.2.86.73.86a1.68,1.68,0,0,0,.56-.1s.07,0,.07,0Z"/><path d="M569.44,633.67a4.63,4.63,0,0,0,0,.58s0,0,0,0a5,5,0,0,1-2.24.52c-1.27,0-2.23-.62-2.23-1.88s1.19-1.84,2.68-1.84c.44,0,.7,0,.83,0v-.29a1.18,1.18,0,0,0-1.36-1.2,3.2,3.2,0,0,0-1.52.36.06.06,0,0,1-.08-.06v-.73a.1.1,0,0,1,.06-.1,4,4,0,0,1,1.7-.36,2,2,0,0,1,2.17,2.26Zm-1-1.76a5.48,5.48,0,0,0-.79,0c-1.16,0-1.73.4-1.73,1.07s.37,1.07,1.43,1.07a2.83,2.83,0,0,0,1.09-.2Z"/><path d="M573.56,634.52a.12.12,0,0,1-.07.12,2.24,2.24,0,0,1-.9.17c-.87,0-1.4-.42-1.4-1.57v-3.51h-.82c-.07,0-.08,0-.08-.1v-.68c0-.06,0-.08.08-.08h.82c0-.44.06-1.27.11-1.54a.1.1,0,0,1,.08-.08l.82-.13s.07,0,.07,0c0,.42-.07,1.12-.07,1.7h1.27s.07,0,.07.08v.71a.06.06,0,0,1-.07.07h-1.27v3.37c0,.55.2.86.73.86a1.68,1.68,0,0,0,.56-.1s.07,0,.07,0Z"/><path d="M574.54,627.1a.59.59,0,0,1,.61-.61.57.57,0,0,1,.6.61.58.58,0,0,1-.61.61A.57.57,0,0,1,574.54,627.1Zm.1,1.85c0-.06,0-.08.08-.08h.85s.07,0,.07.07v5.67c0,.06,0,.08-.08.08h-.83c-.06,0-.1,0-.1-.1Z"/><path d="M581.24,634.54s0,.07,0,.08a3.63,3.63,0,0,1-1.31.19,2.82,2.82,0,0,1-3-3,3.27,3.27,0,0,1,4.27-2.9s0,0,0,.11v.75c0,.06,0,.06-.08,0a2.8,2.8,0,0,0-1.1-.18,2.14,2.14,0,0,0,0,4.28,3,3,0,0,0,1.12-.17c.06,0,.07,0,.07,0Z"/><path d="M586.25,632.2l-.86,2.42a.08.08,0,0,1-.1.07h-.82c-.06,0-.08,0-.07-.1l2.61-7.28a1.23,1.23,0,0,0,.08-.49.06.06,0,0,1,.06-.06h1.18s.06,0,.07.06l2.82,7.78s0,.08,0,.08h-.91a.11.11,0,0,1-.1-.06l-.87-2.44Zm2.77-.92c-.26-.78-1-2.88-1.25-3.69h0c-.2.77-.78,2.38-1.24,3.69Z"/><path d="M596.12,634.54s0,.07,0,.08a3.63,3.63,0,0,1-1.31.19,2.82,2.82,0,0,1-3-3,3.27,3.27,0,0,1,4.27-2.9s0,0,0,.11v.75c0,.06,0,.06-.08,0a2.8,2.8,0,0,0-1.1-.18,2.14,2.14,0,0,0,0,4.28,3,3,0,0,0,1.12-.17c.06,0,.07,0,.07,0Z"/><path d="M600.1,634.52a.12.12,0,0,1-.07.12,2.24,2.24,0,0,1-.9.17c-.88,0-1.4-.42-1.4-1.57v-3.51h-.82c-.07,0-.08,0-.08-.1v-.68c0-.06,0-.08.08-.08h.82c0-.44.06-1.27.11-1.54a.1.1,0,0,1,.08-.08l.82-.13s.07,0,.07,0c0,.42-.07,1.12-.07,1.7H600s.07,0,.07.08v.71a.06.06,0,0,1-.07.07h-1.27v3.37c0,.55.2.86.73.86a1.67,1.67,0,0,0,.56-.1s.07,0,.07,0Z"/><path d="M601.09,627.1a.59.59,0,0,1,.61-.61.57.57,0,0,1,.6.61.58.58,0,0,1-.61.61A.57.57,0,0,1,601.09,627.1Zm.1,1.85c0-.06,0-.08.08-.08h.85s.07,0,.07.07v5.67c0,.06,0,.08-.08.08h-.83c-.06,0-.1,0-.1-.1Z"/><path d="M609,631.77a2.76,2.76,0,1,1-5.49,0,2.8,2.8,0,0,1,2.76-3A2.75,2.75,0,0,1,609,631.77Zm-4.49,0c0,1.22.64,2.2,1.78,2.2.85,0,1.69-.67,1.69-2.16,0-1.12-.52-2.18-1.76-2.18C605.17,629.61,604.47,630.47,604.47,631.75Z"/><path d="M610.21,630.22c0-.41,0-1.08,0-1.28,0,0,0-.07.07-.07H611a.1.1,0,0,1,.11.07,3.75,3.75,0,0,1,.07.6,2.52,2.52,0,0,1,1.83-.79c.85,0,2,.42,2,2.32v3.55c0,.06,0,.08-.08.08H614c-.06,0-.08,0-.08-.1v-3.44c0-.91-.4-1.52-1.24-1.52a1.92,1.92,0,0,0-1.5.73v4.25c0,.06,0,.08-.07.08h-.85s-.07,0-.07-.08Z"/><path class="cls-7" d="M546.3,688.19h78.4c9.27,0,16.8,8.06,16.8,18s-7.53,18-16.8,18H546.3c-9.27,0-16.8-8.06-16.8-18S537,688.19,546.3,688.19Z"/><path class="cls-6" d="M546.3,688.19h78.4c9.27,0,16.8,8.06,16.8,18s-7.53,18-16.8,18H546.3c-9.27,0-16.8-8.06-16.8-18S537,688.19,546.3,688.19Z"/><path d="M562.05,704.86h.82l.08,1.38h0a3.1,3.1,0,0,1,2.6-1.52,2.45,2.45,0,0,1,1.15.24l-.23.85a2.69,2.69,0,0,0-1.08-.2,2.76,2.76,0,0,0-2.4,1.67v3.42h-1Z"/><path d="M568.31,707.77a2.93,2.93,0,0,1,3-3,2.51,2.51,0,0,1,2.66,2.73,4.12,4.12,0,0,1,0,.6h-4.59a2.09,2.09,0,0,0,2.27,2,3.18,3.18,0,0,0,1.78-.55l.36.65a4,4,0,0,1-2.25.7A3,3,0,0,1,568.31,707.77Zm1-.48h3.72a1.67,1.67,0,0,0-1.74-1.79A2,2,0,0,0,569.33,707.29Z"/><path d="M575.55,709.92l.46-.65a4.14,4.14,0,0,0,2.53.79c1,0,1.48-.42,1.48-.91s-.24-.76-1.82-1.08-2.28-.83-2.28-1.7.83-1.66,2.42-1.66a4.37,4.37,0,0,1,2.35.74l-.48.63a3.45,3.45,0,0,0-2-.61c-1,0-1.34.4-1.34.84s.5.72,1.69,1c1.94.42,2.41.91,2.41,1.8s-.92,1.74-2.59,1.74A5.12,5.12,0,0,1,575.55,709.92Z"/><path d="M584.37,708.43v-2.76h-1.64v-.74l1.68-.06.13-1.87h.82v1.87h2.87v.8h-2.87v2.77c0,1,.35,1.6,1.47,1.6a3.84,3.84,0,0,0,1.4-.27l.21.72a5.09,5.09,0,0,1-1.82.35C584.92,710.84,584.37,709.87,584.37,708.43Z"/><path d="M590.07,709.18c0-1.31,1.21-1.94,4.22-2.18a1.38,1.38,0,0,0-1.55-1.46,4.06,4.06,0,0,0-2,.7l-.38-.67a5,5,0,0,1,2.59-.84,2.16,2.16,0,0,1,2.36,2.4v3.57h-.8l-.08-.79h0a4,4,0,0,1-2.3.94A1.76,1.76,0,0,1,590.07,709.18Zm4.22,0v-1.54c-2.49.2-3.26.7-3.26,1.46s.61.94,1.28.94A3.16,3.16,0,0,0,594.29,709.18Z"/><path d="M598.05,704.86h.81l.08,1.38h0a3.1,3.1,0,0,1,2.6-1.52,2.46,2.46,0,0,1,1.15.24l-.23.85a2.69,2.69,0,0,0-1.08-.2,2.76,2.76,0,0,0-2.4,1.67v3.42h-1Z"/><path d="M606,708.43v-2.76h-1.64v-.74l1.68-.06.13-1.87H607v1.87h2.87v.8H607v2.77c0,1,.35,1.6,1.47,1.6a3.84,3.84,0,0,0,1.4-.27l.21.72a5.09,5.09,0,0,1-1.82.35C606.52,710.84,606,709.87,606,708.43Z"/><path class="cls-3" d="M546.3,764.19h78.4c9.27,0,16.8,8.06,16.8,18s-7.53,18-16.8,18H546.3c-9.27,0-16.8-8.06-16.8-18S537,764.19,546.3,764.19Z"/><path class="cls-6" d="M546.3,764.19h78.4c9.27,0,16.8,8.06,16.8,18s-7.53,18-16.8,18H546.3c-9.27,0-16.8-8.06-16.8-18S537,764.19,546.3,764.19Z"/><path d="M558.45,780.86h.82l.08,1.38h0a3.1,3.1,0,0,1,2.6-1.52,2.45,2.45,0,0,1,1.15.24l-.23.85a2.69,2.69,0,0,0-1.08-.2,2.76,2.76,0,0,0-2.4,1.67v3.42h-1Z"/><path d="M564.71,783.77a2.93,2.93,0,0,1,3-3,2.51,2.51,0,0,1,2.66,2.73,4.12,4.12,0,0,1,0,.6h-4.59a2.09,2.09,0,0,0,2.27,2,3.18,3.18,0,0,0,1.78-.55l.36.65a4,4,0,0,1-2.25.7A3,3,0,0,1,564.71,783.77Zm1-.48h3.72a1.67,1.67,0,0,0-1.74-1.79A2,2,0,0,0,565.73,783.29Z"/><path d="M571.82,783.79a2.81,2.81,0,0,1,2.65-3.07,2.41,2.41,0,0,1,1.74.76h0l0-1.08v-2.24h1v8.54h-.82l-.08-.77h0a2.79,2.79,0,0,1-1.9.91C572.83,786.84,571.82,785.73,571.82,783.79Zm4.38,1.34v-2.9a2.2,2.2,0,0,0-1.54-.68,2,2,0,0,0-1.82,2.23c0,1.39.63,2.23,1.71,2.23A2.24,2.24,0,0,0,576.2,785.13Z"/><path d="M582.09,781.67h-2.71v-.8h3.69v5.83h-1Zm-.41-2.79a.79.79,0,1,1,.79.77A.76.76,0,0,1,581.68,778.87Z"/><path d="M587.25,780.86h.82l.08,1.38h0a3.1,3.1,0,0,1,2.6-1.52,2.46,2.46,0,0,1,1.15.24l-.23.85a2.7,2.7,0,0,0-1.08-.2,2.75,2.75,0,0,0-2.4,1.67v3.42h-1Z"/><path d="M593.52,783.77a2.93,2.93,0,0,1,3-3,2.51,2.51,0,0,1,2.66,2.73,4,4,0,0,1,0,.6h-4.59a2.09,2.09,0,0,0,2.27,2,3.18,3.18,0,0,0,1.78-.55l.36.65a4,4,0,0,1-2.25.7A3,3,0,0,1,593.52,783.77Zm1-.48h3.72a1.67,1.67,0,0,0-1.74-1.79A2,2,0,0,0,594.54,783.29Z"/><path d="M600.86,783.79a3,3,0,0,1,3.25-3.07,3,3,0,0,1,2.12.85l-.49.64a2.36,2.36,0,0,0-1.6-.67,2.15,2.15,0,0,0-2.27,2.25,2.12,2.12,0,0,0,2.24,2.23,2.77,2.77,0,0,0,1.8-.73l.44.63a3.47,3.47,0,0,1-2.31.91A2.94,2.94,0,0,1,600.86,783.79Z"/><path d="M609.57,784.43v-2.76h-1.64v-.74l1.68-.06.13-1.87h.82v1.87h2.87v.8h-2.87v2.77c0,1,.35,1.6,1.48,1.6a3.84,3.84,0,0,0,1.4-.27l.22.72a5.1,5.1,0,0,1-1.82.35C610.12,786.84,609.57,785.87,609.57,784.43Z"/><path class="cls-3" d="M546.3,536.19h78.4c9.27,0,16.8,8.06,16.8,18s-7.53,18-16.8,18H546.3c-9.27,0-16.8-8.06-16.8-18S537,536.19,546.3,536.19Z"/><path class="cls-6" d="M546.3,536.19h78.4c9.27,0,16.8,8.06,16.8,18s-7.53,18-16.8,18H546.3c-9.27,0-16.8-8.06-16.8-18S537,536.19,546.3,536.19Z"/><path d="M564.75,557.92l.46-.65a4.14,4.14,0,0,0,2.53.79c1,0,1.47-.42,1.47-.91s-.24-.76-1.82-1.08-2.28-.83-2.28-1.7.83-1.66,2.42-1.66a4.37,4.37,0,0,1,2.35.74l-.48.63a3.44,3.44,0,0,0-2-.61c-1,0-1.34.4-1.34.84s.5.72,1.69,1c1.94.42,2.41.91,2.41,1.8s-.92,1.74-2.59,1.74A5.12,5.12,0,0,1,564.75,557.92Z"/><path d="M573.57,556.43v-2.76h-1.64v-.74l1.68-.06.13-1.87h.82v1.87h2.87v.8h-2.87v2.77c0,1,.35,1.6,1.48,1.6a3.84,3.84,0,0,0,1.4-.27l.22.72a5.1,5.1,0,0,1-1.82.35C574.12,558.84,573.57,557.87,573.57,556.43Z"/><path d="M579.27,557.18c0-1.31,1.21-1.94,4.22-2.18a1.38,1.38,0,0,0-1.55-1.46,4.07,4.07,0,0,0-2,.7l-.38-.67a5,5,0,0,1,2.59-.84,2.16,2.16,0,0,1,2.36,2.4v3.57h-.8l-.08-.79h0a4,4,0,0,1-2.3.94A1.76,1.76,0,0,1,579.27,557.18Zm4.22,0v-1.54c-2.5.2-3.26.7-3.26,1.46s.61.94,1.28.94A3.15,3.15,0,0,0,583.49,557.18Z"/><path d="M588,556.43v-2.76h-1.64v-.74l1.68-.06.13-1.87H589v1.87h2.87v.8H589v2.77c0,1,.35,1.6,1.48,1.6a3.84,3.84,0,0,0,1.4-.27l.22.72a5.1,5.1,0,0,1-1.82.35C588.52,558.84,588,557.87,588,556.43Z"/><path d="M596.49,553.67h-2.71v-.8h3.69v5.83h-1Zm-.41-2.79a.79.79,0,1,1,.79.77A.76.76,0,0,1,596.08,550.87Z"/><path d="M600.86,555.79a3,3,0,0,1,3.25-3.07,3,3,0,0,1,2.12.85l-.49.64a2.36,2.36,0,0,0-1.6-.67,2.15,2.15,0,0,0-2.27,2.25,2.12,2.12,0,0,0,2.24,2.23,2.77,2.77,0,0,0,1.8-.73l.44.63a3.47,3.47,0,0,1-2.31.91A2.94,2.94,0,0,1,600.86,555.79Z"/><line class="cls-4" x1="585.5" y1="572.19" x2="585.5" y2="598.79"/><polygon points="585.5 608.39 589.1 598.79 581.9 598.79 585.5 608.39"/><polygon class="cls-5" points="585.5 608.39 589.1 598.79 581.9 598.79 585.5 608.39"/><line class="cls-4" x1="585.5" y1="800.19" x2="585.5" y2="826.79"/><polygon points="585.5 836.39 589.1 826.79 581.9 826.79 585.5 836.39"/><polygon class="cls-5" points="585.5 836.39 589.1 826.79 581.9 826.79 585.5 836.39"/><rect class="cls-3" x="1.5" y="840.19" width="112" height="36"/><rect class="cls-6" x="1.5" y="840.19" width="112" height="36"/><path d="M28.75,862.62c0,.06,0,.07-.08.07H24.11c-.08,0-.1,0-.1-.1v-7.75c0-.06,0-.08.08-.08h4.38c.06,0,.07,0,.08.07l.1.76s0,.08-.06.08H25v2.51h3.24a.06.06,0,0,1,.07.07V859a.06.06,0,0,1-.07.07H25v2.69h3.81c.06,0,.07,0,.06.07Z"/><path d="M30,862.69c-.06,0-.07,0-.07-.08v-4.48c0-.53,0-1,0-1.19,0,0,0-.07.07-.07h.76a.11.11,0,0,1,.1.06,3.39,3.39,0,0,1,.07.57,2.55,2.55,0,0,1,1.8-.76,1.69,1.69,0,0,1,1.6.88,2.76,2.76,0,0,1,2-.88c.89,0,1.94.47,1.94,2.29v3.59s0,.07-.08.07h-.83c-.06,0-.08,0-.08-.08v-3.5c0-.81-.37-1.47-1.22-1.47a1.93,1.93,0,0,0-1.48.7,4.17,4.17,0,0,1,.06.77v3.51c0,.06,0,.08-.08.08H33.7c-.06,0-.08,0-.08-.08v-3.54c0-.91-.42-1.44-1.2-1.44a1.94,1.94,0,0,0-1.45.67v4.32s0,.07-.07.07Z"/><path d="M40.87,854.09c.06,0,.08,0,.08.07V857a3.41,3.41,0,0,1,1.29-.24A2.64,2.64,0,0,1,45,859.55a3.16,3.16,0,0,1-3.32,3.26,5.18,5.18,0,0,1-1.64-.24.11.11,0,0,1-.07-.11v-8.3c0-.06,0-.07.08-.07Zm1.22,3.53a2.86,2.86,0,0,0-1.14.2v4a2.54,2.54,0,0,0,.79.1A2.15,2.15,0,0,0,44,859.63,1.82,1.82,0,0,0,42.1,857.62Z"/><path d="M46.93,859.9a1.87,1.87,0,0,0,2,2,3.39,3.39,0,0,0,1.5-.32s.06,0,.06,0v.68a.12.12,0,0,1-.06.12,3.68,3.68,0,0,1-1.69.35,2.7,2.7,0,0,1-2.82-3c0-1.68,1-3.08,2.65-3.08a2.29,2.29,0,0,1,2.34,2.41,3.16,3.16,0,0,1,0,.62.08.08,0,0,1-.08.07,10.09,10.09,0,0,1-1.24,0Zm2.24-.74a4.39,4.39,0,0,0,.77,0,.48.48,0,0,0,0-.13,1.4,1.4,0,0,0-1.42-1.43,1.63,1.63,0,0,0-1.59,1.58Z"/><path d="M51.81,859.83a3,3,0,0,1,3.26-3.08,4.21,4.21,0,0,1,.76.07v-2.65c0-.06,0-.07.07-.07h.86c.06,0,.07,0,.07.06v7.56a4.9,4.9,0,0,0,0,.57s0,.06-.06.08a4.63,4.63,0,0,1-2,.45A2.77,2.77,0,0,1,51.81,859.83Zm4-2.1a2.27,2.27,0,0,0-3,2.05,1.93,1.93,0,0,0,2,2.16,2.57,2.57,0,0,0,1-.15Z"/><path d="M62.39,860.2l-.86,2.42a.08.08,0,0,1-.1.07h-.82c-.06,0-.08,0-.07-.1l2.61-7.28a1.26,1.26,0,0,0,.08-.49.06.06,0,0,1,.06-.06h1.18s.06,0,.07.06l2.82,7.78s0,.08,0,.08h-.91a.11.11,0,0,1-.1-.06l-.88-2.44Zm2.77-.92c-.26-.78-1-2.88-1.25-3.69h0c-.2.77-.78,2.38-1.24,3.69Z"/><path d="M72.25,862.54s0,.07,0,.08a3.63,3.63,0,0,1-1.31.19,2.82,2.82,0,0,1-3-3,3.27,3.27,0,0,1,4.27-2.9s0,0,0,.11v.75c0,.06,0,.06-.08,0a2.8,2.8,0,0,0-1.1-.18,2.14,2.14,0,0,0,0,4.28,3,3,0,0,0,1.12-.17c.06,0,.07,0,.07,0Z"/><path d="M76.24,862.52a.12.12,0,0,1-.07.12,2.24,2.24,0,0,1-.9.17c-.88,0-1.4-.42-1.4-1.57v-3.51H73c-.07,0-.08,0-.08-.1v-.68c0-.06,0-.08.08-.08h.82c0-.44.06-1.27.11-1.54a.1.1,0,0,1,.08-.08l.82-.13s.07,0,.07,0c0,.42-.07,1.12-.07,1.7h1.27s.07,0,.07.08v.71a.06.06,0,0,1-.07.07H74.87v3.37c0,.55.2.86.73.86a1.68,1.68,0,0,0,.56-.1s.07,0,.07,0Z"/><path d="M77.22,855.1a.59.59,0,0,1,.61-.61.57.57,0,0,1,.6.61.58.58,0,0,1-.61.61A.57.57,0,0,1,77.22,855.1Zm.1,1.85c0-.06,0-.08.08-.08h.85s.07,0,.07.07v5.67c0,.06,0,.08-.08.08h-.83c-.06,0-.1,0-.1-.1Z"/><path d="M85.09,859.77a2.76,2.76,0,1,1-5.49,0,2.8,2.8,0,0,1,2.76-3A2.75,2.75,0,0,1,85.09,859.77Zm-4.49,0c0,1.22.64,2.2,1.77,2.2.85,0,1.69-.67,1.69-2.16,0-1.12-.52-2.18-1.76-2.18C81.3,857.61,80.6,858.47,80.6,859.75Z"/><path d="M86.34,858.22c0-.41,0-1.08,0-1.28,0,0,0-.07.07-.07h.74a.1.1,0,0,1,.11.07,3.81,3.81,0,0,1,.07.6,2.52,2.52,0,0,1,1.83-.79c.85,0,2,.42,2,2.32v3.55c0,.06,0,.08-.08.08h-.84c-.06,0-.08,0-.08-.1v-3.44c0-.91-.4-1.52-1.24-1.52a1.92,1.92,0,0,0-1.5.73v4.25c0,.06,0,.08-.07.08h-.85s-.07,0-.07-.08Z"/><line class="cls-4" x1="105.48" y1="572.19" x2="62.74" y2="826.97"/><polygon points="61.15 836.44 66.29 827.57 59.19 826.37 61.15 836.44"/><polygon class="cls-5" points="61.15 836.44 66.29 827.57 59.19 826.37 61.15 836.44"/><rect class="cls-3" x="133.5" y="840.19" width="112" height="36"/><rect class="cls-6" x="133.5" y="840.19" width="112" height="36"/><path d="M159.7,862.36c-.06,0-.07-.07-.07-.14v-.87s0-.07.08,0a3.74,3.74,0,0,0,2.05.59c1.15,0,1.68-.52,1.68-1.24,0-.56-.32-1-1.42-1.47l-.53-.21c-1.49-.64-1.82-1.39-1.82-2.2,0-1.25,1-2.13,2.58-2.13A4,4,0,0,1,164,855s.06.06.06.12v.8s0,.08-.1,0a3.49,3.49,0,0,0-1.76-.4c-1.25,0-1.58.65-1.58,1.15s.31.95,1.38,1.4l.52.22c1.48.62,1.91,1.37,1.91,2.27,0,1.3-1,2.23-2.72,2.23A4.14,4.14,0,0,1,159.7,862.36Z"/><path d="M168.27,862.52a.12.12,0,0,1-.07.12,2.24,2.24,0,0,1-.9.17c-.88,0-1.4-.42-1.4-1.57v-3.51h-.82c-.07,0-.08,0-.08-.1v-.68c0-.06,0-.08.08-.08h.82c0-.44.06-1.27.11-1.54a.1.1,0,0,1,.08-.08l.82-.13s.07,0,.07,0c0,.42-.07,1.12-.07,1.7h1.27s.07,0,.07.08v.71a.06.06,0,0,1-.07.07H166.9v3.37c0,.55.2.86.73.86a1.68,1.68,0,0,0,.56-.1s.07,0,.07,0Z"/><path d="M173.44,861.67a4.53,4.53,0,0,0,0,.58s0,0,0,0a5,5,0,0,1-2.24.52c-1.27,0-2.23-.62-2.23-1.88s1.19-1.84,2.67-1.84c.44,0,.7,0,.83,0v-.29a1.18,1.18,0,0,0-1.36-1.2,3.2,3.2,0,0,0-1.52.36.06.06,0,0,1-.08-.06v-.73a.1.1,0,0,1,.06-.1,4,4,0,0,1,1.7-.36,2,2,0,0,1,2.17,2.26Zm-1-1.76a5.47,5.47,0,0,0-.79,0c-1.16,0-1.73.4-1.73,1.07s.37,1.07,1.43,1.07a2.83,2.83,0,0,0,1.09-.2Z"/><path d="M177.56,862.52a.12.12,0,0,1-.07.12,2.24,2.24,0,0,1-.9.17c-.88,0-1.4-.42-1.4-1.57v-3.51h-.82c-.07,0-.08,0-.08-.1v-.68c0-.06,0-.08.08-.08h.82c0-.44.06-1.27.11-1.54a.1.1,0,0,1,.08-.08l.82-.13s.07,0,.07,0c0,.42-.07,1.12-.07,1.7h1.27s.07,0,.07.08v.71a.06.06,0,0,1-.07.07h-1.27v3.37c0,.55.2.86.73.86a1.68,1.68,0,0,0,.56-.1s.07,0,.07,0Z"/><path d="M178.54,855.1a.59.59,0,0,1,.61-.61.57.57,0,0,1,.6.61.58.58,0,0,1-.61.61A.57.57,0,0,1,178.54,855.1Zm.1,1.85c0-.06,0-.08.08-.08h.85s.07,0,.07.07v5.67c0,.06,0,.08-.08.08h-.83c-.06,0-.1,0-.1-.1Z"/><path d="M185.24,862.54s0,.07,0,.08a3.63,3.63,0,0,1-1.31.19,2.82,2.82,0,0,1-3-3,3.27,3.27,0,0,1,4.27-2.9s0,0,0,.11v.75c0,.06,0,.06-.08,0a2.8,2.8,0,0,0-1.1-.18,2.14,2.14,0,0,0,0,4.28,3,3,0,0,0,1.12-.17c.06,0,.07,0,.07,0Z"/><path d="M190.25,860.2l-.86,2.42a.08.08,0,0,1-.1.07h-.82c-.06,0-.08,0-.07-.1l2.61-7.28a1.26,1.26,0,0,0,.08-.49.06.06,0,0,1,.06-.06h1.18s.06,0,.07.06l2.82,7.78s0,.08,0,.08h-.91a.11.11,0,0,1-.1-.06l-.88-2.44Zm2.77-.92c-.26-.78-1-2.88-1.25-3.69h0c-.2.77-.78,2.38-1.24,3.69Z"/><path d="M200.12,862.54s0,.07,0,.08a3.63,3.63,0,0,1-1.31.19,2.82,2.82,0,0,1-3-3,3.27,3.27,0,0,1,4.27-2.9s0,0,0,.11v.75c0,.06,0,.06-.08,0a2.8,2.8,0,0,0-1.1-.18,2.14,2.14,0,0,0,0,4.28,3,3,0,0,0,1.12-.17c.06,0,.07,0,.07,0Z"/><path d="M204.1,862.52a.12.12,0,0,1-.07.12,2.24,2.24,0,0,1-.9.17c-.88,0-1.4-.42-1.4-1.57v-3.51h-.82c-.07,0-.08,0-.08-.1v-.68c0-.06,0-.08.08-.08h.82c0-.44.06-1.27.11-1.54a.1.1,0,0,1,.08-.08l.82-.13s.07,0,.07,0c0,.42-.07,1.12-.07,1.7H204s.07,0,.07.08v.71a.06.06,0,0,1-.07.07h-1.27v3.37c0,.55.2.86.73.86a1.68,1.68,0,0,0,.56-.1s.07,0,.07,0Z"/><path d="M205.09,855.1a.59.59,0,0,1,.61-.61.57.57,0,0,1,.6.61.58.58,0,0,1-.61.61A.57.57,0,0,1,205.09,855.1Zm.1,1.85c0-.06,0-.08.08-.08h.85s.07,0,.07.07v5.67c0,.06,0,.08-.08.08h-.83c-.06,0-.1,0-.1-.1Z"/><path d="M213,859.77a2.76,2.76,0,1,1-5.49,0,2.8,2.8,0,0,1,2.76-3A2.75,2.75,0,0,1,213,859.77Zm-4.49,0c0,1.22.64,2.2,1.77,2.2.85,0,1.69-.67,1.69-2.16,0-1.12-.52-2.18-1.76-2.18C209.17,857.61,208.47,858.47,208.47,859.75Z"/><path d="M214.21,858.22c0-.41,0-1.08,0-1.28,0,0,0-.07.07-.07H215a.1.1,0,0,1,.11.07,3.81,3.81,0,0,1,.07.6,2.52,2.52,0,0,1,1.83-.79c.85,0,2,.42,2,2.32v3.55c0,.06,0,.08-.08.08H218c-.06,0-.08,0-.08-.1v-3.44c0-.91-.4-1.52-1.24-1.52a1.92,1.92,0,0,0-1.5.73v4.25c0,.06,0,.08-.07.08h-.85s-.07,0-.07-.08Z"/><path class="cls-7" d="M150.3,916.19h78.4c9.27,0,16.8,8.06,16.8,18s-7.53,18-16.8,18H150.3c-9.27,0-16.8-8.06-16.8-18S141,916.19,150.3,916.19Z"/><path class="cls-6" d="M150.3,916.19h78.4c9.27,0,16.8,8.06,16.8,18s-7.53,18-16.8,18H150.3c-9.27,0-16.8-8.06-16.8-18S141,916.19,150.3,916.19Z"/><path d="M157.71,932.86h1l1.34,3.31c.24.59.46,1.16.66,1.71h0c.2-.55.4-1.13.64-1.71l1.34-3.31h.95l-2.41,5.83h-1.1Z"/><path d="M165.26,935.79a3,3,0,0,1,3.25-3.07,3,3,0,0,1,2.12.85l-.49.64a2.36,2.36,0,0,0-1.6-.67,2.15,2.15,0,0,0-2.27,2.25,2.12,2.12,0,0,0,2.24,2.23,2.77,2.77,0,0,0,1.8-.73l.44.64a3.47,3.47,0,0,1-2.31.91A2.94,2.94,0,0,1,165.26,935.79Z"/><path d="M174.46,936.74V931h-2.07v-.8h3.06v6.66A1.06,1.06,0,0,0,176.6,938a2.63,2.63,0,0,0,1.09-.26l.25.73a3.53,3.53,0,0,1-1.56.35C175.15,938.84,174.46,938.12,174.46,936.74Z"/><path d="M179.42,939.52h5.76v.85h-5.76Z"/><path d="M186.75,937.92l.46-.65a4.14,4.14,0,0,0,2.53.79c1,0,1.48-.42,1.48-.91s-.24-.76-1.82-1.08-2.28-.83-2.28-1.7.83-1.66,2.42-1.66a4.38,4.38,0,0,1,2.35.74l-.48.64a3.44,3.44,0,0,0-2-.61c-1,0-1.34.4-1.34.84s.5.72,1.69,1c1.94.42,2.41.91,2.41,1.8s-.92,1.74-2.59,1.74A5.12,5.12,0,0,1,186.75,937.92Z"/><path d="M193.9,941.08l.2-.78a1.88,1.88,0,0,0,.53.08,1.7,1.7,0,0,0,1.6-1.25l.18-.43-2.72-5.84h1l1.43,3.23c.23.52.48,1.13.72,1.69h0l.62-1.69,1.27-3.23h.94l-2.57,6.31a2.62,2.62,0,0,1-2.47,2A2.44,2.44,0,0,1,193.9,941.08Z"/><path d="M201.41,932.86h.82l.08,1h0a3,3,0,0,1,2.19-1.14c1.38,0,2,.82,2,2.35v3.62h-1V935.2c0-1.1-.38-1.63-1.34-1.63-.7,0-1.16.35-1.85,1.06v4.07h-1Z"/><path d="M210,936.43v-2.76h-1.64v-.74l1.68-.06.13-1.87H211v1.87h2.87v.8H211v2.77c0,1,.35,1.6,1.48,1.6a3.84,3.84,0,0,0,1.4-.26l.22.72a5.07,5.07,0,0,1-1.82.35C210.52,938.84,210,937.87,210,936.43Z"/><path d="M215.81,930.15h1v2.33l-.06,1.38h0a3,3,0,0,1,2.18-1.14c1.38,0,2,.82,2,2.35v3.62h-1V935.2c0-1.1-.38-1.63-1.34-1.63-.7,0-1.16.35-1.85,1.06v4.07h-1Z"/><rect class="cls-10" x="529.5" y="840.19" width="112" height="36"/><rect class="cls-6" x="529.5" y="840.19" width="112" height="36"/><path d="M542,859.32c-.06,0-.08,0-.08-.08v-.73s0-.06.07-.06h2.6c.07,0,.08,0,.08.07v3.8s0,.07-.06.1a6,6,0,0,1-2.23.4,3.84,3.84,0,0,1-4.16-4,4,4,0,0,1,4.32-4.12,4.74,4.74,0,0,1,1.91.3s.06.06.06.12v.79c0,.06,0,.07-.07,0a4.12,4.12,0,0,0-1.87-.35,3.18,3.18,0,1,0-.13,6.37,3.12,3.12,0,0,0,1.24-.19v-2.39Z"/><path d="M546.27,855.1a.59.59,0,0,1,.61-.61.57.57,0,0,1,.6.61.58.58,0,0,1-.61.61A.57.57,0,0,1,546.27,855.1Zm.1,1.85c0-.06,0-.08.08-.08h.85s.07,0,.07.07v5.67c0,.06,0,.08-.08.08h-.83c-.06,0-.1,0-.1-.1Z"/><path d="M551.66,862.52a.12.12,0,0,1-.07.12,2.24,2.24,0,0,1-.9.17c-.87,0-1.4-.42-1.4-1.57v-3.51h-.82c-.07,0-.08,0-.08-.1v-.68c0-.06,0-.08.08-.08h.82c0-.44.06-1.27.11-1.54a.1.1,0,0,1,.08-.08l.82-.13s.07,0,.07,0c0,.42-.07,1.12-.07,1.7h1.27s.07,0,.07.08v.71a.06.06,0,0,1-.07.07H550.3v3.37c0,.55.2.86.73.86a1.68,1.68,0,0,0,.56-.1s.07,0,.07,0Z"/><path d="M557.75,862.69c-.06,0-.08,0-.08-.07V859h-4v3.61a.08.08,0,0,1-.08.08h-.84c-.06,0-.08,0-.08-.08v-7.76c0-.06,0-.08.08-.08h.84c.06,0,.08,0,.08.07v3.25h4v-3.25a.06.06,0,0,1,.07-.07h.88s.06,0,.06.07v7.78c0,.06,0,.07-.07.07Z"/><path d="M565,861.42a8,8,0,0,0,.07,1.2s0,.07-.07.07h-.77c-.06,0-.07,0-.1-.06a3.24,3.24,0,0,1-.07-.52,2.36,2.36,0,0,1-1.74.7c-1,0-2-.52-2-2.26v-3.62c0-.06,0-.07.08-.07h.85s.06,0,.06.07v3.5c0,.92.43,1.49,1.27,1.49a1.8,1.8,0,0,0,1.39-.61v-4.38s0-.07.08-.07h.84c.07,0,.07,0,.07.07Z"/><path d="M567.64,854.09c.06,0,.08,0,.08.07V857a3.41,3.41,0,0,1,1.29-.24,2.64,2.64,0,0,1,2.73,2.81,3.16,3.16,0,0,1-3.32,3.26,5.18,5.18,0,0,1-1.64-.24.11.11,0,0,1-.07-.11v-8.3c0-.06,0-.07.08-.07Zm1.22,3.53a2.86,2.86,0,0,0-1.14.2v4a2.54,2.54,0,0,0,.79.1,2.15,2.15,0,0,0,2.22-2.32A1.82,1.82,0,0,0,568.86,857.62Z"/><path d="M576,862.69s-.07,0-.07-.07v-7.75c0-.06,0-.1.07-.1.67,0,1.28,0,2.09,0,1.76,0,2.94.76,2.94,2.29a2.22,2.22,0,0,1-1.66,2.12c.41.56,2,2.93,2.33,3.44,0,0,0,.1,0,.1h-1a.15.15,0,0,1-.13,0l-2-3c-.1-.14-.16-.19-.28-.19h-1.37v3.19a.06.06,0,0,1-.07.07Zm2.2-4.14c1.14,0,1.83-.59,1.83-1.48s-.7-1.45-2-1.45c-.46,0-.9,0-1.14,0v2.9Z"/><path d="M586.74,861.67a4.63,4.63,0,0,0,0,.58s0,0,0,0a5,5,0,0,1-2.24.52c-1.27,0-2.23-.62-2.23-1.88s1.19-1.84,2.67-1.84c.44,0,.7,0,.83,0v-.29a1.18,1.18,0,0,0-1.36-1.2,3.2,3.2,0,0,0-1.52.36.06.06,0,0,1-.08-.06v-.73a.1.1,0,0,1,.06-.1,3.94,3.94,0,0,1,1.7-.36,2,2,0,0,1,2.17,2.26Zm-1-1.76a5.48,5.48,0,0,0-.79,0c-1.16,0-1.73.4-1.73,1.07s.37,1.07,1.43,1.07a2.83,2.83,0,0,0,1.09-.2Z"/><path d="M593.07,862.69c-.07,0-.1,0-.11-.08-.89-3.18-1.12-4.17-1.25-4.74h0c-.22,1-.65,2.42-1.33,4.74a.1.1,0,0,1-.12.08h-.92c-.1,0-.12,0-.13-.08l-1.56-5.66s0-.08.06-.08h.9a.08.08,0,0,1,.08.06c.89,3.3,1.09,4.4,1.17,4.82h0c.1-.41.31-1.4,1.33-4.8,0-.06,0-.08.08-.08h1a.08.08,0,0,1,.08.07c1,3.48,1.14,4.35,1.24,4.82h0c.13-.56.31-1.58,1.25-4.83a.08.08,0,0,1,.08-.06h.84s.07,0,.06.07l-1.72,5.68s0,.07-.11.07Z"/><path d="M601.36,853.63s0-.06.1-.06h.85c.06,0,.08,0,0,.08a8.46,8.46,0,0,0,0,11c0,.06,0,.08,0,.08h-.85s-.06,0-.1,0a8.74,8.74,0,0,1,0-11Z"/><path d="M603.28,862.36c-.06,0-.07-.07-.07-.14v-.87s0-.07.08,0a3.74,3.74,0,0,0,2.05.59c1.15,0,1.68-.52,1.68-1.24,0-.56-.32-1-1.42-1.47l-.53-.21c-1.49-.64-1.82-1.39-1.82-2.2,0-1.25,1-2.13,2.58-2.13a4,4,0,0,1,1.77.32s.06.06.06.12v.8s0,.08-.1,0a3.49,3.49,0,0,0-1.76-.4c-1.25,0-1.58.65-1.58,1.15s.31.95,1.38,1.4l.52.22c1.48.62,1.91,1.37,1.91,2.27,0,1.3-1,2.23-2.72,2.23A4.13,4.13,0,0,1,603.28,862.36Z"/><path d="M611.84,862.52a.12.12,0,0,1-.07.12,2.24,2.24,0,0,1-.9.17c-.87,0-1.4-.42-1.4-1.57v-3.51h-.82c-.07,0-.08,0-.08-.1v-.68c0-.06,0-.08.08-.08h.82c0-.44.06-1.27.11-1.54a.1.1,0,0,1,.08-.08l.82-.13s.07,0,.07,0c0,.42-.07,1.12-.07,1.7h1.27s.07,0,.07.08v.71a.06.06,0,0,1-.07.07h-1.27v3.37c0,.55.2.86.73.86a1.68,1.68,0,0,0,.56-.1s.07,0,.07,0Z"/><path d="M617,861.67a4.63,4.63,0,0,0,0,.58s0,0,0,0a5,5,0,0,1-2.24.52c-1.27,0-2.23-.62-2.23-1.88s1.19-1.84,2.67-1.84c.44,0,.7,0,.83,0v-.29a1.18,1.18,0,0,0-1.36-1.2,3.2,3.2,0,0,0-1.52.36.06.06,0,0,1-.08-.06v-.73a.1.1,0,0,1,.06-.1,3.94,3.94,0,0,1,1.7-.36A2,2,0,0,1,617,859Zm-1-1.76a5.48,5.48,0,0,0-.79,0c-1.16,0-1.73.4-1.73,1.07s.37,1.07,1.43,1.07a2.83,2.83,0,0,0,1.09-.2Z"/><path d="M621.12,862.52a.12.12,0,0,1-.07.12,2.24,2.24,0,0,1-.9.17c-.88,0-1.4-.42-1.4-1.57v-3.51h-.82c-.07,0-.08,0-.08-.1v-.68c0-.06,0-.08.08-.08h.82c0-.44.06-1.27.11-1.54a.1.1,0,0,1,.08-.08l.82-.13s.07,0,.07,0c0,.42-.07,1.12-.07,1.7H621s.07,0,.07.08v.71a.06.06,0,0,1-.07.07h-1.27v3.37c0,.55.2.86.73.86a1.67,1.67,0,0,0,.56-.1s.07,0,.07,0Z"/><path d="M622.1,855.1a.59.59,0,0,1,.61-.61.57.57,0,0,1,.6.61.58.58,0,0,1-.61.61A.57.57,0,0,1,622.1,855.1Zm.1,1.85c0-.06,0-.08.08-.08h.85s.07,0,.07.07v5.67c0,.06,0,.08-.08.08h-.83c-.06,0-.1,0-.1-.1Z"/><path d="M628.8,862.54s0,.07,0,.08a3.63,3.63,0,0,1-1.31.19,2.82,2.82,0,0,1-3-3,3.27,3.27,0,0,1,4.27-2.9s0,0,0,.11v.75c0,.06,0,.06-.08,0a2.8,2.8,0,0,0-1.1-.18,2.14,2.14,0,0,0,0,4.28,3,3,0,0,0,1.12-.17c.06,0,.07,0,.07,0Z"/><path d="M630.73,864.67a.13.13,0,0,1-.11,0h-.84c-.06,0-.1,0,0-.08a8.46,8.46,0,0,0,0-11s0-.08,0-.08h.84a.11.11,0,0,1,.11.06,8.4,8.4,0,0,1,2,5.53A8.52,8.52,0,0,1,630.73,864.67Z"/><path class="cls-7" d="M546.3,916.19h78.4c9.27,0,16.8,8.06,16.8,18s-7.53,18-16.8,18H546.3c-9.27,0-16.8-8.06-16.8-18S537,916.19,546.3,916.19Z"/><path class="cls-6" d="M546.3,916.19h78.4c9.27,0,16.8,8.06,16.8,18s-7.53,18-16.8,18H546.3c-9.27,0-16.8-8.06-16.8-18S537,916.19,546.3,916.19Z"/><path d="M546.51,932.86h1l1.34,3.31c.24.59.46,1.16.66,1.71h0c.2-.55.39-1.13.63-1.71l1.34-3.31h.95l-2.41,5.83H549Z"/><path d="M554.06,935.79a3,3,0,0,1,3.25-3.07,3,3,0,0,1,2.12.85l-.49.64a2.36,2.36,0,0,0-1.59-.67,2.15,2.15,0,0,0-2.27,2.25,2.12,2.12,0,0,0,2.24,2.23,2.77,2.77,0,0,0,1.8-.73l.44.64a3.47,3.47,0,0,1-2.31.91A2.94,2.94,0,0,1,554.06,935.79Z"/><path d="M563.26,936.74V931h-2.07v-.8h3.06v6.66A1.06,1.06,0,0,0,565.4,938a2.64,2.64,0,0,0,1.09-.26l.25.73a3.53,3.53,0,0,1-1.56.35C563.95,938.84,563.26,938.12,563.26,936.74Z"/><path d="M568.22,939.52H574v.85h-5.76Z"/><path d="M575.42,935.79a2.81,2.81,0,0,1,2.65-3.07,2.41,2.41,0,0,1,1.74.76h0l0-1.08v-2.24h1v8.54H580l-.08-.77h0a2.79,2.79,0,0,1-1.89.91C576.43,938.84,575.42,937.73,575.42,935.79Zm4.38,1.34v-2.9a2.21,2.21,0,0,0-1.54-.68,2,2,0,0,0-1.82,2.23c0,1.39.64,2.23,1.71,2.23A2.24,2.24,0,0,0,579.8,937.13Z"/><path d="M582.71,935.77a2.93,2.93,0,0,1,3-3,2.51,2.51,0,0,1,2.66,2.73,4,4,0,0,1,0,.6h-4.59a2.09,2.09,0,0,0,2.27,2,3.17,3.17,0,0,0,1.78-.55l.36.65a4,4,0,0,1-2.25.7A3,3,0,0,1,582.71,935.77Zm1-.48h3.72a1.67,1.67,0,0,0-1.74-1.79A2,2,0,0,0,583.73,935.29Z"/><path d="M592.06,936.74V931H590v-.8H593v6.66A1.06,1.06,0,0,0,594.2,938a2.63,2.63,0,0,0,1.09-.26l.25.73a3.53,3.53,0,0,1-1.56.35C592.75,938.84,592.06,938.12,592.06,936.74Z"/><path d="M600.09,933.67h-2.71v-.8h3.69v5.83h-1Zm-.41-2.79a.79.79,0,1,1,.79.77A.76.76,0,0,1,599.68,930.87Z"/><path d="M604.11,932.86h1l1.34,3.31c.24.59.46,1.16.66,1.71h0c.2-.55.4-1.13.64-1.71l1.34-3.31h.95l-2.41,5.83h-1.1Z"/><path d="M611.51,935.77a2.93,2.93,0,0,1,3-3,2.51,2.51,0,0,1,2.66,2.73,4.13,4.13,0,0,1,0,.6h-4.59a2.09,2.09,0,0,0,2.27,2,3.18,3.18,0,0,0,1.78-.55l.36.65a4,4,0,0,1-2.25.7A3,3,0,0,1,611.51,935.77Zm1-.48h3.72a1.67,1.67,0,0,0-1.74-1.79A2,2,0,0,0,612.53,935.29Z"/><path d="M619.65,932.86h.81l.08,1.38h0a3.1,3.1,0,0,1,2.6-1.52,2.45,2.45,0,0,1,1.15.24l-.23.85a2.69,2.69,0,0,0-1.08-.2,2.75,2.75,0,0,0-2.4,1.67v3.42h-1Z"/><line class="cls-4" x1="585.5" y1="496.19" x2="585.5" y2="522.79"/><polygon points="585.5 532.39 589.1 522.79 581.9 522.79 585.5 532.39"/><polygon class="cls-5" points="585.5 532.39 589.1 522.79 581.9 522.79 585.5 532.39"/><line class="cls-4" x1="585.5" y1="724.19" x2="585.5" y2="750.79"/><polygon points="585.5 760.39 589.1 750.79 581.9 750.79 585.5 760.39"/><polygon class="cls-5" points="585.5 760.39 589.1 750.79 581.9 750.79 585.5 760.39"/><path class="cls-3" d="M492,995.67v21.14a3,3,0,0,0,1.72,2.71l24.5,11.58a3,3,0,0,0,2.56,0l24.5-11.58a3,3,0,0,0,1.72-2.71V995.67a3,3,0,0,0-3-3H495A3,3,0,0,0,492,995.67Z"/><path class="cls-6" d="M492,995.67v21.14a3,3,0,0,0,1.72,2.71l24.5,11.58a3,3,0,0,0,2.56,0l24.5-11.58a3,3,0,0,0,1.72-2.71V995.67a3,3,0,0,0-3-3H495A3,3,0,0,0,492,995.67Z"/><path d="M499.07,1004.38c.07,0,.08,0,.11.08a4.62,4.62,0,0,1,.1.83,2.5,2.5,0,0,1,1.93-1c.06,0,.08,0,.08.08v.86c0,.06,0,.07-.08.07a2.26,2.26,0,0,0-1.88.88v4c0,.06,0,.07-.07.07h-.85c-.06,0-.08,0-.08-.08V1006c0-.5,0-1.2-.06-1.54,0,0,0-.07.06-.07Z"/><path d="M502.79,1007.42a1.87,1.87,0,0,0,2,2,3.38,3.38,0,0,0,1.5-.32s.06,0,.06,0v.68a.12.12,0,0,1-.06.12,3.68,3.68,0,0,1-1.69.35,2.7,2.7,0,0,1-2.82-3c0-1.68,1-3.08,2.65-3.08a2.29,2.29,0,0,1,2.34,2.41,3.17,3.17,0,0,1,0,.62.08.08,0,0,1-.08.07,9.83,9.83,0,0,1-1.23,0Zm2.24-.74a4.63,4.63,0,0,0,.77,0,.48.48,0,0,0,0-.13,1.4,1.4,0,0,0-1.42-1.43,1.63,1.63,0,0,0-1.6,1.58Z"/><path d="M509.77,1005.09c-.79,0-1.06.38-1.06.74s.22.61,1.12,1c1.21.47,1.7,1,1.7,1.81,0,1.1-.9,1.71-2.15,1.71a3.41,3.41,0,0,1-1.61-.35.11.11,0,0,1-.06-.11v-.8c0-.06,0-.08.07-.06a2.89,2.89,0,0,0,1.62.48c.77,0,1.14-.34,1.14-.78s-.26-.71-1.09-1c-1.2-.46-1.7-.95-1.7-1.8s.73-1.62,2-1.62a3,3,0,0,1,1.4.26c.06,0,.06.07.06.12v.73c0,.06,0,.1-.1.06A2.9,2.9,0,0,0,509.77,1005.09Z"/><path d="M517.81,1007.09a3.2,3.2,0,0,1-3.43,3.24,3.89,3.89,0,0,1-.61,0v2.4s0,.07-.06.08l-.88.1s-.06,0-.06-.07v-7.47c0-.11,0-.37,0-.53a0,0,0,0,1,0,0,6.07,6.07,0,0,1,2.23-.48A2.66,2.66,0,0,1,517.81,1007.09Zm-4-1.76v4.07a2.56,2.56,0,0,0,.68.07,2.21,2.21,0,0,0,2.34-2.32,1.81,1.81,0,0,0-1.91-2A3.24,3.24,0,0,0,513.77,1005.33Z"/><path d="M524.23,1007.29a2.76,2.76,0,1,1-5.49,0,2.8,2.8,0,0,1,2.76-3A2.75,2.75,0,0,1,524.23,1007.29Zm-4.49,0c0,1.22.64,2.2,1.78,2.2.85,0,1.69-.67,1.69-2.16,0-1.12-.52-2.18-1.76-2.18C520.44,1005.13,519.74,1006,519.74,1007.27Z"/><path d="M525.48,1005.74c0-.41,0-1.08,0-1.28,0,0,0-.07.07-.07h.74a.11.11,0,0,1,.11.07,3.89,3.89,0,0,1,.07.6,2.52,2.52,0,0,1,1.83-.79c.85,0,2,.42,2,2.32v3.55c0,.06,0,.08-.08.08h-.84c-.06,0-.08,0-.08-.1v-3.44c0-.91-.4-1.52-1.24-1.52a1.92,1.92,0,0,0-1.5.73v4.25c0,.06,0,.08-.07.08h-.85s-.07,0-.07-.08Z"/><path d="M533.53,1005.09c-.79,0-1.06.38-1.06.74s.22.61,1.12,1c1.21.47,1.7,1,1.7,1.81,0,1.1-.9,1.71-2.15,1.71a3.41,3.41,0,0,1-1.61-.35.11.11,0,0,1-.06-.11v-.8c0-.06,0-.08.07-.06a2.9,2.9,0,0,0,1.62.48c.77,0,1.14-.34,1.14-.78s-.26-.71-1.09-1c-1.2-.46-1.7-.95-1.7-1.8s.73-1.62,2-1.62a3,3,0,0,1,1.4.26c.06,0,.06.07.06.12v.73c0,.06,0,.1-.1.06A2.91,2.91,0,0,0,533.53,1005.09Z"/><path d="M537.16,1007.42a1.87,1.87,0,0,0,2,2,3.37,3.37,0,0,0,1.5-.32s.06,0,.06,0v.68a.12.12,0,0,1-.06.12,3.68,3.68,0,0,1-1.69.35,2.7,2.7,0,0,1-2.82-3c0-1.68,1-3.08,2.65-3.08a2.29,2.29,0,0,1,2.34,2.41,3.09,3.09,0,0,1,0,.62.08.08,0,0,1-.08.07,9.85,9.85,0,0,1-1.24,0Zm2.24-.74a4.63,4.63,0,0,0,.77,0,.46.46,0,0,0,0-.13,1.4,1.4,0,0,0-1.42-1.43,1.63,1.63,0,0,0-1.59,1.58Z"/><polygon class="cls-3" points="501 1.67 501 27.71 524.5 40.71 548 27.71 548 1.67 501 1.67"/><polygon class="cls-6" points="501 1.67 501 27.71 524.5 40.71 548 27.71 548 1.67 501 1.67"/><path d="M507.81,13.38c.07,0,.08,0,.11.08a4.62,4.62,0,0,1,.1.83,2.5,2.5,0,0,1,1.93-1c.06,0,.08,0,.08.08v.86c0,.06,0,.07-.08.07a2.26,2.26,0,0,0-1.88.88v4c0,.06,0,.07-.07.07h-.85c-.06,0-.08,0-.08-.08V15c0-.5,0-1.2-.06-1.54,0,0,0-.07.06-.07Z"/><path d="M511.53,16.42a1.87,1.87,0,0,0,2,2,3.38,3.38,0,0,0,1.5-.32s.06,0,.06,0v.68A.12.12,0,0,1,515,19a3.68,3.68,0,0,1-1.69.35,2.7,2.7,0,0,1-2.82-3c0-1.68,1-3.08,2.65-3.08a2.29,2.29,0,0,1,2.34,2.41,3.17,3.17,0,0,1,0,.62.08.08,0,0,1-.08.07,9.83,9.83,0,0,1-1.23,0Zm2.24-.74a4.63,4.63,0,0,0,.77,0,.48.48,0,0,0,0-.13,1.4,1.4,0,0,0-1.42-1.43,1.63,1.63,0,0,0-1.6,1.58Z"/><path d="M516.4,16.37a3,3,0,0,1,3.26-3.11,4.54,4.54,0,0,1,1.78.32s0,0,0,.06c0,.2,0,.47,0,.56v7.48s0,.06-.07.07l-.88.1s-.06,0-.06-.07V19.14a3.52,3.52,0,0,1-1.15.19A2.77,2.77,0,0,1,516.4,16.37Zm4-2.12a2.73,2.73,0,0,0-.86-.12,2,2,0,0,0-2.15,2.18,2,2,0,0,0,2,2.13,2.53,2.53,0,0,0,1-.17Z"/><path d="M527.77,17.94a7.85,7.85,0,0,0,.07,1.2s0,.07-.07.07H527c-.06,0-.07,0-.1-.06a3,3,0,0,1-.07-.52,2.36,2.36,0,0,1-1.74.7c-1,0-2-.52-2-2.25V13.45c0-.06,0-.07.08-.07h.85s.06,0,.06.07V17c0,.92.43,1.49,1.27,1.49a1.8,1.8,0,0,0,1.39-.61V13.45s0-.07.08-.07h.84c.07,0,.07,0,.07.07Z"/><path d="M530.05,16.42a1.87,1.87,0,0,0,2,2,3.37,3.37,0,0,0,1.5-.32s.06,0,.06,0v.68a.12.12,0,0,1-.06.12,3.68,3.68,0,0,1-1.69.35,2.7,2.7,0,0,1-2.82-3c0-1.68,1-3.08,2.65-3.08A2.29,2.29,0,0,1,534,15.67a3.09,3.09,0,0,1,0,.62.08.08,0,0,1-.08.07,9.85,9.85,0,0,1-1.24,0Zm2.24-.74a4.63,4.63,0,0,0,.77,0,.46.46,0,0,0,0-.13,1.4,1.4,0,0,0-1.42-1.43,1.63,1.63,0,0,0-1.59,1.58Z"/><path d="M537,14.09c-.79,0-1.06.38-1.06.74s.22.61,1.12,1c1.21.47,1.7,1,1.7,1.81,0,1.1-.9,1.71-2.15,1.71A3.41,3.41,0,0,1,535,19a.11.11,0,0,1-.06-.11v-.8c0-.06,0-.08.07-.06a2.9,2.9,0,0,0,1.62.48c.77,0,1.14-.34,1.14-.78s-.26-.71-1.09-1c-1.2-.46-1.7-.95-1.7-1.8s.73-1.62,2-1.62a3,3,0,0,1,1.4.26c.06,0,.06.07.06.12v.73c0,.06,0,.1-.1.06A2.91,2.91,0,0,0,537,14.09Z"/><path d="M542.59,19a.11.11,0,0,1-.07.12,2.22,2.22,0,0,1-.9.17c-.88,0-1.4-.42-1.4-1.57V14.25h-.82c-.07,0-.08,0-.08-.1v-.68c0-.06,0-.08.08-.08h.82c0-.44.06-1.27.11-1.54a.1.1,0,0,1,.08-.08l.82-.13s.07,0,.07,0c0,.42-.07,1.12-.07,1.7h1.27s.07,0,.07.08v.71a.06.06,0,0,1-.07.07h-1.27v3.37c0,.55.2.86.73.86a1.65,1.65,0,0,0,.56-.1s.07,0,.07,0Z"/><line class="cls-4" x1="570.27" y1="952.19" x2="544.77" y2="982.32"/><polygon points="538.57 989.65 547.52 984.65 542.02 980 538.57 989.65"/><polygon class="cls-5" points="538.57 989.65 547.52 984.65 542.02 980 538.57 989.65"/><path class="cls-7" d="M810.3,916.19h78.4c9.27,0,16.8,8.06,16.8,18s-7.53,18-16.8,18H810.3c-9.27,0-16.8-8.06-16.8-18S801,916.19,810.3,916.19Z"/><path class="cls-6" d="M810.3,916.19h78.4c9.27,0,16.8,8.06,16.8,18s-7.53,18-16.8,18H810.3c-9.27,0-16.8-8.06-16.8-18S801,916.19,810.3,916.19Z"/><path d="M810.51,932.86h1l1.34,3.31c.24.59.46,1.16.66,1.71h0c.2-.55.39-1.13.63-1.71l1.34-3.31h.95l-2.41,5.83H813Z"/><path d="M818.06,935.79a3,3,0,0,1,3.25-3.07,3,3,0,0,1,2.12.85l-.49.64a2.36,2.36,0,0,0-1.59-.67,2.15,2.15,0,0,0-2.27,2.25,2.12,2.12,0,0,0,2.24,2.23,2.77,2.77,0,0,0,1.8-.73l.44.64a3.47,3.47,0,0,1-2.31.91A2.94,2.94,0,0,1,818.06,935.79Z"/><path d="M827.26,936.74V931h-2.07v-.8h3.06v6.66A1.06,1.06,0,0,0,829.4,938a2.64,2.64,0,0,0,1.09-.26l.25.73a3.53,3.53,0,0,1-1.56.35C827.95,938.84,827.26,938.12,827.26,936.74Z"/><path d="M832.22,939.52H838v.85h-5.76Z"/><path d="M839.42,935.79a2.81,2.81,0,0,1,2.65-3.07,2.41,2.41,0,0,1,1.74.76h0l0-1.08v-2.24h1v8.54H844l-.08-.77h0a2.79,2.79,0,0,1-1.89.91C840.43,938.84,839.42,937.73,839.42,935.79Zm4.38,1.34v-2.9a2.21,2.21,0,0,0-1.54-.68,2,2,0,0,0-1.82,2.23c0,1.39.64,2.23,1.71,2.23A2.24,2.24,0,0,0,843.8,937.13Z"/><path d="M846.71,935.77a2.93,2.93,0,0,1,3-3,2.51,2.51,0,0,1,2.66,2.73,4,4,0,0,1,0,.6h-4.59a2.09,2.09,0,0,0,2.27,2,3.17,3.17,0,0,0,1.78-.55l.36.65a4,4,0,0,1-2.25.7A3,3,0,0,1,846.71,935.77Zm1-.48h3.72a1.67,1.67,0,0,0-1.74-1.79A2,2,0,0,0,847.73,935.29Z"/><path d="M856.06,936.74V931H854v-.8H857v6.66A1.06,1.06,0,0,0,858.2,938a2.63,2.63,0,0,0,1.09-.26l.25.73a3.53,3.53,0,0,1-1.56.35C856.75,938.84,856.06,938.12,856.06,936.74Z"/><path d="M864.09,933.67h-2.71v-.8h3.69v5.83h-1Zm-.41-2.79a.79.79,0,1,1,.79.77A.76.76,0,0,1,863.68,930.87Z"/><path d="M868.11,932.86h1l1.34,3.31c.24.59.46,1.16.66,1.71h0c.2-.55.4-1.13.64-1.71l1.34-3.31h.95l-2.41,5.83h-1.1Z"/><path d="M875.51,935.77a2.93,2.93,0,0,1,3-3,2.51,2.51,0,0,1,2.66,2.73,4.13,4.13,0,0,1,0,.6h-4.59a2.09,2.09,0,0,0,2.27,2,3.18,3.18,0,0,0,1.78-.55l.36.65a4,4,0,0,1-2.25.7A3,3,0,0,1,875.51,935.77Zm1-.48h3.72a1.67,1.67,0,0,0-1.74-1.79A2,2,0,0,0,876.53,935.29Z"/><path d="M883.65,932.86h.81l.08,1.38h0a3.1,3.1,0,0,1,2.6-1.52,2.45,2.45,0,0,1,1.15.24l-.23.85a2.69,2.69,0,0,0-1.08-.2,2.75,2.75,0,0,0-2.4,1.67v3.42h-1Z"/><line class="cls-4" x1="797.94" y1="946.38" x2="560.05" y2="1002.61"/><polygon points="550.71 1004.82 560.88 1006.11 559.23 999.1 550.71 1004.82"/><polygon class="cls-5" points="550.71 1004.82 560.88 1006.11 559.23 999.1 550.71 1004.82"/><path class="cls-7" d="M678.3,916.19h78.4c9.27,0,16.8,8.06,16.8,18s-7.53,18-16.8,18H678.3c-9.27,0-16.8-8.06-16.8-18S669,916.19,678.3,916.19Z"/><path class="cls-6" d="M678.3,916.19h78.4c9.27,0,16.8,8.06,16.8,18s-7.53,18-16.8,18H678.3c-9.27,0-16.8-8.06-16.8-18S669,916.19,678.3,916.19Z"/><path d="M678.51,932.86h1l1.34,3.31c.24.59.46,1.16.66,1.71h0c.2-.55.39-1.13.63-1.71l1.34-3.31h.95l-2.41,5.83H681Z"/><path d="M686.06,935.79a3,3,0,0,1,3.25-3.07,3,3,0,0,1,2.12.85l-.49.64a2.36,2.36,0,0,0-1.59-.67,2.15,2.15,0,0,0-2.27,2.25,2.12,2.12,0,0,0,2.24,2.23,2.77,2.77,0,0,0,1.8-.73l.44.64a3.47,3.47,0,0,1-2.31.91A2.94,2.94,0,0,1,686.06,935.79Z"/><path d="M695.26,936.74V931h-2.07v-.8h3.06v6.66A1.06,1.06,0,0,0,697.4,938a2.64,2.64,0,0,0,1.09-.26l.25.73a3.53,3.53,0,0,1-1.56.35C695.95,938.84,695.26,938.12,695.26,936.74Z"/><path d="M700.22,939.52H706v.85h-5.76Z"/><path d="M707.42,935.79a2.81,2.81,0,0,1,2.65-3.07,2.41,2.41,0,0,1,1.74.76h0l0-1.08v-2.24h1v8.54H712l-.08-.77h0a2.79,2.79,0,0,1-1.89.91C708.43,938.84,707.42,937.73,707.42,935.79Zm4.38,1.34v-2.9a2.21,2.21,0,0,0-1.54-.68,2,2,0,0,0-1.82,2.23c0,1.39.64,2.23,1.71,2.23A2.24,2.24,0,0,0,711.8,937.13Z"/><path d="M714.71,935.77a2.93,2.93,0,0,1,3-3,2.51,2.51,0,0,1,2.66,2.73,4,4,0,0,1,0,.6h-4.59a2.09,2.09,0,0,0,2.27,2,3.17,3.17,0,0,0,1.78-.55l.36.65a4,4,0,0,1-2.25.7A3,3,0,0,1,714.71,935.77Zm1-.48h3.72a1.67,1.67,0,0,0-1.74-1.79A2,2,0,0,0,715.73,935.29Z"/><path d="M724.06,936.74V931H722v-.8H725v6.66A1.06,1.06,0,0,0,726.2,938a2.63,2.63,0,0,0,1.09-.26l.25.73a3.53,3.53,0,0,1-1.56.35C724.75,938.84,724.06,938.12,724.06,936.74Z"/><path d="M732.09,933.67h-2.71v-.8h3.69v5.83h-1Zm-.41-2.79a.79.79,0,1,1,.79.77A.76.76,0,0,1,731.68,930.87Z"/><path d="M736.11,932.86h1l1.34,3.31c.24.59.46,1.16.66,1.71h0c.2-.55.4-1.13.64-1.71l1.34-3.31h.95l-2.41,5.83h-1.1Z"/><path d="M743.51,935.77a2.93,2.93,0,0,1,3-3,2.51,2.51,0,0,1,2.66,2.73,4.13,4.13,0,0,1,0,.6h-4.59a2.09,2.09,0,0,0,2.27,2,3.18,3.18,0,0,0,1.78-.55l.36.65a4,4,0,0,1-2.25.7A3,3,0,0,1,743.51,935.77Zm1-.48h3.72a1.67,1.67,0,0,0-1.74-1.79A2,2,0,0,0,744.53,935.29Z"/><path d="M751.65,932.86h.81l.08,1.38h0a3.1,3.1,0,0,1,2.6-1.52,2.45,2.45,0,0,1,1.15.24l-.23.85a2.69,2.69,0,0,0-1.08-.2,2.75,2.75,0,0,0-2.4,1.67v3.42h-1Z"/><polyline class="cls-4" points="673.48 951.44 613.99 974.74 559.49 996.34"/><polygon points="550.57 999.88 560.82 999.69 558.17 992.99 550.57 999.88"/><polygon class="cls-5" points="550.57 999.88 560.82 999.69 558.17 992.99 550.57 999.88"/><path class="cls-4" d="M239.58,947.9c8.49,2.32,14.91,4.07,15.92,4.33,63.77,15.87,160.58,37.5,223.39,51.2"/><polygon points="488.27 1005.46 479.66 999.9 478.13 1006.94 488.27 1005.46"/><polygon class="cls-5" points="488.27 1005.46 479.66 999.9 478.13 1006.94 488.27 1005.46"/><line class="cls-4" x1="524.5" y1="40.71" x2="524.5" y2="66.79"/><polygon points="524.5 76.39 528.1 66.79 520.9 66.79 524.5 76.39"/><polygon class="cls-5" points="524.5 76.39 528.1 66.79 520.9 66.79 524.5 76.39"/><path class="cls-7" d="M18.3,916.19H96.7c9.27,0,16.8,8.06,16.8,18s-7.53,18-16.8,18H18.3c-9.27,0-16.8-8.06-16.8-18S9,916.19,18.3,916.19Z"/><path class="cls-6" d="M18.3,916.19H96.7c9.27,0,16.8,8.06,16.8,18s-7.53,18-16.8,18H18.3c-9.27,0-16.8-8.06-16.8-18S9,916.19,18.3,916.19Z"/><path d="M18.51,932.86h1l1.34,3.31c.24.59.46,1.16.66,1.71h0c.2-.55.4-1.13.64-1.71l1.34-3.31h.95l-2.41,5.83H21Z"/><path d="M26.06,935.79a3,3,0,0,1,3.25-3.07,3,3,0,0,1,2.12.85l-.49.64a2.36,2.36,0,0,0-1.6-.67,2.15,2.15,0,0,0-2.27,2.25A2.12,2.12,0,0,0,29.32,938a2.77,2.77,0,0,0,1.8-.73l.44.64a3.47,3.47,0,0,1-2.31.91A2.94,2.94,0,0,1,26.06,935.79Z"/><path d="M35.26,936.74V931H33.19v-.8h3.06v6.66A1.06,1.06,0,0,0,37.4,938a2.63,2.63,0,0,0,1.09-.26l.25.73a3.53,3.53,0,0,1-1.56.35C35.95,938.84,35.26,938.12,35.26,936.74Z"/><path d="M40.22,939.52H46v.85H40.22Z"/><path d="M47.42,935.79a2.81,2.81,0,0,1,2.65-3.07,2.41,2.41,0,0,1,1.74.76h0l0-1.08v-2.24h1v8.54H52l-.08-.77h0a2.79,2.79,0,0,1-1.9.91C48.43,938.84,47.42,937.73,47.42,935.79Zm4.38,1.34v-2.9a2.21,2.21,0,0,0-1.54-.68,2,2,0,0,0-1.82,2.23c0,1.39.64,2.23,1.71,2.23A2.24,2.24,0,0,0,51.8,937.13Z"/><path d="M54.71,935.77a2.93,2.93,0,0,1,3-3,2.51,2.51,0,0,1,2.66,2.73,4,4,0,0,1,0,.6H55.71A2.09,2.09,0,0,0,58,938a3.17,3.17,0,0,0,1.77-.55l.36.65a4,4,0,0,1-2.25.7A3,3,0,0,1,54.71,935.77Zm1-.48h3.72a1.67,1.67,0,0,0-1.74-1.79A2,2,0,0,0,55.73,935.29Z"/><path d="M64.06,936.74V931H62v-.8H65v6.66A1.06,1.06,0,0,0,66.2,938a2.63,2.63,0,0,0,1.09-.26l.25.73a3.53,3.53,0,0,1-1.56.35C64.75,938.84,64.06,938.12,64.06,936.74Z"/><path d="M72.09,933.67H69.38v-.8h3.69v5.83h-1Zm-.41-2.79a.79.79,0,1,1,.79.77A.76.76,0,0,1,71.68,930.87Z"/><path d="M76.11,932.86h1l1.34,3.31c.24.59.46,1.16.66,1.71h0c.2-.55.4-1.13.64-1.71l1.34-3.31h.95l-2.41,5.83h-1.1Z"/><path d="M83.51,935.77a2.93,2.93,0,0,1,3-3,2.51,2.51,0,0,1,2.66,2.73,4.05,4.05,0,0,1,0,.6H84.51a2.09,2.09,0,0,0,2.27,2,3.18,3.18,0,0,0,1.78-.55l.36.65a4,4,0,0,1-2.25.7A3,3,0,0,1,83.51,935.77Zm1-.48h3.72a1.67,1.67,0,0,0-1.74-1.79A2,2,0,0,0,84.53,935.29Z"/><path d="M91.65,932.86h.82l.08,1.38h0a3.1,3.1,0,0,1,2.6-1.52,2.44,2.44,0,0,1,1.15.24l-.23.85a2.69,2.69,0,0,0-1.08-.2,2.75,2.75,0,0,0-2.4,1.67v3.42h-1Z"/><path class="cls-4" d="M57.5,876.19v26.6"/><polygon points="57.5 912.39 61.1 902.79 53.9 902.79 57.5 912.39"/><polygon class="cls-5" points="57.5 912.39 61.1 902.79 53.9 902.79 57.5 912.39"/><path class="cls-4" d="M107.55,947.93c8.5,2.33,14.94,4.08,15.95,4.29,110.31,23.24,266.79,44.24,355.19,55.1"/><polygon points="488.22 1008.48 479.13 1003.75 478.26 1010.89 488.22 1008.48"/><polygon class="cls-5" points="488.22 1008.48 479.13 1003.75 478.26 1010.89 488.22 1008.48"/><path class="cls-4" d="M468.74,952.19l25.47,30.13"/><polygon points="500.41 989.65 496.96 980 491.47 984.65 500.41 989.65"/><polygon class="cls-5" points="500.41 989.65 496.96 980 491.47 984.65 500.41 989.65"/><path class="cls-4" d="M365.42,951.47l114.08,45"/><polygon points="488.43 999.98 480.82 993.11 478.18 999.8 488.43 999.98"/><polygon class="cls-5" points="488.43 999.98 480.82 993.11 478.18 999.8 488.43 999.98"/><line class="cls-4" x1="484.76" y1="420.19" x2="542.19" y2="453.26"/><polygon points="550.51 458.05 543.99 450.13 540.39 456.38 550.51 458.05"/><polygon class="cls-5" points="550.51 458.05 543.99 450.13 540.39 456.38 550.51 458.05"/><path class="cls-7" d="M942.3,916.19h78.4c9.27,0,16.8,8.06,16.8,18s-7.53,18-16.8,18H942.3c-9.27,0-16.8-8.06-16.8-18S933,916.19,942.3,916.19Z"/><path class="cls-6" d="M942.3,916.19h78.4c9.27,0,16.8,8.06,16.8,18s-7.53,18-16.8,18H942.3c-9.27,0-16.8-8.06-16.8-18S933,916.19,942.3,916.19Z"/><path d="M949.71,932.86h1l1.34,3.31c.24.59.46,1.16.66,1.71h0c.2-.55.4-1.13.64-1.71l1.34-3.31h.95l-2.41,5.83h-1.1Z"/><path d="M957.26,935.79a3,3,0,0,1,3.25-3.07,3,3,0,0,1,2.12.85l-.49.64a2.36,2.36,0,0,0-1.6-.67,2.15,2.15,0,0,0-2.27,2.25,2.12,2.12,0,0,0,2.24,2.23,2.77,2.77,0,0,0,1.8-.73l.44.64a3.47,3.47,0,0,1-2.31.91A2.94,2.94,0,0,1,957.26,935.79Z"/><path d="M966.46,936.74V931h-2.08v-.8h3.06v6.66A1.06,1.06,0,0,0,968.6,938a2.63,2.63,0,0,0,1.09-.26l.25.73a3.53,3.53,0,0,1-1.56.35C967.15,938.84,966.46,938.12,966.46,936.74Z"/><path d="M971.42,939.52h5.76v.85h-5.76Z"/><path d="M978.75,937.92l.46-.65a4.14,4.14,0,0,0,2.53.79c1,0,1.48-.42,1.48-.91s-.24-.76-1.82-1.08-2.28-.83-2.28-1.7.83-1.66,2.42-1.66a4.38,4.38,0,0,1,2.35.74l-.48.64a3.44,3.44,0,0,0-2-.61c-1,0-1.34.4-1.34.84s.5.72,1.69,1c1.94.42,2.41.91,2.41,1.8s-.92,1.74-2.59,1.74A5.12,5.12,0,0,1,978.75,937.92Z"/><path d="M985.9,941.08l.2-.78a1.87,1.87,0,0,0,.53.08,1.7,1.7,0,0,0,1.6-1.25l.18-.43-2.72-5.84h1l1.43,3.23c.23.52.48,1.13.72,1.69h0l.62-1.69,1.27-3.23h.94l-2.57,6.31a2.62,2.62,0,0,1-2.47,2A2.44,2.44,0,0,1,985.9,941.08Z"/><path d="M993.41,932.86h.82l.08,1h0a3,3,0,0,1,2.19-1.14c1.38,0,2,.82,2,2.35v3.62h-1V935.2c0-1.1-.38-1.63-1.34-1.63-.7,0-1.16.35-1.85,1.06v4.07h-1Z"/><path d="M1002,936.43v-2.76h-1.64v-.74l1.68-.06.13-1.87h.81v1.87h2.87v.8H1003v2.77c0,1,.35,1.6,1.48,1.6a3.84,3.84,0,0,0,1.4-.26l.22.72a5.07,5.07,0,0,1-1.82.35C1002.52,938.84,1002,937.87,1002,936.43Z"/><path d="M1007.81,930.15h1v2.33l-.06,1.38h0a3,3,0,0,1,2.18-1.14c1.38,0,2,.82,2,2.35v3.62h-1V935.2c0-1.1-.38-1.63-1.34-1.63-.7,0-1.16.35-1.85,1.06v4.07h-1Z"/><path class="cls-4" d="M580.4,100.2c56.94,11.1,148.12,53.65,229.1,201.8C917.06,498.76,964.61,804.9,977.63,902.9"/><polygon points="978.86 912.42 981.2 902.44 974.06 903.36 978.86 912.42"/><polygon class="cls-5" points="978.86 912.42 981.2 902.44 974.06 903.36 978.86 912.42"/><line class="cls-4" x1="927.79" y1="943.26" x2="560.22" y2="1005.32"/><polygon points="550.75 1006.91 560.82 1008.87 559.62 1001.77 550.75 1006.91"/><polygon class="cls-5" points="550.75 1006.91 560.82 1008.87 559.62 1001.77 550.75 1006.91"/><path class="cls-7" d="M485.3,80.19h78.4c9.27,0,16.8,8.06,16.8,18s-7.53,18-16.8,18H485.3c-9.27,0-16.8-8.06-16.8-18S476,80.19,485.3,80.19Z"/><path class="cls-6" d="M485.3,80.19h78.4c9.27,0,16.8,8.06,16.8,18s-7.53,18-16.8,18H485.3c-9.27,0-16.8-8.06-16.8-18S476,80.19,485.3,80.19Z"/><path d="M496.31,96.86h1l1.34,3.31c.24.59.46,1.16.66,1.71h0c.2-.55.4-1.13.64-1.71l1.34-3.31h.95l-2.41,5.83h-1.1Z"/><path d="M503.86,99.79a3,3,0,0,1,3.25-3.07,3,3,0,0,1,2.12.85l-.49.64a2.36,2.36,0,0,0-1.6-.67,2.15,2.15,0,0,0-2.27,2.25,2.12,2.12,0,0,0,2.24,2.23,2.77,2.77,0,0,0,1.8-.73l.44.64a3.47,3.47,0,0,1-2.31.91A2.94,2.94,0,0,1,503.86,99.79Z"/><path d="M513.06,100.74V95H511v-.8H514v6.66A1.06,1.06,0,0,0,515.2,102a2.63,2.63,0,0,0,1.09-.26l.25.73a3.53,3.53,0,0,1-1.56.35C513.75,102.84,513.06,102.12,513.06,100.74Z"/><path d="M518,103.52h5.76v.85H518Z"/><path d="M526.25,96.86h.82l.08,1.38h0a3.1,3.1,0,0,1,2.6-1.52,2.44,2.44,0,0,1,1.15.24l-.23.85a2.7,2.7,0,0,0-1.08-.2,2.75,2.75,0,0,0-2.4,1.67v3.42h-1Z"/><path d="M532.52,99.77a2.93,2.93,0,0,1,3-3,2.51,2.51,0,0,1,2.66,2.73,4,4,0,0,1,0,.6h-4.59a2.09,2.09,0,0,0,2.27,2,3.18,3.18,0,0,0,1.78-.55l.36.65a4,4,0,0,1-2.25.7A3,3,0,0,1,532.52,99.77Zm1-.48h3.72a1.67,1.67,0,0,0-1.74-1.79A2,2,0,0,0,533.54,99.29Z"/><path d="M539.86,99.79a3,3,0,0,1,3.25-3.07,3,3,0,0,1,2.12.85l-.49.64a2.36,2.36,0,0,0-1.6-.67,2.15,2.15,0,0,0-2.27,2.25,2.12,2.12,0,0,0,2.24,2.23,2.77,2.77,0,0,0,1.8-.73l.44.64a3.47,3.47,0,0,1-2.31.91A2.94,2.94,0,0,1,539.86,99.79Z"/><path d="M546.71,96.86h1l1.34,3.31c.24.59.46,1.16.66,1.71h0c.2-.55.4-1.13.63-1.71l1.34-3.31h.95l-2.41,5.83h-1.1Z"/><line class="cls-4" x1="488.74" y1="116.19" x2="421.78" y2="149.89"/><polygon points="413.2 154.21 423.4 153.11 420.16 146.68 413.2 154.21"/><polygon class="cls-5" points="413.2 154.21 423.4 153.11 420.16 146.68 413.2 154.21"/></g></svg>